<svg width="100" height="63" viewBox="0 0 100 63" fill="none" xmlns="http://www.w3.org/2000/svg">
<path fill-rule="evenodd" clip-rule="evenodd" d="M14.6129 0.933594H66.8081L67.8685 1.99493V11.1224L76.3097 11.1861C84.3266 11.2285 84.772 11.2498 85.684 11.6743C86.2142 11.9078 86.9989 12.4384 87.4655 12.8418C87.9109 13.2451 88.5048 13.9455 88.7805 14.4125C89.0562 14.8795 90.5196 18.6579 94.7614 30.3325L95.8855 31.1391C96.5217 31.5849 97.3489 32.2429 97.7307 32.625C98.1124 33.0071 98.7911 34.026 100 36.467V42.5166C100 48.545 100 48.5875 99.4698 49.6488C99.1941 50.2219 98.579 51.0922 98.0912 51.5804C97.6246 52.0474 96.7338 52.663 96.1188 52.9602C95.122 53.4272 95.0159 53.5333 95.0159 54.1489C95.0159 54.5309 94.825 55.4437 94.5917 56.1654C94.3372 56.9083 93.7858 57.9697 93.3616 58.564C92.9162 59.1371 92.1103 59.965 91.5801 60.3683C91.0286 60.7716 90.0318 61.3235 89.3531 61.5782C88.1654 62.0452 87.8897 62.0664 72.3224 62.0664L71.7922 61.5357C71.4528 61.1961 71.2619 60.7716 71.2619 60.3683C71.2619 59.9862 71.4528 59.5192 71.7922 59.2008C72.3012 58.6701 72.3436 58.6701 79.7455 58.6701L79.2789 57.9697C79.0244 57.6088 78.6426 56.7385 78.4305 56.0593C78.2185 55.4012 78.0488 54.5522 78.0488 53.5757H37.3277V54.2125C37.3277 54.5522 37.1368 55.4437 36.8823 56.1654C36.6278 56.9083 36.246 57.7574 35.631 58.6701H37.6458C39.5122 58.6701 39.7031 58.7126 40.1909 59.2008C40.5302 59.5404 40.7211 59.965 40.7211 60.3683C40.7211 60.7504 40.5302 61.2173 39.6819 62.0664H18.0276L17.4974 61.5357C17.158 61.1961 16.9671 60.7716 16.9671 60.3683C16.9671 59.9862 17.158 59.5192 17.4974 59.2008C17.9639 58.7126 18.1548 58.6701 22.0573 58.6701L21.5907 57.9697C21.3362 57.6088 20.9544 56.7385 20.7423 56.0593C20.5302 55.4012 20.3606 54.5522 20.3606 53.5757L17.2004 53.5121C14.4008 53.4696 13.9555 53.4271 13.4464 53.0451C13.1495 52.8116 12.6829 52.3446 12.4284 52.0262C12.0255 51.4743 11.983 51.1134 11.9194 47.9931C11.877 45.1912 11.9194 44.4695 12.1951 44.0662C12.3648 43.8115 12.7466 43.5567 13.0435 43.4931C13.5525 43.3869 13.5737 43.3233 13.5737 41.6888C13.5737 40.3303 13.5101 39.9907 13.2556 39.9907C13.0859 39.9907 12.7041 39.7572 12.4072 39.46C12.0679 39.1204 11.877 38.6958 11.877 38.2925C11.877 37.9105 12.0679 37.4435 12.9162 36.5944H26.087L26.6172 37.1251C26.9565 37.4647 27.1474 37.8892 27.1474 38.2925C27.1474 38.6746 26.9565 39.1416 26.1082 39.9907H16.9671V43.3869H64.4751V4.32986H16.9671V6.02799H19.8303C22.6087 6.02799 22.7147 6.04922 23.2238 6.55866C23.5631 6.89829 23.754 7.32282 23.754 7.72613C23.754 8.10821 23.5631 8.57519 22.7147 9.42426H1.06045L0.530223 8.8936C0.19088 8.55397 0 8.12944 0 7.72613C0 7.34405 0.19088 6.87706 1.03924 6.02799H13.5737V4.01146C13.5949 2.14351 13.6373 1.93125 14.1039 1.46426L14.6129 0.933594ZM67.8685 45.7219L66.8293 46.7832H34.1463C35.6522 48.5026 36.2036 49.2667 36.3309 49.5851L36.5854 50.1795H78.6851C79.6395 48.6087 80.2757 47.8233 80.7211 47.3988C81.1877 46.9955 81.8876 46.4648 82.2906 46.2101C82.6935 45.9554 83.5631 45.5945 84.1994 45.4035C84.8356 45.2337 85.8961 45.0638 86.5323 45.0638C87.1686 45.0638 88.3139 45.2549 89.0774 45.4884C89.8409 45.7219 90.9226 46.2738 91.4952 46.7195C92.0891 47.1653 92.8738 47.9507 93.2768 48.4813C93.6797 48.9908 94.0827 49.5639 94.1676 49.7549C94.316 50.0309 94.4008 50.0309 94.9099 49.7549C95.228 49.5639 95.737 49.0969 96.0551 48.6936L96.6066 47.9719C96.6066 37.3798 96.5854 37.0826 96.14 36.276C95.8855 35.809 95.4189 35.1722 95.0795 34.8538C94.7614 34.5566 93.8918 33.9198 93.1495 33.4316C92.2588 32.8373 91.7922 32.3703 91.7285 32.0307L91.6225 31.5C85.0053 31.3939 84.6448 31.3514 83.6691 30.8632C83.0753 30.566 82.2269 29.9505 81.7603 29.4835C81.2725 29.0165 80.6575 28.1462 80.3818 27.5731C79.8515 26.5117 79.8515 26.4268 79.8303 20.5046L79.7879 14.5187H67.8685V45.7219ZM83.4995 26.1084C83.7116 26.533 84.1994 27.1485 84.6023 27.4457C85.281 27.9339 85.5143 27.9976 87.7413 28.0401C89.0562 28.0613 90.1379 28.0188 90.1379 27.9339C90.1379 27.849 89.1623 25.1532 87.9958 21.948C86.8081 18.6579 85.6628 15.8772 85.4083 15.6012C85.1538 15.3253 84.6236 14.9644 84.2418 14.7946C83.8812 14.646 83.4571 14.5187 83.351 14.5187C83.2238 14.5187 83.1389 16.4503 83.1389 19.9315C83.1389 24.6438 83.1813 25.4292 83.4995 26.1084ZM15.2704 50.1795H20.9968C21.7179 48.9271 22.333 48.1629 22.7996 47.6747L23.6479 46.762L15.2704 46.7832V50.1795ZM26.3627 49.1606C26.0445 49.3516 25.5143 49.7762 25.2174 50.0946C24.8993 50.4342 24.4751 51.0285 24.263 51.4531C24.0085 51.9413 23.8812 52.6418 23.8812 53.5757C23.8812 54.4885 24.0085 55.189 24.263 55.6984C24.4751 56.1017 24.8993 56.6961 25.2174 57.0357C25.5143 57.3753 26.1506 57.8423 26.6172 58.097C27.2322 58.4154 27.8473 58.5428 28.8441 58.5428C29.8409 58.5428 30.456 58.4154 31.0711 58.097C31.5376 57.8423 32.1739 57.3753 32.4708 57.0357C32.789 56.6961 33.2132 56.1017 33.4252 55.6984C33.6797 55.189 33.807 54.4885 33.807 53.5757C33.807 52.6418 33.6797 51.9413 33.4252 51.4531C33.2132 51.0285 32.789 50.4342 32.4708 50.0946C32.1739 49.7762 31.5376 49.3092 31.0711 49.0545C30.6045 48.821 29.7349 48.6087 29.1622 48.5662C28.5684 48.5238 27.8473 48.5662 27.5292 48.6511C27.211 48.7573 26.6808 48.9908 26.3627 49.1606ZM84.0509 49.1606C83.7328 49.3516 83.2026 49.7762 82.9056 50.0946C82.5875 50.4342 82.1633 51.0285 81.9512 51.4531C81.6967 51.9413 81.5695 52.6418 81.5695 53.5757C81.5695 54.4885 81.6967 55.189 81.9512 55.6984C82.1633 56.1017 82.5875 56.6961 82.9056 57.0357C83.2026 57.3753 83.8388 57.8423 84.3054 58.097C84.9205 58.4154 85.5355 58.5428 86.5323 58.5428C87.5292 58.5428 88.1442 58.4154 88.7593 58.097C89.2259 57.8423 89.8621 57.3753 90.1591 57.0357C90.4772 56.6961 90.9014 56.1017 91.1135 55.6984C91.368 55.189 91.4952 54.4885 91.4952 53.5757C91.4952 52.6418 91.368 51.9413 91.1135 51.4531C90.9014 51.0285 90.4772 50.4342 90.1591 50.0946C89.8621 49.7762 89.2259 49.3092 88.7593 49.0545C88.2927 48.821 87.4231 48.6087 86.8505 48.5662C86.2566 48.5238 85.5355 48.5662 85.2174 48.6511C84.8993 48.7573 84.369 48.9908 84.0509 49.1606ZM47.4867 58.6701C49.7137 58.6701 49.8621 58.6914 50.3712 59.2008C50.6893 59.5192 50.9014 59.965 50.9014 60.3683C50.9014 60.7504 50.6893 61.1961 50.3712 61.5357C49.8834 62.0239 49.7349 62.0664 47.508 62.0664C45.3022 62.0664 45.1538 62.0239 44.6448 61.5357C44.3054 61.1749 44.1145 60.7716 44.1145 60.347C44.1357 59.965 44.3266 59.498 44.6448 59.1796C45.1326 58.6914 45.281 58.6701 47.4867 58.6701ZM27.9745 6.02799C29.2895 6.02799 29.544 6.09167 30.0106 6.55866C30.3287 6.87706 30.5408 7.32282 30.5408 7.72613C30.5408 8.10821 30.3287 8.55397 30.0106 8.8936C29.5652 9.36058 29.3107 9.42426 27.9958 9.42426C26.702 9.42426 26.4475 9.33936 25.9809 8.8936C25.6416 8.53274 25.4507 8.12943 25.4507 7.7049C25.4719 7.32282 25.6628 6.85583 25.9809 6.53743C26.4263 6.09167 26.6808 6.02799 27.9745 6.02799ZM15.2492 11.1224C15.6734 11.1224 16.0976 11.3134 16.9671 12.1837V31.5H18.1336C19.088 31.5 19.3849 31.5849 19.8303 32.0307C20.1485 32.3491 20.3606 32.7948 20.3606 33.1981C20.3606 33.5802 20.1485 34.026 19.3213 34.8963H2.75716L2.22694 34.3656C1.88759 34.026 1.69671 33.5802 1.69671 33.1981C1.69671 32.7948 1.88759 32.3491 2.73595 31.5H13.5737L13.5949 12.1625L14.1039 11.6318C14.4221 11.3134 14.8462 11.1224 15.2492 11.1224ZM26.2778 16.2168C29.4168 16.2168 29.4804 16.2168 30.0106 16.7475C30.3287 17.0659 30.5408 17.5116 30.5408 17.9149C30.5408 18.297 30.3287 18.7428 30.0106 19.0824C29.544 19.5706 29.3531 19.6131 25.4507 19.6131V21.3112H26.6172C27.5716 21.3112 27.8685 21.3961 28.3139 21.8419C28.632 22.1603 28.8441 22.606 28.8441 23.0093C28.8441 23.3914 28.632 23.8372 28.3139 24.1768C27.8897 24.6013 27.5928 24.7075 25.4507 24.7075V26.724C25.4507 28.5707 25.4083 28.783 24.9205 29.2712C24.6023 29.5896 24.1782 29.8019 23.754 29.8019C23.351 29.8019 22.9268 29.5896 22.0573 28.7405L22.0785 17.2569L22.5875 16.7262C23.0753 16.2168 23.1813 16.2168 26.2778 16.2168ZM35.3552 16.1956C37.1368 16.1956 37.561 16.2805 38.3881 16.705C38.9183 16.981 39.6182 17.5965 39.9788 18.106C40.4242 18.7428 40.6363 19.3371 40.6999 20.1013C40.7635 20.9503 40.6575 21.4386 40.2757 22.2452C39.9576 22.9244 39.4274 23.54 37.9639 24.6013L39.3425 26.0235C40.403 27.1273 40.7211 27.5943 40.7211 28.1037C40.7211 28.4858 40.509 28.9316 40.1909 29.2712C39.8727 29.5896 39.4486 29.8019 39.0244 29.8019C38.5366 29.8019 38.07 29.5047 35.6098 27.1485L35.631 27.9339C35.631 28.507 35.4825 28.8891 35.1007 29.2712C34.7826 29.5896 34.3584 29.8019 33.9343 29.8019C33.5313 29.8019 33.1071 29.5896 32.2375 28.7405L32.2588 17.2569L32.7678 16.7262C33.2344 16.238 33.4252 16.2168 35.3552 16.1956ZM36.2884 21.2475C36.6702 21.2263 37.0732 21.0352 37.2004 20.823C37.3701 20.547 37.3701 20.356 37.2004 20.08C37.0732 19.8678 36.6702 19.6767 36.3097 19.6343C35.6734 19.5706 35.6522 19.6131 35.6522 20.4409C35.631 21.2687 35.6522 21.29 36.2884 21.2475ZM46.6384 16.2168C49.7773 16.2168 49.8409 16.2168 50.3712 16.7475C50.6893 17.0659 50.9014 17.5116 50.9014 17.9149C50.9014 18.297 50.6893 18.7428 50.3712 19.0824C49.9046 19.5706 49.7137 19.6131 45.8112 19.6131V21.3112H46.9777C47.9321 21.3112 48.2291 21.3961 48.6744 21.8419C48.9926 22.1603 49.2047 22.606 49.2047 23.0093C49.2047 23.3914 48.9926 23.8372 48.6744 24.1768C48.2503 24.6013 47.9533 24.7075 45.8112 24.7075V26.4056H47.8261C49.6925 26.4056 49.8834 26.4268 50.3712 26.9363C50.6893 27.2547 50.9014 27.7004 50.9014 28.1037C50.9014 28.4858 50.6893 28.9316 50.3712 29.2712C49.8621 29.7806 49.7985 29.8019 46.6596 29.8019C43.5419 29.8019 43.4571 29.7806 42.4178 28.7405L42.439 17.2569L42.948 16.7262C43.4358 16.2168 43.5419 16.2168 46.6384 16.2168ZM56.8187 16.2168C59.9576 16.2168 60.0212 16.2168 60.5514 16.7475C60.8696 17.0659 61.0817 17.5116 61.0817 17.9149C61.0817 18.297 60.8696 18.7428 60.5514 19.0824C60.0848 19.5706 59.894 19.6131 55.9915 19.6131V21.3112H57.158C58.1124 21.3112 58.4093 21.3961 58.8547 21.8419C59.1729 22.1603 59.3849 22.606 59.3849 23.0093C59.3849 23.3914 59.1729 23.8372 58.8547 24.1768C58.4305 24.6013 58.1336 24.7075 55.9915 24.7075V26.4056H58.0064C59.8727 26.4056 60.0636 26.4268 60.5514 26.9363C60.8696 27.2547 61.0817 27.7004 61.0817 28.1037C61.0817 28.4858 60.8696 28.9316 60.5514 29.2712C60.0424 29.7806 59.9788 29.8019 56.8399 29.8019C53.7222 29.8019 53.6373 29.7806 52.5981 28.7405L52.6193 17.2569L53.1283 16.7262C53.6161 16.2168 53.7222 16.2168 56.8187 16.2168Z" fill="#030000"/>
</svg>
