<svg width="82" height="63" viewBox="0 0 82 63" fill="none" xmlns="http://www.w3.org/2000/svg">
<path fill-rule="evenodd" clip-rule="evenodd" d="M38.0662 0.70897C38.7229 0.693335 39.3952 0.755874 39.5359 0.834046C39.6922 0.912219 40.2707 1.16237 40.8336 1.41252C41.7873 1.81902 42.3657 2.38187 57.4062 17.3441L60.9552 13.8107C63.5975 11.1997 64.8013 10.121 65.6143 9.63629C66.2241 9.2767 67.1934 8.80766 67.8031 8.60441C68.4129 8.38553 69.4291 8.13538 70.0702 8.02594C70.7424 7.93213 71.79 7.88523 72.4935 7.94776C73.1814 7.99467 74.2758 8.18228 74.9169 8.3699C75.5579 8.54188 76.5429 8.93274 77.1057 9.2298C77.6685 9.51122 78.5441 10.0897 79.0444 10.4962C79.5603 10.9183 80.1857 11.5281 80.4202 11.872C80.686 12.2473 80.9049 12.8101 80.9674 13.2791C81.0456 13.842 80.9831 14.2798 80.7798 14.8426C80.5297 15.5305 79.6854 16.453 73.6661 22.5035C68.7881 27.4128 66.6931 29.6329 66.3491 30.2426C66.0833 30.7117 65.7237 31.5247 65.5361 32.0406C65.3329 32.6191 65.1296 33.8386 64.9889 35.2457C64.8795 36.4964 64.6762 37.9661 64.5199 38.5289C64.3792 39.0918 63.9883 40.108 63.6444 40.7959C63.3004 41.4839 62.675 42.4845 62.2529 43.016C61.8151 43.5633 61.2366 44.1105 60.9552 44.2512C60.6894 44.3919 60.2986 44.4544 60.0953 44.4075C59.9077 44.3606 59.6106 44.1574 59.4387 43.9541C59.2667 43.7665 59.126 43.3913 59.126 43.1411C59.126 42.8128 59.3918 42.3438 60.0015 41.5777C60.4862 40.9679 61.0803 40.0924 61.3148 39.6233C61.565 39.1543 61.862 38.3413 62.0027 37.8254C62.1278 37.3094 62.3154 35.9649 62.3936 34.8548C62.4874 33.6353 62.6906 32.3846 62.8939 31.7279C63.0659 31.1182 63.4098 30.2426 63.6444 29.7736C63.8789 29.3045 64.301 28.5541 64.5981 28.132C64.8795 27.6942 66.6306 25.818 71.8681 20.5648L71.6649 19.8926C71.5242 19.4548 71.4616 18.6731 71.5085 17.6568C71.5554 16.2184 71.6023 15.9839 72.1183 14.9208C72.4935 14.1547 73.1033 13.3104 73.885 12.4505C74.5416 11.747 75.0263 11.1372 74.9481 11.1059C74.8856 11.059 74.3853 10.9183 73.8224 10.7933C73.2596 10.6525 72.3528 10.5431 71.79 10.5431C71.2271 10.5431 70.289 10.6525 69.6793 10.7933C69.0695 10.9183 68.1002 11.2779 67.4905 11.5906C66.5368 12.0909 65.6768 12.8726 60.9239 17.5943C57.8283 20.6743 55.2799 23.0664 55.061 23.1289C54.8265 23.1914 54.4825 23.1445 54.2011 23.0038C53.9509 22.8788 53.6852 22.6599 53.607 22.5192C53.5444 22.3784 53.4975 22.0658 53.4975 21.8C53.4975 21.4404 53.7164 21.0964 55.5144 19.2203L54.3574 18.0477C53.7164 17.4067 53.1692 16.9064 53.1379 16.9533C53.1067 17.0002 52.9816 17.4223 52.8409 17.8913C52.7002 18.3604 52.3093 19.1108 51.981 19.5642C51.6527 20.002 51.1055 20.5805 50.7615 20.8619C50.4175 21.1277 49.8234 21.5029 49.4326 21.6749C49.0417 21.8625 48.2756 22.0814 47.7128 22.1752C46.9779 22.2846 46.4151 22.2846 45.6803 22.1596C45.1174 22.0501 44.6484 21.9876 44.6171 22.0032C44.6015 22.0189 44.5077 22.3784 44.4139 22.8162C44.3357 23.2383 44.0855 23.9888 43.8823 24.4578C43.6478 24.9581 43.1475 25.6617 42.6628 26.1307C42.225 26.5685 41.4902 27.1157 41.0681 27.3346C40.6303 27.5535 39.8486 27.8349 39.3326 27.9287C38.4571 28.1163 38.3789 28.1632 38.4884 28.4446C38.5509 28.6166 38.6604 29.1482 38.7229 29.6172C38.7854 30.1332 38.7542 30.8524 38.6447 31.4152C38.5353 31.9312 38.2851 32.6972 38.0975 33.135C37.8943 33.5571 37.3471 34.292 36.8937 34.761C36.4403 35.2144 35.7523 35.746 35.3615 35.9492C34.9706 36.1368 34.3452 36.3714 33.9544 36.4808C33.5479 36.5902 32.7192 36.6528 32 36.6215C31.0463 36.5746 30.4991 36.4495 29.733 36.1056C28.7793 35.6834 28.0601 34.9955 18.7107 25.693C10.1586 17.1721 8.61076 15.7025 8.07919 15.5618C7.73523 15.468 7.17239 15.3898 6.82843 15.3898C6.48447 15.3898 5.92162 15.5305 5.57766 15.6869C5.2337 15.8432 4.76467 16.1715 4.53015 16.4217C4.29563 16.6718 3.99857 17.1409 3.8735 17.4536C3.73279 17.7819 3.62334 18.3604 3.62334 18.7512C3.62334 19.1421 3.73279 19.7206 3.8735 20.0333C4.01421 20.3929 4.98355 21.5029 8.54823 25.0832L9.72082 23.9263C10.3618 23.2852 11.081 22.6755 11.3155 22.5973C11.6126 22.4723 11.8784 22.4723 12.1442 22.5817C12.3631 22.6755 12.6445 22.8944 12.7696 23.082C12.8946 23.2853 13.0041 23.6292 13.0041 23.8637C13.0041 24.1921 12.6914 24.6298 10.4244 26.975L16.8345 33.3539L18.1166 32.1188C19.2735 31.0087 19.4768 30.868 19.9927 30.868C20.3888 30.868 20.7067 30.9879 20.9464 31.2276C21.1809 31.4621 21.2904 31.7435 21.2904 32.1188C21.2747 32.5878 21.1028 32.8536 18.7107 35.2457L20.3836 36.9342C21.2904 37.8566 22.0877 38.7791 22.1503 38.998C22.2128 39.2168 22.1815 39.5608 22.0565 39.7797C21.947 39.9986 21.7594 40.2487 21.6187 40.3582C21.478 40.4676 21.1184 40.5458 20.8213 40.5614C20.3054 40.5614 19.7738 40.0611 11.1905 31.4465C4.23309 24.4891 1.99735 22.1596 1.7003 21.5654C1.48141 21.1277 1.23126 20.3616 1.12182 19.8456C1.01238 19.3141 0.965473 18.5323 1.02801 18.0477C1.09055 17.5786 1.3407 16.75 1.59085 16.2028C1.85664 15.6712 2.37258 14.9208 2.76345 14.5299C3.15431 14.139 3.90477 13.6231 4.43634 13.3573C4.98355 13.1072 5.81218 12.857 6.28122 12.7945C6.76589 12.7476 7.54762 12.7788 8.07919 12.8883C8.59513 12.9977 9.36122 13.2635 9.79899 13.4824C10.3462 13.7482 11.597 14.8739 13.864 17.1252C15.6776 18.9232 17.1941 20.3929 17.2567 20.3929C17.3348 20.3929 17.3817 20.2678 17.3817 20.1114C17.3817 19.9707 17.585 19.4235 17.8195 18.9076C18.0697 18.3916 18.5387 17.6568 18.8827 17.2816C19.211 16.9064 19.8833 16.3748 20.3523 16.0934C20.8213 15.8276 21.5249 15.5149 21.9158 15.4211C22.3066 15.3116 22.8538 15.2178 23.6668 15.1553L23.6825 13.5137C23.7137 12.0127 23.7606 11.7782 24.214 10.8089C24.5267 10.1679 25.0583 9.44868 25.543 8.96401C25.9964 8.51061 26.6374 8.02594 26.9501 7.86959C27.2784 7.69761 27.982 7.46309 28.5135 7.32238C29.2171 7.13477 29.8112 7.08786 31.6092 7.25984L31.7812 6.19669C31.875 5.61822 32.0782 4.83649 32.2502 4.44563C32.4378 4.05476 32.7974 3.46065 33.0632 3.13232C33.3446 2.804 33.8449 2.30369 34.1889 2.03791C34.5328 1.77212 35.2677 1.36562 35.8305 1.1311C36.6122 0.802777 37.1125 0.70897 38.0506 0.70897H38.0662ZM35.6585 4.28928C35.2989 4.58634 34.8455 5.18045 34.6423 5.61822C34.4547 6.04035 34.2827 6.68137 34.2827 7.02532C34.2827 7.36929 34.3921 7.99467 34.5485 8.43243C34.7674 9.05782 35.1739 9.58939 36.7373 11.1685C38.4258 12.9039 38.6447 13.1853 38.6604 13.67C38.6604 14.0452 38.5509 14.3267 38.3164 14.5612C38.0819 14.7957 37.7692 14.9208 37.4096 14.9051C36.9093 14.9051 36.6279 14.6863 34.5485 12.6538C33.1726 11.2936 31.9844 10.2617 31.5779 10.0741C31.187 9.88645 30.5929 9.76137 30.0614 9.76137C29.4881 9.76137 28.9409 9.88124 28.4197 10.121C27.982 10.3242 27.4348 10.7307 27.1846 11.0278C26.9344 11.3248 26.6374 11.7939 26.5123 12.0596C26.4029 12.3411 26.3091 13.0134 26.3091 13.5449C26.3091 14.2485 26.4029 14.7175 26.6374 15.1553C26.8094 15.4992 28.9357 17.7663 31.359 20.2209C34.7204 23.5979 35.9556 24.7393 36.5497 25.0207C37.0813 25.2708 37.5972 25.3959 38.1913 25.3959C38.676 25.3959 39.317 25.2708 39.6766 25.0989C40.0206 24.9425 40.5365 24.5829 40.8336 24.2859C41.115 23.9888 41.4589 23.551 41.5997 23.2852C41.7247 23.0195 41.8654 22.4723 41.9123 22.0345C41.9592 21.5342 41.8967 20.9713 41.7404 20.471C41.5527 19.8769 41.1462 19.3297 40.0675 18.1728C39.02 17.0314 38.6604 16.5311 38.6604 16.2184C38.6447 15.9526 38.8167 15.6087 39.0669 15.3585C39.3326 15.0771 39.6453 14.9208 39.9268 14.9208C40.302 14.9208 40.7867 15.3116 42.5221 17.0002C44.0386 18.4698 44.8829 19.1577 45.3832 19.361C45.8679 19.5486 46.3838 19.6268 47.0405 19.5799C47.7597 19.5486 48.1662 19.4235 48.7446 19.0639C49.2293 18.7669 49.6827 18.3135 49.9798 17.8288C50.355 17.2347 50.4801 16.8282 50.5113 16.109C50.5582 15.468 50.4801 14.9208 50.3081 14.4517C50.0892 13.8889 49.073 12.7945 45.3207 9.01091C42.6941 6.35304 40.302 4.08603 39.9111 3.85151C39.4108 3.57009 38.9261 3.42938 38.2695 3.39811C37.7536 3.38248 37.0969 3.44501 36.8155 3.55446C36.5341 3.64826 36.0025 3.99222 35.6585 4.28928ZM76.2302 13.8576C75.5422 14.5768 74.8231 15.4523 74.6354 15.8119C74.4635 16.1872 74.2446 16.7969 74.1508 17.1878C74.0726 17.5786 74.0413 17.9851 74.0882 18.0789C74.1508 18.204 74.9481 17.5161 76.2771 16.1715C77.5591 14.8895 78.3721 13.9358 78.3721 13.7482C78.3721 13.5762 78.1845 13.2479 77.9343 12.9977L77.4966 12.5756L76.2302 13.8576ZM21.8532 18.2353C21.5874 18.376 21.1497 18.72 20.8839 19.0014C20.6025 19.2828 20.2741 19.7831 20.1334 20.1114C20.0083 20.4398 19.8989 21.0339 19.8989 21.4404C19.8989 21.8469 19.9771 22.4566 20.0709 22.8006C20.2116 23.3322 21.0559 24.2546 25.1834 28.4134C27.9038 31.1494 30.3271 33.479 30.5617 33.604C30.7962 33.7291 31.2965 33.8855 31.6561 33.9636C32.0313 34.0418 32.6411 34.0418 33.0632 33.9636C33.4697 33.8855 34.1263 33.6197 34.5172 33.3539C34.8924 33.1037 35.3927 32.5878 35.6116 32.2282C35.8461 31.8061 36.0338 31.212 36.0963 30.6179C36.1745 29.8674 36.1276 29.5391 35.8618 28.8981C35.5803 28.257 34.6266 27.2252 30.5617 23.1758C25.84 18.4542 25.5586 18.204 24.7456 17.9695C24.2609 17.8288 23.745 17.735 23.573 17.735C23.401 17.7506 23.0414 17.8132 22.7913 17.8757C22.5255 17.9382 22.1034 18.0946 21.8532 18.2353ZM24.1984 41.093C24.558 41.1712 26.7781 43.2975 34.2358 50.7551C43.4914 60.0108 43.8041 60.3547 43.8198 60.9176C43.8198 61.3554 43.7103 61.6055 43.382 61.9026C43.1162 62.1371 42.7722 62.2934 42.4908 62.2934C42.0687 62.2778 40.771 61.0427 32.3596 52.6313C23.2916 43.5633 22.7131 42.9379 22.6975 42.4219C22.6975 42.1249 22.7913 41.7653 22.9007 41.6246C23.0102 41.4839 23.2447 41.2962 23.4167 41.2024C23.5887 41.093 23.9326 41.0617 24.1984 41.093Z" fill="#030000" stroke="#030000"/>
</svg>
