<svg width="81" height="81" viewBox="0 0 81 81" fill="none" xmlns="http://www.w3.org/2000/svg">
<path fill-rule="evenodd" clip-rule="evenodd" d="M62.9683 0.5C63.2808 0.5 63.812 0.703125 64.312 1.01562C64.7495 1.29688 68.4839 3.5 72.5776 5.90625C77.562 8.8125 80.0933 10.375 80.2026 10.6094C80.2808 10.8125 80.4058 11.9375 80.4526 13.1094C80.5151 14.4219 80.4839 15.9531 80.3745 16.9844C80.2651 17.9219 80.0151 19.5156 79.7964 20.5C79.5776 21.4844 79.1401 22.9688 78.8433 23.7812C78.5464 24.5938 77.937 25.9688 77.5151 26.8281C77.0933 27.6875 76.4214 28.8906 76.0308 29.4844C75.6401 30.0781 74.9995 31 74.5933 31.5156C74.2026 32.0312 73.2808 33.0781 72.5464 33.8438C71.812 34.6094 70.7339 35.625 70.1245 36.125C69.5151 36.625 68.4058 37.4375 67.6245 37.9531C66.8589 38.4688 65.5933 39.25 64.812 39.6875C64.0464 40.125 63.2495 40.5 63.062 40.5C62.8589 40.5 61.9526 40.0625 61.0308 39.5469C60.0933 39.0156 58.812 38.2344 58.1714 37.7969C57.5308 37.375 56.5464 36.6562 55.9839 36.2031C55.4214 35.75 54.3276 34.7188 53.562 33.9062C52.7808 33.1094 51.8276 32.0312 51.437 31.5156C51.0308 31 50.3901 30.0781 49.9995 29.4844C49.6089 28.8906 48.937 27.6875 48.5151 26.8281C48.0933 25.9688 47.4839 24.5938 47.187 23.7812C46.8901 22.9688 46.4526 21.4844 46.2339 20.5C46.0308 19.5156 45.7651 17.9688 45.6558 17.0625C45.5464 16.0938 45.4995 14.5312 45.562 13.2344C45.6089 12.0312 45.7183 10.875 45.812 10.6562C45.937 10.3594 48.0464 9.0625 53.9995 5.59375C58.3901 3.01562 62.1089 0.828125 62.2339 0.703125C62.3589 0.59375 62.687 0.5 62.9683 0.5V0.5ZM48.2495 11.7969C48.1558 11.8281 48.062 12.625 48.0308 13.5625C47.9995 14.5 48.062 16.0469 48.1714 16.9844C48.2808 17.9219 48.5464 19.4844 48.7964 20.4219C49.0308 21.375 49.5151 22.875 49.8745 23.7812C50.2339 24.6875 50.8589 26 51.2651 26.7188C51.6714 27.4219 52.4526 28.6406 53.0151 29.4375C53.5776 30.2188 54.7026 31.5312 55.5308 32.3594C56.3433 33.1875 57.5776 34.2812 58.2495 34.7969C58.937 35.3125 60.2339 36.1719 61.1401 36.7188C62.0464 37.25 62.8901 37.6875 63.0151 37.6875C63.1401 37.6875 64.0308 37.2344 64.9683 36.6719C65.9214 36.1094 67.2183 35.2344 67.8589 34.75C68.4995 34.2656 69.6245 33.2656 70.3589 32.5312C71.0933 31.7969 72.1401 30.5938 72.7026 29.8438C73.2651 29.1094 74.062 27.9062 74.4995 27.1875C74.9214 26.4844 75.562 25.1875 75.937 24.3281C76.2964 23.4688 76.7808 22.125 76.9995 21.3594C77.2183 20.5938 77.5151 19.3594 77.6401 18.625C77.7651 17.8906 77.9214 16.3906 77.9683 15.2656C78.0151 14.1406 78.0151 12.9219 77.9526 12.5312L77.8433 11.8281C66.5308 5.23438 63.1401 3.32812 63.0151 3.32812C62.8901 3.32812 59.5464 5.21875 55.5933 7.53125C51.6401 9.84375 48.3433 11.7656 48.2495 11.7969ZM26.687 60.5156C41.3433 60.5 44.2026 60.5469 45.1245 60.7344C45.7339 60.8594 46.812 61.2656 47.5464 61.625C48.562 62.125 49.1401 62.5469 50.0464 63.4531C50.9214 64.3438 51.3901 64.9688 51.8901 65.9688C52.2495 66.7031 52.6558 67.7812 52.7808 68.3906C52.9058 69 53.0151 69.9375 53.0151 70.5C53.0151 71.0625 52.9058 72 52.7808 72.6094C52.6558 73.2188 52.2495 74.2969 51.8901 75.0312C51.3901 76.0312 50.937 76.6562 50.0464 77.5312C49.2808 78.3125 48.4995 78.9062 47.7808 79.2812C47.1714 79.5938 46.2026 79.9844 45.5933 80.1719C44.5151 80.4844 44.2808 80.5 9.03076 80.5L7.78076 80.1094C7.09326 79.875 6.07764 79.4531 5.51514 79.1406C4.95264 78.8281 3.99951 78.0781 3.39014 77.4688C2.57764 76.6562 2.12451 76.0156 1.64014 75.0312C1.28076 74.2969 0.874512 73.2188 0.749512 72.6094C0.624512 72 0.515137 71.0625 0.515137 70.5C0.515137 69.9375 0.624512 69 0.749512 68.3906C0.874512 67.7812 1.28076 66.7031 1.64014 65.9688C2.14014 64.9531 2.56201 64.3594 3.46826 63.4531C4.37451 62.5625 4.96826 62.125 5.98389 61.625C6.71826 61.25 7.76514 60.8594 8.32764 60.75C9.15576 60.5625 12.4683 60.5156 26.687 60.5156ZM6.85889 63.9844C6.35889 64.2656 5.57764 64.875 5.12451 65.3438C4.68701 65.8125 4.12451 66.5781 3.90576 67.0312C3.67139 67.4688 3.37451 68.25 3.24951 68.75C3.12451 69.2344 3.01514 70.0312 3.01514 70.5C3.01514 70.9688 3.12451 71.7812 3.26514 72.2969C3.39014 72.8125 3.73389 73.6406 3.99951 74.1562C4.28076 74.6562 4.89014 75.4375 5.35889 75.8906C5.82764 76.3281 6.59326 76.8906 7.04639 77.1094C7.48389 77.3438 8.26514 77.6406 8.76514 77.7656C9.53076 77.9688 12.0308 78 26.7651 78C41.7964 78 43.9839 77.9688 44.812 77.75C45.3276 77.625 46.1558 77.2812 46.6714 77.0156C47.1714 76.7344 47.9526 76.125 48.4058 75.6562C48.8433 75.1875 49.4058 74.4219 49.6245 73.9844C49.8589 73.5312 50.1558 72.75 50.2808 72.2656C50.4058 71.7656 50.5151 70.9688 50.5151 70.5C50.5151 70.0312 50.4058 69.2344 50.2808 68.75C50.1558 68.25 49.8589 67.4688 49.6245 67.0312C49.4058 66.5781 48.8433 65.8125 48.4058 65.3438C47.9526 64.875 47.1714 64.2656 46.6714 63.9844C46.1558 63.7188 45.3276 63.375 44.812 63.25C43.9839 63.0312 41.812 63 26.687 63.0156C11.9683 63.0156 9.37451 63.0469 8.64014 63.25C8.17139 63.375 7.37451 63.7188 6.85889 63.9844ZM43.4839 24.25L43.8745 24.6406C44.0933 24.8594 44.2651 25.2188 44.2651 25.4688C44.2808 25.7031 44.1401 26.0625 43.6714 26.6719L10.2651 26.8281L9.09326 27.4062C8.34326 27.7656 7.68701 28.2344 7.23389 28.7344C6.85889 29.1406 6.32764 29.9375 6.07764 30.5C5.64014 31.4375 5.59326 31.6719 5.51514 35.5H49.7339L50.1245 35.8906C50.3745 36.1406 50.5151 36.4531 50.5151 36.75C50.5151 37.0312 50.3745 37.375 49.7495 38H5.51514V43H68.0151V42.1406C68.0151 41.4688 68.0933 41.1875 68.3745 40.875C68.6245 40.5625 68.8745 40.4531 69.2651 40.4531C69.6558 40.4531 69.9058 40.5625 70.5151 41.2812V51.25C70.5151 57.6562 70.4526 61.5312 70.3433 62.1406C70.2495 62.6562 69.9058 63.6406 69.5776 64.3281C69.1401 65.25 68.7026 65.8594 67.9214 66.6562C67.1245 67.4375 66.5151 67.875 65.5933 68.3125C64.9058 68.6406 63.9214 68.9844 63.4058 69.0781C62.8901 69.1719 61.3589 69.25 60.0151 69.25C57.5933 69.25 57.5464 69.25 57.1558 68.8594C56.937 68.6406 56.7651 68.2812 56.7651 68.0469C56.7495 67.7969 56.8901 67.4375 57.062 67.2188C57.3589 66.8281 57.3901 66.8281 60.312 66.75C63.1714 66.6719 63.2808 66.6562 64.2651 66.1875C64.8276 65.9375 65.6245 65.4062 66.0308 65.0312C66.5308 64.5781 66.9995 63.9219 67.937 62L68.0151 45.5H5.51514V58.4688L5.12451 58.8594C4.89014 59.1094 4.57764 59.25 4.26514 59.25C3.96826 59.25 3.65576 59.1094 3.01514 58.4688V45.3906C3.01514 36.7344 3.07764 31.9844 3.18701 31.3594C3.28076 30.8438 3.62451 29.8438 3.96826 29.1406C4.42139 28.1875 4.84326 27.5781 5.59326 26.8281C6.34326 26.0781 6.95264 25.6406 7.90576 25.2031C8.60889 24.8594 9.54639 24.5156 9.96826 24.4375C10.4214 24.3438 17.6401 24.2812 43.4839 24.25ZM42.5308 53H50.9839L51.3745 53.3906C51.6245 53.6406 51.7651 53.9531 51.7651 54.25C51.7651 54.5312 51.6245 54.875 50.9995 55.5H42.5464L42.1558 55.1094C41.9058 54.8594 41.7651 54.5469 41.7651 54.25C41.7808 53.9531 41.937 53.6094 42.1558 53.3906L42.5308 53ZM55.0308 53H63.4839L63.8745 53.3906C64.1089 53.625 64.2651 53.9531 64.2651 54.25C64.2651 54.5312 64.1089 54.8594 63.4995 55.5H55.0464L54.6558 55.1094C54.4058 54.8438 54.2651 54.5469 54.2651 54.2344C54.2808 53.9531 54.4214 53.6094 54.6558 53.375L55.0308 53ZM51.1245 58C53.437 58 53.4839 58.0156 53.8745 58.3906C54.1089 58.6406 54.2651 58.9531 54.2651 59.25C54.2651 59.5312 54.1089 59.875 53.8745 60.1094C53.4995 60.5 53.4526 60.5 51.1401 60.5C48.8433 60.5 48.7808 60.5 48.4058 60.1094C48.1558 59.8594 48.0151 59.5469 48.0151 59.25C48.0308 58.9531 48.1714 58.6094 48.4058 58.3906C48.7651 58.0156 48.8433 58 51.1245 58ZM60.4995 58C63.4683 58 63.4839 58 63.8745 58.3906C64.1089 58.6406 64.2651 58.9531 64.2651 59.25C64.2651 59.5312 64.1089 59.875 63.8745 60.1094C63.4995 60.5 63.4839 60.5 60.5151 60.5C57.5464 60.5 57.5464 60.5 57.1558 60.1094C56.9058 59.8594 56.7651 59.5469 56.7651 59.25C56.7808 58.9531 56.9214 58.6094 57.1558 58.3906C57.5308 58 57.5464 58 60.4995 58ZM63.3276 8.0625C63.9214 8.10938 64.6401 8.26562 65.0464 8.45312C65.437 8.625 65.9995 8.98438 66.2964 9.21875C66.5933 9.46875 67.0776 10.125 67.3745 10.6719C67.9058 11.6406 67.9214 11.75 68.0464 15.7344L69.1245 16.7969C69.937 17.5781 70.3589 18.1562 70.8276 19.1406C71.2495 20.0156 71.4995 20.8281 71.6401 21.6719C71.7808 22.6562 71.7808 23.2031 71.6401 24.25C71.4995 25.2031 71.2651 25.9375 70.8433 26.8281C70.4058 27.7031 69.937 28.375 69.2339 29.0781C68.687 29.625 67.937 30.25 67.5464 30.4844C67.1558 30.7031 66.4058 31.0469 65.8589 31.2344C65.3276 31.4375 64.3745 31.6406 63.7495 31.6875C63.0933 31.75 62.1558 31.7188 61.5308 31.6094C60.9058 31.5 59.8901 31.1562 59.187 30.8281C58.2651 30.375 57.6558 29.9375 56.8589 29.1562C56.0776 28.375 55.6245 27.7344 55.187 26.8281C54.7495 25.9375 54.5308 25.2031 54.3901 24.25C54.2339 23.2031 54.2339 22.6562 54.3901 21.6719C54.5151 20.8281 54.7808 20.0156 55.2026 19.1406C55.6714 18.1562 56.0933 17.5938 57.9683 15.7344L58.0464 13.7031C58.0933 11.9531 58.1558 11.5625 58.4839 10.8906C58.687 10.4688 59.1401 9.82812 59.4995 9.48438C59.8433 9.14062 60.4058 8.71875 60.7495 8.5625C61.0933 8.39062 61.5776 8.20312 61.8433 8.14062C62.0933 8.0625 62.7651 8.04688 63.3276 8.0625ZM61.1089 11.2969C60.9683 11.5 60.7651 11.8594 60.6714 12.1094C60.5933 12.3438 60.5151 12.9844 60.5151 13.5469V14.5625C61.5464 14.375 62.3745 14.3281 63.0151 14.3281C63.6558 14.3281 64.4839 14.375 64.8433 14.4531L65.5151 14.5625C65.437 12.3438 65.3589 12 65.1089 11.6406C64.9214 11.4062 64.6089 11.0781 64.4058 10.9219C64.2026 10.7656 63.6714 10.6094 63.2495 10.5625C62.812 10.5312 62.2339 10.5938 61.9214 10.7031C61.6245 10.8125 61.2651 11.0781 61.1089 11.2969ZM59.9839 17.5781C59.4839 17.8594 58.7808 18.3906 58.4214 18.7812C58.0776 19.1719 57.5776 19.9375 57.312 20.5C56.8901 21.4062 56.8433 21.6719 56.8433 23.0156C56.8433 24.4062 56.8745 24.5781 57.4058 25.6719C57.7808 26.4219 58.2495 27.0781 58.7339 27.5312C59.1558 27.9062 59.9526 28.4375 60.5151 28.7031C61.4214 29.125 61.687 29.1719 63.0151 29.1719C64.3433 29.1719 64.6089 29.125 65.5151 28.7031C66.0776 28.4375 66.8745 27.9062 67.2808 27.5312C67.7808 27.0781 68.2495 26.4219 68.6089 25.6719C69.1558 24.5781 69.187 24.4062 69.187 23C69.187 21.5938 69.1558 21.4375 68.6089 20.3438C68.2495 19.5781 67.7808 18.9219 67.2808 18.4844C66.8745 18.0938 66.0776 17.5781 65.5151 17.3281C64.7339 16.9688 64.2183 16.8438 63.3276 16.8125C62.687 16.7812 61.8745 16.8281 61.5308 16.9219C61.187 17.0156 60.4839 17.3125 59.9839 17.5781ZM9.49951 67.5469C9.81201 67.5312 10.1714 67.7031 11.2964 68.625L11.9214 68.0781C12.3381 67.7135 12.7026 67.5312 13.0151 67.5312C13.2964 67.5312 13.6245 67.6875 13.8745 67.9219C14.0933 68.1406 14.2651 68.4688 14.2651 68.6719C14.2651 68.8594 14.1401 69.2031 13.9839 69.4375C13.8433 69.6719 13.562 69.9688 13.0151 70.3438L13.3745 70.7812C13.5776 71.0156 13.8589 71.375 13.9995 71.5938C14.1401 71.8125 14.2651 72.1406 14.2651 72.3438C14.2651 72.5312 14.0933 72.8594 13.8745 73.0781C13.6401 73.3281 13.3276 73.4688 13.0151 73.4688C12.687 73.4688 12.3589 73.2969 11.9526 72.9219C11.6401 72.625 11.3433 72.3906 11.2964 72.375C11.2495 72.375 10.937 72.6094 10.5933 72.9219C10.2026 73.2656 9.81201 73.4688 9.53076 73.4688C9.29639 73.4688 8.98389 73.4219 8.84326 73.3594C8.70264 73.2812 8.49951 73.0469 8.37451 72.8125C8.26514 72.5625 8.21826 72.2188 8.26514 72.0312C8.31201 71.8281 8.60889 71.4062 9.49951 70.5L8.92139 69.9219C8.60889 69.5938 8.31201 69.1719 8.26514 68.9844C8.21826 68.7812 8.28076 68.4219 8.40576 68.1719C8.53076 67.9219 8.73389 67.6875 8.82764 67.6406C8.93701 67.5938 9.23389 67.5469 9.49951 67.5469ZM19.9214 67.5312C20.2964 67.5312 20.5776 67.6719 20.9839 68.0781C21.2808 68.3906 21.5933 68.625 21.687 68.625C21.7651 68.625 22.0776 68.3906 22.3589 68.0781C22.7339 67.6719 22.9995 67.5312 23.3745 67.5312C23.6401 67.5156 24.0464 67.6562 24.2651 67.8281C24.5464 68.0469 24.6558 68.2812 24.6558 68.6875C24.6558 69.125 24.5151 69.375 23.4058 70.4844L24.0933 71.2344C24.6714 71.875 24.7651 72.0469 24.6714 72.4531C24.6245 72.7188 24.4214 73.0469 24.2183 73.2031C24.0308 73.3594 23.6558 73.4844 23.4058 73.4844C23.0776 73.4844 22.7651 73.3125 22.3901 72.9219C22.0933 72.625 21.7651 72.375 21.687 72.375C21.5933 72.375 21.2808 72.625 20.9839 72.9219C20.5776 73.3281 20.2964 73.4688 19.9214 73.4688C19.5933 73.4688 19.2808 73.3281 19.0308 73.0781C18.812 72.8594 18.6401 72.5156 18.6401 72.2969C18.6401 72.0469 18.8901 71.6406 19.9683 70.5L19.2964 69.7969C18.8745 69.3438 18.6401 68.9531 18.6401 68.7031C18.6558 68.4844 18.8276 68.125 19.0308 67.9219C19.2808 67.6719 19.5776 67.5312 19.9214 67.5312ZM30.4995 67.5312C30.8276 67.5312 31.187 67.7188 32.2339 68.625L32.8901 68.0781C33.312 67.7344 33.7183 67.5312 33.9839 67.5312C34.2183 67.5312 34.5308 67.5781 34.6714 67.6562C34.812 67.7188 35.0308 67.9531 35.1401 68.2031C35.2651 68.4375 35.312 68.7812 35.2651 68.9844C35.2026 69.1719 34.9058 69.5938 34.0308 70.5L34.5933 71.0938C34.9058 71.4062 35.2026 71.7969 35.2495 71.9531C35.312 72.0938 35.2808 72.4375 35.2026 72.6875C35.1089 72.9531 34.9058 73.2344 34.7339 73.3125C34.562 73.4062 34.2183 73.4688 33.9839 73.4688C33.7183 73.4688 33.3276 73.2656 32.937 72.9219C32.5933 72.6094 32.2808 72.375 32.2339 72.375C32.187 72.3906 31.8901 72.625 31.562 72.9219C31.1714 73.2969 30.8276 73.4688 30.5151 73.4688C30.2183 73.4688 29.8901 73.3281 29.6558 73.0781C29.437 72.8594 29.2651 72.5312 29.2651 72.3438C29.2651 72.1406 29.3745 71.8125 29.5151 71.5938C29.6558 71.375 29.937 71.0156 30.5151 70.3438L30.1558 70.1094C29.9683 69.9688 29.687 69.6719 29.5308 69.4375C29.3901 69.2031 29.2651 68.8594 29.2651 68.6562C29.2808 68.4688 29.4526 68.125 29.6558 67.9219C29.8901 67.6719 30.2026 67.5312 30.4995 67.5312ZM40.4995 67.5312C40.8276 67.5312 41.187 67.7188 42.2339 68.625L42.8901 68.0781C43.312 67.7344 43.7183 67.5312 43.9839 67.5312C44.2183 67.5312 44.5308 67.5781 44.6714 67.6562C44.812 67.7188 45.0308 67.9531 45.1401 68.2031C45.2651 68.4375 45.312 68.7812 45.2651 68.9844C45.2026 69.1719 44.9058 69.5938 44.0308 70.5L44.5933 71.0938C44.9058 71.4062 45.2026 71.7969 45.2495 71.9531C45.312 72.0938 45.2808 72.4375 45.2026 72.6875C45.1089 72.9531 44.9058 73.2344 44.7339 73.3125C44.562 73.4062 44.2183 73.4688 43.9839 73.4688C43.7183 73.4688 43.3276 73.2656 42.937 72.9219C42.5933 72.6094 42.2808 72.375 42.2339 72.375C42.187 72.3906 41.8901 72.625 41.562 72.9219C41.1714 73.2969 40.8276 73.4688 40.5151 73.4688C40.2183 73.4688 39.8901 73.3281 39.6558 73.0781C39.437 72.8594 39.2651 72.5312 39.2651 72.3438C39.2651 72.1406 39.3745 71.8125 39.5151 71.5938C39.6558 71.375 39.937 71.0156 40.5151 70.3438L40.1558 70.1094C39.9683 69.9688 39.687 69.6719 39.5308 69.4375C39.3901 69.2031 39.2651 68.8594 39.2651 68.6562C39.2808 68.4688 39.4526 68.125 39.6558 67.9219C39.8901 67.6719 40.2026 67.5312 40.4995 67.5312ZM62.9683 19.25C63.2495 19.25 63.7026 19.3438 63.9839 19.4531C64.2651 19.5781 64.687 19.8906 64.9214 20.1562C65.1558 20.4375 65.4058 20.9219 65.4526 21.25C65.4995 21.5625 65.4995 22.0625 65.4526 22.3438C65.4058 22.6094 65.1089 23.1094 64.812 23.4375C64.3276 23.9688 64.2808 24.0938 64.2651 25C64.2651 25.8125 64.2026 26.0312 63.8745 26.3594C63.6401 26.6094 63.3276 26.75 63.0151 26.75C62.7183 26.75 62.4058 26.6094 62.1558 26.3594C61.8276 26.0312 61.7651 25.8281 61.7495 25C61.7495 24.0938 61.7026 23.9688 61.2026 23.4375C60.8745 23.0781 60.6245 22.625 60.5776 22.2656C60.5151 21.9375 60.5151 21.4375 60.5776 21.1719C60.6245 20.8906 60.8276 20.4375 61.0308 20.1719C61.2339 19.9062 61.6401 19.5781 61.937 19.4688C62.2183 19.3594 62.687 19.2656 62.9683 19.25Z" fill="#030000" stroke="#030000"/>
</svg>
