<svg width="119" height="23" viewBox="0 0 119 23" fill="none" xmlns="http://www.w3.org/2000/svg">
<path d="M86.4232 0.330693C86.9412 0.241013 87.5689 0.131405 87.8179 0.0915477C88.067 0.0516902 94.6421 0.0118327 102.433 0.00186832C111.718 -0.00809605 116.679 0.0217971 116.808 0.0915477C116.998 0.181227 117.008 0.290835 117.008 1.71574C117.017 2.83175 116.978 3.26022 116.888 3.3499C116.788 3.43958 114.288 3.47943 96.4353 3.52926L95.6881 3.91787C95.2797 4.12712 94.8115 4.39616 94.6421 4.51573C94.4827 4.6353 94.2735 4.81466 94.1739 4.92427C94.0742 5.03388 93.9049 5.28299 93.8053 5.47231C93.6957 5.66163 93.5861 6.02035 93.5462 6.26946C93.5164 6.52853 93.5363 6.957 93.616 7.29579C93.7256 7.77408 93.8352 7.95344 94.2934 8.4118C94.5923 8.7207 94.931 8.98973 95.0406 9.02959C95.1502 9.05948 95.3494 9.16909 95.4889 9.2787C95.6284 9.37834 95.8276 9.45806 95.9372 9.45806C96.0468 9.45806 96.3556 9.54774 96.6346 9.67728C97.1324 9.89637 97.1625 9.89649 104.293 9.92633L104.306 9.92639C111.18 9.96624 111.508 9.97621 112.176 10.1755C112.554 10.2851 113.122 10.4146 113.421 10.4645C113.72 10.5143 114.039 10.6139 114.118 10.6936C114.198 10.7634 114.447 10.883 114.666 10.9527C114.886 11.0225 115.174 11.162 115.314 11.2516C115.453 11.3513 115.812 11.5805 116.111 11.7698C116.41 11.9691 116.878 12.3278 117.157 12.5669C117.426 12.8161 117.864 13.3242 118.113 13.7029C118.362 14.0815 118.631 14.5897 118.701 14.8388C118.771 15.0879 118.87 15.3271 118.92 15.3869C118.97 15.4466 119 15.8751 119 16.3534C119 16.8417 118.96 17.31 118.91 17.3997C118.861 17.4993 118.781 17.6886 118.721 17.8281C118.661 17.9676 118.582 18.1869 118.542 18.3264C118.502 18.4659 118.372 18.7349 118.263 18.9242C118.143 19.1135 117.685 19.6317 117.227 20.09C116.778 20.5484 116.26 20.9868 116.081 21.0666C115.912 21.1562 115.443 21.3954 115.065 21.6146C114.686 21.8238 114.288 22.0032 114.188 22.0032C114.099 22.0132 113.81 22.1029 113.541 22.2224C113.282 22.342 112.674 22.5014 112.176 22.5712C111.678 22.6509 111.08 22.7605 110.831 22.8203C110.532 22.89 105.66 22.9399 95.9372 22.9797C82.6674 23.0295 81.4819 23.0196 81.3125 22.8701C81.173 22.7306 81.1432 22.5214 81.1432 21.4651C81.1432 20.668 81.193 20.1299 81.3922 19.7214L91.4044 19.6915C101.277 19.6715 101.426 19.6616 102.164 19.4523C102.572 19.3427 103.09 19.1434 103.309 19.0139C103.529 18.8844 103.887 18.6452 104.106 18.4659C104.325 18.2965 104.634 17.9577 104.804 17.7185C105.083 17.3299 105.103 17.2402 105.103 16.3833C105.103 15.6858 105.063 15.4168 104.923 15.2075C104.834 15.058 104.565 14.7491 104.325 14.52C104.086 14.2808 103.698 13.9719 103.459 13.8225C103.21 13.673 102.921 13.5435 102.811 13.5435C102.702 13.5435 102.413 13.4438 102.164 13.3143C101.715 13.0951 101.705 13.0951 94.2505 13.0453L94.2436 13.0452C87.5091 12.9954 86.732 12.9755 86.3734 12.826C86.1542 12.7363 85.686 12.6068 85.3273 12.5371C84.9687 12.4773 84.5901 12.3677 84.4805 12.2879C84.3709 12.2082 84.102 12.0986 83.8828 12.0388C83.6636 11.979 83.3747 11.8395 83.2352 11.7399C83.0958 11.6303 82.9364 11.5406 82.8866 11.5406C82.8367 11.5406 82.5379 11.3812 82.239 11.1719C81.9401 10.9726 81.452 10.5541 81.1631 10.2552C80.8742 9.95628 80.5155 9.52781 80.3761 9.30859C80.2366 9.08938 80.0373 8.79045 79.9277 8.64098C79.8281 8.48155 79.6787 8.03315 79.599 7.64454C79.5193 7.24597 79.4496 6.72782 79.4496 6.49864C79.4496 6.2595 79.4994 5.83103 79.5591 5.55202C79.6289 5.26306 79.858 4.69509 80.0872 4.28655C80.3063 3.87801 80.7447 3.30008 81.0435 3.00114C81.3424 2.71218 81.8804 2.26378 82.239 2.01467C82.5977 1.76556 83.1356 1.43674 83.4345 1.28727C83.7334 1.13781 84.3211 0.898662 84.7296 0.759161C85.138 0.61966 85.9051 0.430336 86.4232 0.330693Z" fill="#020202"/>
<path d="M52.5513 0.320728C53.2885 0.231049 54.3445 0.121441 54.8924 0.0915477C55.4403 0.0516902 60.9296 0.0217971 78.274 0.0417258L78.4633 0.290835C78.6326 0.510051 78.6625 0.699374 78.6526 1.80542C78.6526 2.94136 78.6326 3.10079 78.4533 3.28015C78.2541 3.47943 78.1246 3.47943 71.2506 3.47943C67.4051 3.47943 63.739 3.52926 63.1113 3.57908C62.4339 3.6289 61.8461 3.72854 61.6668 3.81822C61.5074 3.9079 61.1388 4.01751 60.8698 4.06733C60.5909 4.11715 60.1824 4.24669 59.9433 4.36626C59.7142 4.47587 59.4751 4.57552 59.4253 4.57552C59.3755 4.57552 59.0467 4.72498 58.698 4.90434C58.3593 5.0837 57.9409 5.31288 57.7815 5.42249C57.6221 5.52213 57.3432 5.72142 57.1838 5.85096C57.0244 5.98049 56.7355 6.19971 56.5561 6.34917C56.3668 6.49864 55.8887 7.00682 55.4802 7.48511C55.0717 7.97337 54.743 8.42177 54.743 8.48155C54.743 8.5513 54.6733 8.68084 54.5936 8.76055C54.5139 8.84027 54.3843 9.12924 54.3046 9.40824C54.2249 9.67728 54.0855 10.1057 53.9958 10.3549C53.8663 10.7036 53.8364 11.0025 53.8763 11.7499C53.9161 12.4274 54.0058 12.9157 54.1951 13.4438C54.3445 13.8523 54.5836 14.3904 54.7231 14.6395C54.8625 14.8886 55.0917 15.2474 55.2311 15.4367C55.3706 15.626 55.8189 16.1143 56.2075 16.5029C56.6059 16.9014 57.0841 17.3 57.2535 17.3897C57.4328 17.4794 57.7018 17.6587 57.8512 17.7883C58.0106 17.9178 58.19 18.0274 58.2497 18.0274C58.3195 18.0274 58.449 18.0972 58.5287 18.1669C58.6084 18.2466 58.8774 18.3861 59.1264 18.4758C59.3755 18.5755 60.0728 18.8146 60.6706 19.0338C61.2683 19.2431 61.9458 19.4125 62.1649 19.4224C62.3841 19.4224 62.7826 19.4822 63.0615 19.5719C63.47 19.6915 64.8348 19.7214 70.9816 19.7712C76.5804 19.811 78.4334 19.8609 78.533 19.9505C78.6227 20.0402 78.6625 20.4388 78.6526 21.4352C78.6526 22.2523 78.6127 22.8302 78.5529 22.8601C78.5031 22.89 72.9242 22.9199 66.1698 22.9299C55.0917 22.9498 53.8364 22.9299 53.2486 22.7904C52.89 22.7007 52.1528 22.5811 51.6049 22.5313C51.0569 22.4815 50.4592 22.3619 50.2799 22.2722C50.1105 22.1826 49.7519 22.0829 49.4829 22.053C49.2239 22.0132 48.8054 21.8836 48.5365 21.7541C48.2774 21.6246 47.9885 21.515 47.8889 21.515C47.7992 21.515 47.4306 21.3755 47.072 21.2061C46.7134 21.0367 46.3547 20.8573 46.275 20.8075C46.1953 20.7577 45.9662 20.6381 45.7769 20.5484C45.5876 20.4687 45.3186 20.3192 45.1792 20.2196C45.0397 20.1199 44.6611 19.8808 44.3324 19.6715C44.0036 19.4623 43.2365 18.7947 42.6388 18.1869C42.0311 17.579 41.3735 16.8317 41.1743 16.5328C40.9651 16.2338 40.8057 15.9449 40.7957 15.8851C40.7957 15.8253 40.6861 15.626 40.5467 15.4367C40.4072 15.2474 40.2976 14.9983 40.2976 14.8886C40.2976 14.779 40.198 14.5299 40.0884 14.3406C39.9689 14.1513 39.8294 13.7228 39.7796 13.394C39.7298 13.0652 39.66 12.3677 39.6301 11.8495C39.6003 11.3015 39.6301 10.5442 39.6999 10.0559C39.7696 9.5876 39.8792 9.06945 39.9489 8.91002C40.0187 8.75059 40.1482 8.42176 40.2378 8.19258C40.3275 7.95344 40.5068 7.58476 40.6463 7.36554C40.7858 7.14632 40.8954 6.93707 40.8954 6.88725C40.8854 6.84739 40.985 6.72782 41.0946 6.61821C41.2042 6.5086 41.2938 6.37907 41.2938 6.31928C41.2938 6.2595 41.6425 5.84099 42.0709 5.37267C42.4993 4.90434 43.1369 4.29651 43.4955 4.01751C43.8442 3.73851 44.422 3.31004 44.7807 3.0709C45.1393 2.83175 45.8964 2.40328 46.4743 2.11432C47.0521 1.82535 47.7893 1.49652 48.118 1.37695C48.4468 1.25738 49.0744 1.05809 49.5128 0.938519C49.9511 0.818947 50.509 0.669481 50.7581 0.609695C51.0071 0.549909 51.8141 0.420372 52.5513 0.320728Z" fill="#020202"/>
<path d="M7.37212 0.380515C8.07945 0.310764 8.77681 0.221085 8.91628 0.181227C9.05576 0.14137 16.0095 0.101512 24.3778 0.101512C34.7884 0.0915477 39.67 0.121441 39.8194 0.191191C40.0486 0.3008 40.0486 0.330693 40.0187 1.86521C40.0087 2.72214 39.9788 3.4894 39.9489 3.55915C39.9091 3.64883 37.6775 3.67872 29.2394 3.67872C18.9284 3.67872 18.5499 3.68869 17.7329 3.87801C17.2647 3.98762 16.7367 4.0773 16.5574 4.0773C16.388 4.0773 15.9796 4.2168 15.6608 4.37623C15.3519 4.54562 14.9833 4.7748 14.8538 4.90434C14.7243 5.02391 14.5051 5.32284 14.3756 5.57195C14.1365 6.00042 14.1166 6.11003 14.027 10.305L14.4952 10.7534H25.5733C35.8743 10.7435 36.6713 10.7534 36.8108 10.9129C36.9303 11.0524 36.9602 11.3513 36.9403 12.3876C36.9204 13.5235 36.9005 13.7128 36.7411 13.8225C36.6016 13.9221 34.2604 13.942 25.4537 13.942C19.3468 13.942 14.286 13.9819 14.2162 14.0217C14.1266 14.0716 14.0967 15.0481 14.0867 18.3762C14.0768 21.3655 14.0369 22.7007 13.9572 22.7904C13.8676 22.89 12.4828 22.9199 6.99355 22.91C0.577815 22.91 0.149435 22.9 0.0697363 22.7406C0.029887 22.6409 0 18.6651 0 13.8922C0 6.78761 0.029887 5.13352 0.139473 4.72498C0.219171 4.44598 0.418418 3.95772 0.587777 3.63886C0.767099 3.29011 1.16559 2.80186 1.54416 2.44314C1.9028 2.10435 2.35111 1.7556 2.54039 1.66592C2.72968 1.57624 3.13813 1.38692 3.437 1.25738C3.73587 1.11788 4.16425 0.978377 4.38342 0.948484C4.6026 0.908626 5.07082 0.789054 5.42947 0.68941C5.78811 0.589766 6.65483 0.450265 7.37212 0.380515Z" fill="#020202"/>
</svg>
