<svg width="146" height="30" viewBox="0 0 146 30" fill="none" xmlns="http://www.w3.org/2000/svg">
<path fill-rule="evenodd" clip-rule="evenodd" d="M10.4522 0.276741C11.6201 0.413263 12.8852 0.549786 13.255 0.608295C13.6249 0.647302 16.4666 0.978856 19.5809 1.32991C22.6951 1.66147 25.3228 2.05153 25.459 2.16855C25.6342 2.32458 25.6342 2.96818 25.4201 4.9185C25.2644 6.32274 25.0892 7.9415 25.0308 8.5266C24.9724 9.11169 24.7778 10.6915 24.6221 12.0372C24.4663 13.3829 24.2912 14.8651 24.116 16.2304L25.0503 16.0938C25.5758 16.0158 27.0551 15.8208 28.3397 15.6648C29.6243 15.5087 30.7922 15.3527 30.9284 15.3527C31.0452 15.3527 31.162 15.4502 31.162 15.5478C31.162 15.6453 30.1693 17.03 28.9625 18.6098C27.7363 20.209 25.8483 22.6859 24.7388 24.1292C23.6294 25.5724 22.3253 27.3082 21.8387 27.9908C21.3326 28.6734 20.7876 29.2 20.6125 29.2C20.4178 29.2 18.4909 27.8348 16.3109 26.177C14.1504 24.5192 11.8147 22.7249 11.114 22.1788C10.4133 21.6328 9.7515 21.1842 9.65418 21.1842C9.55686 21.1842 9.01187 22.2764 8.44741 23.5831C7.90241 24.9093 7.29903 26.3135 7.14331 26.7036C6.96814 27.1132 6.73457 27.4447 6.63725 27.4447C6.53993 27.4447 6.38422 27.2887 6.32582 27.0937C6.24797 26.9181 5.54726 25.2213 4.7687 23.349C3.99013 21.4767 2.64711 18.2197 1.77123 16.1329C0.895347 14.046 0.136249 12.0762 0 11.1595L3.85389 9.61878C5.97547 8.78014 8.75883 7.64895 10.0435 7.08336C11.3281 6.53727 12.3791 5.97168 12.3791 5.83516C12.3791 5.69863 11.4449 4.41142 10.277 2.96818C9.12865 1.52495 8.21384 0.257238 8.25277 0.179225C8.2917 0.0817087 9.28436 0.140218 10.4522 0.276741ZM13.1966 4.00185C13.9363 4.899 14.6175 5.77665 14.7148 5.93267C14.8706 6.14721 14.7732 6.32274 14.3256 6.6933C13.9947 6.96634 13.3913 7.3369 12.9631 7.55144C12.5349 7.74647 11.6979 8.09753 11.114 8.33157C10.5301 8.5461 9.77096 8.85815 9.45954 8.99468C9.14811 9.1312 7.31849 9.89182 5.41101 10.6915C2.33569 11.9787 1.96587 12.1737 2.08266 12.5248C2.14105 12.7393 2.91961 14.6701 3.79549 16.8155C4.69084 18.9608 5.58619 21.2232 5.81976 21.8278C6.05333 22.4519 6.30636 22.959 6.40368 22.959C6.48154 22.9785 6.90975 22.1008 7.37688 21.0087C7.82456 19.936 8.19437 18.9803 8.19437 18.8633C8.19437 18.7463 8.31116 18.6293 8.44741 18.6098C8.56419 18.5708 9.07026 18.7073 9.55686 18.9023C10.0435 19.0973 10.569 19.4289 10.7247 19.6239C10.8804 19.819 13.0215 21.5157 15.4934 23.4075C17.9653 25.2994 20.0285 26.8596 20.1259 26.8596C20.2037 26.8596 21.1574 25.6699 22.2669 24.1877C23.3569 22.7249 24.9335 20.6381 25.751 19.5654C26.8993 18.0637 27.1718 17.5761 26.9188 17.5371C26.7436 17.4981 25.712 17.6151 24.6415 17.7711C23.571 17.9271 22.5783 18.0052 22.4615 17.9662C22.3253 17.9271 22.1501 17.4201 22.0917 16.8545C22.0333 16.3084 22.0723 15.4892 22.1696 15.0602C22.2669 14.6311 22.5005 13.0903 22.6756 11.6471C22.8508 10.2039 23.1233 7.96101 23.279 6.67379C23.4542 5.38658 23.571 4.13838 23.571 3.88483C23.571 3.49477 23.4347 3.43626 21.9555 3.26073C21.0796 3.16322 18.7439 2.89017 16.7586 2.67564C14.7732 2.4611 12.8658 2.24656 12.5154 2.20756C12.1456 2.14905 11.8731 2.16855 11.8731 2.24657C11.8731 2.32458 12.4765 3.12421 13.1966 4.00185ZM76.7079 0.00369587C81.788 -0.0158073 86.401 0.0427023 87.2185 0.159722C88.0165 0.257238 89.2817 0.530282 90.0408 0.725315C90.7804 0.93985 91.7536 1.32991 92.1818 1.58346C92.6101 1.837 93.2134 2.30507 94.1283 3.24123L94.284 1.837C94.3813 1.05687 94.4786 0.374257 94.537 0.276741C94.5759 0.198728 103.276 0.140218 113.884 0.140218C124.492 0.140218 133.173 0.159722 133.193 0.179225C133.212 0.218231 133.29 3.74831 133.446 15.8403L146 15.9378V27.2497H94.4202L94.4007 26.411C94.3813 25.9625 94.3229 25.3774 94.245 25.1043C94.1088 24.6167 94.1088 24.6167 93.8363 25.0068C93.6806 25.2213 93.194 25.6309 92.7658 25.904C92.3376 26.177 91.6174 26.5476 91.1503 26.7231C90.7026 26.8986 89.6904 27.1717 88.9119 27.2887C87.8803 27.4837 84.6103 27.5227 76.5133 27.5032C70.4599 27.4642 63.1415 27.4057 60.2608 27.3472C56.3874 27.2692 54.9082 27.1717 54.6162 26.9766C54.4021 26.8401 53.1369 25.4749 51.7939 23.9536C50.4509 22.4519 49.3025 21.2037 49.2052 21.2037C49.1273 21.2037 48.8937 21.4377 48.6602 21.7303C48.4461 22.0423 47.2393 23.4075 43.7163 27.2692L35.6776 27.2497C30.4613 27.2497 27.6584 27.1717 27.6584 27.0546C27.6584 26.9376 27.7752 26.7426 27.892 26.5866C28.0283 26.45 29.0209 25.4164 30.0915 24.3047C31.162 23.1735 33.7896 20.4041 35.9307 18.1027C38.0717 15.8208 39.843 13.8705 39.8624 13.773C39.9013 13.6754 39.6872 13.3049 39.4147 12.9538C39.1228 12.6223 38.3442 11.7056 37.6824 10.9645C37.0012 10.2234 36.2032 9.32623 35.8917 8.97517C35.5998 8.64362 33.8091 6.63479 31.9405 4.52844C30.072 2.40259 28.5149 0.569289 28.4759 0.413263C28.437 0.179225 29.6243 0.140218 35.8723 0.140218C39.9792 0.140218 43.5411 0.218231 43.7942 0.296244C44.0472 0.374257 45.3318 1.68097 46.6554 3.22173C47.9789 4.74298 49.1468 5.99118 49.2441 5.99118C49.3414 5.99118 50.5093 4.72347 51.8328 3.16322C53.1369 1.60296 54.2269 0.315747 54.2269 0.296244C54.2269 0.276741 57.2438 0.198728 60.942 0.140218C64.6402 0.0817087 71.7251 0.0231991 76.7079 0.00369587ZM70.0512 3.88483C69.4283 4.17738 68.7471 4.68447 68.2021 5.30857C67.735 5.85466 67.19 6.7323 67.0148 7.25889C66.7423 8.07802 66.6839 9.07269 66.6839 13.6949C66.6839 18.2782 66.7423 19.3314 67.0148 20.2285C67.19 20.8136 67.5987 21.6133 67.8907 22.0228C68.1826 22.4129 68.786 22.959 69.2142 23.232C69.6424 23.5246 70.421 23.8951 70.966 24.0707C71.7835 24.3437 73.1849 24.4217 79.3356 24.4997C85.0969 24.5972 87.0823 24.5582 88.289 24.3437C89.1455 24.2072 90.177 23.9146 90.5663 23.7196C90.9751 23.5246 91.6174 23.0175 92.0067 22.6274C92.4154 22.1788 92.8047 21.4962 92.9799 20.9111C93.1161 20.3846 93.2718 19.1363 93.2913 18.1807L93.3497 16.4254L87.2185 16.3279C87.0044 17.9076 86.8292 18.3172 86.4594 18.6293C86.1869 18.8633 85.603 19.1168 85.1748 19.1754C84.7466 19.2339 82.2357 19.2534 79.5886 19.2144C75.0924 19.1558 74.7615 19.1363 74.236 18.7463C73.944 18.5317 73.5158 18.0052 73.3017 17.5761C72.9708 16.913 72.9124 16.4254 72.9124 13.89C72.9124 11.1595 72.9513 10.906 73.399 9.98934C73.8078 9.1702 74.0413 8.95567 74.8588 8.62411C75.7347 8.27306 76.2797 8.23405 80.5034 8.23405C84.3962 8.25355 85.2721 8.29256 85.7587 8.5656C86.0701 8.72163 86.4399 8.99468 86.5762 9.1312C86.693 9.28722 86.8292 9.71629 86.8682 10.0869L86.946 10.7695L93.1551 10.8865C92.9604 7.9415 92.7658 6.92734 92.5322 6.38125C92.3181 5.89366 91.8315 5.19155 91.4228 4.82099C91.0335 4.45043 90.3328 4.00185 89.8851 3.82632C89.4374 3.63129 88.3669 3.37775 87.5105 3.24123C86.5762 3.10471 83.6371 2.98769 80.1141 2.96818C75.9683 2.94868 73.8078 3.00719 72.6594 3.20222C71.7835 3.33874 70.6157 3.6508 70.0512 3.90434V3.88483ZM35.8334 4.41142C36.1642 4.78198 36.9817 5.71814 37.6435 6.45926C38.3053 7.20038 39.2785 8.31206 39.8235 8.89716C40.3685 9.48226 41.5169 10.789 42.4122 11.7836C43.2881 12.7588 44.0083 13.6754 44.0083 13.773C44.0083 13.8705 43.2492 14.7871 42.2954 15.7623C41.3612 16.757 39.6289 18.5903 38.4415 19.819C37.2542 21.0477 35.8139 22.5689 35.23 23.193L34.1789 24.3242L42.4511 24.3047C44.2224 22.2569 45.7211 20.5601 46.9084 19.1754C48.4655 17.4006 49.1468 16.7374 49.3414 16.8545C49.4971 16.9325 50.1005 17.5176 50.665 18.1807C51.2294 18.8243 52.6892 20.4821 53.8765 21.8278L56.076 24.3047L64.3482 24.3242C63.1804 23.0175 61.9152 21.6913 60.7668 20.5016C59.6379 19.3119 57.7304 17.3225 56.5237 16.0743L54.3242 13.773C55.6089 12.3102 56.8935 10.8475 58.0224 9.57977C59.1513 8.31206 60.8447 6.38125 61.779 5.30857C62.7132 4.21639 63.4918 3.28023 63.4723 3.20222C63.4723 3.10471 61.8957 3.0462 59.9688 3.0462C58.0419 3.0462 56.2706 3.12421 56.0176 3.22173C55.784 3.29974 54.8887 4.19689 54.0128 5.21105C53.1564 6.22522 51.7939 7.78548 51.0153 8.70213C50.2173 9.61878 49.4387 10.3599 49.2441 10.3599C49.0689 10.3599 47.7259 8.97517 46.2661 7.23939C44.7868 5.5231 43.327 3.88483 43.0156 3.59229L42.4511 3.0462C35.0743 3.0462 34.8407 3.0657 35.0353 3.39725C35.1327 3.57278 35.483 4.04086 35.8334 4.41142ZM97.4955 3.39725C97.4177 3.47527 97.3398 6.86883 97.3204 10.945C97.3204 15.0212 97.3009 19.7019 97.3204 21.3402L97.3398 24.3047C105.865 24.3047 110.984 24.2462 114.235 24.1682L120.132 24.0121L120.015 19.3314C107.442 19.3314 103.743 19.2924 103.666 19.2339C103.607 19.1754 103.549 18.4732 103.529 17.6736C103.529 16.874 103.568 16.0938 103.646 15.9768C103.743 15.7818 105.476 15.7233 111.354 15.7233H118.945C118.945 12.1737 118.887 11.6276 118.692 11.6081C118.575 11.5886 115.169 11.5886 111.159 11.6081C107.15 11.6276 103.763 11.5691 103.646 11.4911C103.49 11.3741 103.452 10.828 103.549 9.67729L103.666 8.01952L119.724 7.922L119.626 3.33874C118.108 3.14371 115.266 3.0852 112.327 3.10471C109.388 3.12421 104.872 3.16322 102.303 3.20222C99.7339 3.22173 97.5734 3.31924 97.4955 3.39725ZM124.161 13.6949C124.2 23.4661 124.22 24.1097 124.531 24.1292C124.726 24.1292 129.28 24.1487 134.652 24.1682L144.404 24.2072C144.579 23.154 144.638 22.1203 144.638 21.2427C144.638 20.3455 144.599 19.4874 144.54 19.3314C144.462 19.0778 143.509 19.0388 137.533 19.0388C130.818 19.0388 130.623 19.0193 130.429 18.6488C130.312 18.4147 130.234 15.3722 130.234 10.75V3.24123C129.553 3.0852 128.307 3.0657 127.023 3.0657C125.738 3.0657 124.551 3.12421 124.395 3.18272C124.161 3.26073 124.122 4.74297 124.161 13.6949ZM16.9532 4.31391C17.5371 4.37241 18.8023 4.50894 19.7755 4.60645C20.8071 4.72347 21.5857 4.899 21.683 5.03552C21.7608 5.17205 21.7803 5.56211 21.7414 5.87416C21.683 6.20572 21.5467 7.37591 21.4299 8.5071C21.3132 9.63828 21.1574 10.6915 21.0991 10.8475C21.0407 11.062 20.8071 10.906 20.2426 10.2624C19.8339 9.7748 19.4835 9.52126 19.4835 9.67729C19.4835 9.83331 19.6003 10.7695 19.756 11.7251C19.9117 12.7003 20.1842 14.6311 20.3594 16.0158C20.5346 17.4201 20.7098 18.8633 20.885 19.9165L22.1306 19.78C22.9287 19.6824 23.3764 19.7019 23.3764 19.819C23.3764 19.936 22.6173 21.0087 21.7024 22.2179C20.7682 23.4075 19.9117 24.4022 19.7755 24.4022C19.6587 24.4022 18.5298 23.6611 17.2841 22.7444C16.0579 21.8278 15.0652 21.0087 15.0847 20.8916C15.1041 20.7941 15.3377 20.6771 15.6102 20.6381C15.8632 20.6186 16.2914 20.5406 16.5639 20.4821C16.8753 20.4236 16.9727 20.326 16.8559 20.209C16.7391 20.131 14.7343 19.2534 12.3791 18.2782C10.024 17.303 7.94134 16.5034 7.7467 16.5034C7.5326 16.5034 7.29903 16.8155 7.06546 17.4786C6.85135 18.1027 6.63725 18.4537 6.46207 18.4147C6.30636 18.3757 5.70297 17.186 5.09959 15.7623C4.39888 14.085 4.08746 13.1099 4.20424 12.9928C4.30156 12.9148 5.56672 12.3492 6.96814 11.7446C8.44741 11.1205 9.59579 10.7305 9.65418 10.8475C9.71257 10.9645 9.61525 11.3741 9.45954 11.7836C9.30383 12.1737 9.20651 12.5443 9.2649 12.6028C9.30383 12.6613 9.45954 12.6028 9.59579 12.4858C9.73204 12.3687 11.2502 11.14 12.9631 9.7748C14.6759 8.40958 16.272 7.16137 16.5055 7.00535C16.7586 6.86882 16.9532 6.59578 16.9532 6.42025C16.9532 6.22522 16.6418 5.71814 16.272 5.28907C15.9021 4.85999 15.6686 4.43092 15.7464 4.35291C15.8243 4.2554 16.3693 4.23589 16.9532 4.31391ZM12.5738 14.5921C12.5738 14.7091 13.5275 15.1967 14.7148 15.6648C15.8827 16.1133 16.8948 16.4644 16.9532 16.3864C17.0116 16.3279 16.9337 15.3917 16.7975 14.2995C16.6418 13.2074 16.4861 12.1542 16.4471 11.9787C16.4082 11.7836 16.2525 11.6276 16.1163 11.6471C15.9995 11.6471 15.143 12.2712 14.2282 13.0123C13.3134 13.7535 12.5738 14.4556 12.5738 14.5921Z" fill="#231F20"/>
</svg>
