<svg width="125" height="42" viewBox="0 0 125 42" fill="none" xmlns="http://www.w3.org/2000/svg">
<path fill-rule="evenodd" clip-rule="evenodd" d="M72.0001 0.525758C73.9411 0.531814 75.6579 0.543926 75.8154 0.55301C75.9728 0.562094 76.5058 0.58329 76.9963 0.59843C77.4869 0.616598 78.2772 0.649906 78.7526 0.67413C79.228 0.701382 79.9274 0.740746 80.312 0.767998C80.6965 0.792222 81.4111 0.846726 81.9017 0.88609C82.3922 0.928482 83.128 0.995098 83.5368 1.03749C83.9456 1.07988 84.6117 1.15558 85.0205 1.20706C85.4293 1.25551 86.0833 1.34635 86.474 1.40388C86.8646 1.46141 87.4247 1.55225 87.7154 1.6007C88.0061 1.65217 88.5451 1.75513 88.9115 1.8278C89.2779 1.9035 89.8623 2.03976 90.2135 2.12757C90.5648 2.21538 91.0826 2.36375 91.3642 2.45762C91.6458 2.54846 92.0152 2.68169 92.1817 2.75134C92.3483 2.81795 92.5663 2.91788 92.6662 2.96633C92.7661 3.0178 92.9569 3.12984 93.0901 3.21462C93.2234 3.30243 93.405 3.44778 93.4929 3.53862C93.5807 3.62946 93.6806 3.76269 93.7169 3.83839C93.7563 3.92317 93.7805 4.03824 93.7835 4.14119C93.7835 4.26836 93.7623 4.35618 93.6897 4.50455C93.6382 4.61356 93.5231 4.78313 93.4323 4.88002C93.3445 4.97995 93.1477 5.15557 92.9993 5.27063C92.8509 5.3857 92.5814 5.56738 92.3997 5.67336C92.2211 5.77934 91.9092 5.95193 91.7063 6.05186C91.5004 6.15481 91.1007 6.33649 90.8191 6.45761C90.5375 6.57873 90.0107 6.78766 89.6534 6.92089C89.296 7.05412 88.7692 7.23883 88.4876 7.32967C88.206 7.42354 87.7487 7.56586 87.4732 7.65064C87.1976 7.73542 86.7222 7.87168 86.4134 7.95647C86.1045 8.04125 85.505 8.19871 85.0811 8.30469C84.6572 8.4137 84.0637 8.55298 83.7639 8.6196C83.4641 8.68622 82.9736 8.78614 82.6738 8.8467C82.374 8.90726 81.8775 8.99507 81.5686 9.04352C81.2597 9.09197 80.8722 9.1495 80.7056 9.16767C80.5391 9.18584 80.3725 9.204 80.3362 9.20703C80.2968 9.21006 80.2666 9.20703 80.2666 9.19795C80.2635 9.18886 80.4785 9.06169 80.7389 8.91029C81.0024 8.75889 81.3869 8.5227 81.5958 8.38342C81.8048 8.24413 82.0924 8.04125 82.2348 7.92922C82.3771 7.82021 82.6254 7.59916 82.7919 7.44171C82.9554 7.28425 83.1734 7.04504 83.2734 6.91181C83.3733 6.77858 83.5156 6.54845 83.5883 6.39705C83.667 6.23354 83.7366 6.02763 83.7669 5.88229C83.7972 5.73089 83.8063 5.56738 83.7972 5.44323C83.7881 5.33422 83.7548 5.1586 83.7185 5.04959C83.6821 4.92847 83.6034 4.77707 83.5126 4.65595C83.4308 4.54694 83.2764 4.38646 83.1704 4.29562C83.0644 4.20478 82.8858 4.07154 82.7707 3.99887C82.6587 3.92923 82.4679 3.82022 82.3468 3.75966C82.2287 3.6991 81.9865 3.59009 81.8108 3.52045C81.6352 3.44778 81.3233 3.33574 81.1144 3.26913C80.9055 3.20251 80.5451 3.09956 80.312 3.039C80.0788 2.98147 79.7245 2.89971 79.5247 2.85732C79.3249 2.81493 78.9161 2.74225 78.6163 2.69078C78.3165 2.6393 77.8653 2.57269 77.6171 2.53938C77.3657 2.50607 76.9024 2.44854 76.5875 2.41523C76.2726 2.38192 75.7609 2.33347 75.452 2.30925C75.1432 2.28503 74.6193 2.25172 74.2863 2.23355C73.9532 2.21235 73.3476 2.18813 72.9388 2.17602C72.53 2.16088 71.6519 2.15179 70.9857 2.15179C70.3196 2.15179 69.4051 2.16391 68.957 2.17602C68.5088 2.18813 67.8336 2.21235 67.4581 2.23355C67.0826 2.25172 66.368 2.29411 65.8684 2.32742C65.3688 2.36073 64.7208 2.40615 64.4301 2.43037C64.1394 2.45459 63.6156 2.50304 63.2643 2.53635C62.9131 2.57269 62.3832 2.62719 62.0834 2.6605C61.7836 2.69381 61.2114 2.76042 60.8117 2.80887C60.412 2.86035 59.7034 2.95724 59.2371 3.02386C58.7708 3.09047 57.9411 3.22068 57.39 3.31152C56.8389 3.40539 56.085 3.53862 55.7095 3.61129C55.334 3.68396 54.789 3.79297 54.4983 3.85353C54.2076 3.91409 53.6141 4.04429 53.1811 4.14422C52.7481 4.24414 51.6974 4.50152 50.8495 4.71651C50.0017 4.92847 48.8571 5.22824 48.306 5.37964C47.7549 5.52801 47.001 5.743 46.6255 5.85201C46.25 5.96404 45.7686 6.10636 45.5505 6.17298C45.3325 6.23959 44.8783 6.38494 44.5362 6.49394C44.194 6.60295 43.5945 6.80583 43.2038 6.94209C42.8132 7.08138 42.3227 7.257 42.1138 7.33573C41.9048 7.41446 41.5506 7.55374 41.3265 7.64458C41.1024 7.73542 40.7118 7.89894 40.4635 8.00794C40.2122 8.11695 39.7307 8.34708 39.3886 8.51968C39.0464 8.69227 38.5831 8.94057 38.359 9.0738C38.135 9.21006 37.7807 9.44624 37.5718 9.6037C37.3477 9.77024 37.0631 10.0216 36.8753 10.2184C36.6997 10.4031 36.512 10.6241 36.4605 10.715C36.406 10.8058 36.3273 10.9602 36.2849 11.0602C36.2455 11.1601 36.1971 11.3236 36.1759 11.4235C36.1577 11.5235 36.1486 11.693 36.1607 11.802C36.1698 11.911 36.2001 12.0745 36.2273 12.1654C36.2546 12.2562 36.3242 12.4258 36.3818 12.5439C36.4393 12.662 36.5513 12.8437 36.627 12.9527C36.7027 13.0617 36.9026 13.2857 37.0721 13.4523C37.2387 13.6188 37.5112 13.858 37.6777 13.9852C37.8443 14.1124 38.138 14.3183 38.3288 14.4424C38.5195 14.5666 38.8678 14.7755 39.1009 14.9057C39.3341 15.0359 39.7095 15.2297 39.9336 15.3387C40.1577 15.4447 40.512 15.6082 40.7209 15.6991C40.9298 15.7899 41.3386 15.9595 41.6293 16.0776C41.92 16.1926 42.4045 16.3743 42.7042 16.4803C43.004 16.5863 43.5006 16.7558 43.8094 16.8558C44.1183 16.9557 44.5816 17.101 44.839 17.1767C45.0963 17.2524 45.602 17.3947 45.9593 17.4947C46.3166 17.5916 46.8284 17.7278 47.0948 17.7944C47.3613 17.8611 47.8518 17.9791 48.1849 18.0548C48.518 18.1305 49.1024 18.2607 49.4869 18.3425C49.8715 18.4243 50.5982 18.5726 51.1069 18.6726C51.6156 18.7725 52.3242 18.9087 52.6815 18.9754C53.0388 19.045 53.8018 19.1782 54.3772 19.2782C54.9525 19.3781 55.77 19.5143 56.194 19.581C56.6179 19.6476 57.2447 19.7445 57.5868 19.7959C57.929 19.8474 58.6921 19.9564 59.2825 20.0412C59.873 20.123 61.0115 20.2713 61.8109 20.3713C62.6103 20.4712 63.7004 20.5984 64.2333 20.6559C64.7662 20.7165 65.4687 20.7891 65.7927 20.8255C66.1167 20.8588 66.8132 20.9254 67.337 20.9769C67.8608 21.0253 68.7814 21.1071 69.3809 21.1585C69.9804 21.207 70.8313 21.2766 71.2734 21.3099C71.7155 21.3433 72.4725 21.3978 72.9539 21.4311C73.4354 21.4644 74.0561 21.5037 74.3317 21.5219C74.6072 21.537 75.3158 21.5764 75.9062 21.6097C76.4967 21.643 77.2809 21.6854 77.6473 21.7036C78.0137 21.7218 78.5648 21.749 78.8737 21.7641C79.1825 21.7823 79.4732 21.7944 79.5247 21.7944C79.5762 21.7944 79.6095 21.7884 79.6004 21.7823C79.5913 21.7732 79.1886 21.7096 78.7071 21.643C78.2257 21.5764 76.7722 21.3705 75.4823 21.1858C74.1924 21.0041 72.1273 20.7043 70.8949 20.5196C69.6625 20.338 68.0819 20.0987 67.3824 19.9928C66.6829 19.8838 65.5172 19.699 64.7935 19.581C64.0698 19.4629 63.1432 19.3084 62.7344 19.2358C62.3257 19.1631 61.7473 19.0541 61.4475 18.9935C61.1478 18.933 60.63 18.8209 60.2969 18.7483C59.9638 18.6726 59.3431 18.5242 58.9192 18.4182C58.4952 18.3122 57.8745 18.1487 57.5414 18.0548C57.2083 17.961 56.63 17.7914 56.2545 17.6763C55.879 17.5613 55.328 17.3826 55.0282 17.2797C54.7284 17.1798 54.2712 17.0162 54.0138 16.9193C53.7564 16.8224 53.3386 16.662 53.0903 16.562C52.8389 16.4621 52.4241 16.2865 52.1667 16.1745C51.9093 16.0594 51.4461 15.8444 51.1372 15.69C50.8283 15.5386 50.3651 15.2963 50.1077 15.148C49.8503 15.0026 49.4627 14.7664 49.2447 14.6241C49.0267 14.4848 48.6876 14.2426 48.4877 14.0912C48.2879 13.9398 47.9396 13.6309 47.7156 13.4069C47.4915 13.1828 47.2311 12.8891 47.1342 12.7558C47.0403 12.6226 46.9101 12.4107 46.8405 12.2865C46.7739 12.1624 46.6891 11.9777 46.6558 11.8777C46.6194 11.7778 46.571 11.5961 46.5468 11.475C46.5225 11.3569 46.5044 11.1722 46.5044 11.0662C46.5044 10.9633 46.5225 10.7695 46.5498 10.6362C46.574 10.503 46.6285 10.285 46.6709 10.1518C46.7163 10.0185 46.8041 9.80052 46.8708 9.66729C46.9374 9.53406 47.0494 9.34329 47.116 9.24337C47.1857 9.14344 47.3522 8.91937 47.4885 8.74375C47.6247 8.56812 47.8518 8.31074 47.9911 8.17146C48.1304 8.03217 48.3817 7.8081 48.5483 7.67486C48.7148 7.54163 48.9873 7.34178 49.1539 7.22975C49.3204 7.11771 49.6081 6.93906 49.7897 6.83611C49.9714 6.73013 50.356 6.53028 50.6376 6.39402C50.9192 6.25776 51.3916 6.05186 51.6822 5.93376C51.9729 5.8187 52.415 5.65216 52.6663 5.56435C52.9146 5.47956 53.387 5.32816 53.711 5.23127C54.035 5.13437 54.6285 4.97389 55.0282 4.87396C55.4279 4.77101 56.0426 4.6287 56.3908 4.553C56.739 4.4773 57.284 4.36829 57.602 4.31076C57.9199 4.25322 58.3802 4.17147 58.6315 4.12908C58.8798 4.08668 59.3734 4.01099 59.7216 3.95951C60.0698 3.90803 60.739 3.82022 61.2053 3.76269C61.6716 3.70516 62.3923 3.6234 62.8101 3.58404C63.225 3.54165 63.9154 3.48109 64.3393 3.44778C64.7632 3.41447 65.4445 3.36602 65.8533 3.3418C66.2621 3.31757 66.7677 3.29032 66.9797 3.28124C67.231 3.26913 67.3673 3.27518 67.3673 3.29335C67.3673 3.30849 67.2764 3.36602 67.1614 3.4175C67.0493 3.46595 66.7526 3.62037 66.5043 3.75361C66.253 3.88987 65.8745 4.10788 65.6565 4.24111C65.4384 4.37132 65.0993 4.59236 64.8995 4.73165C64.6996 4.86791 64.3877 5.10409 64.203 5.25246C64.0183 5.40386 63.7549 5.64005 63.6126 5.77934C63.4702 5.91862 63.2764 6.1215 63.1856 6.23051C63.0917 6.33952 62.9373 6.53634 62.8404 6.66957C62.7466 6.8028 62.5952 7.04201 62.5073 7.19947C62.4165 7.35692 62.2893 7.62339 62.2227 7.78993C62.1591 7.95647 62.0683 8.22899 62.0289 8.39553C61.9865 8.56207 61.935 8.80128 61.9139 8.92543C61.8866 9.06472 61.8715 9.39477 61.8715 9.77327C61.8715 10.2729 61.8836 10.4394 61.929 10.6362C61.9593 10.7695 62.0259 10.9936 62.0743 11.1359C62.1258 11.2782 62.2409 11.5446 62.3317 11.7263C62.4226 11.908 62.5861 12.1896 62.689 12.3471C62.795 12.5045 62.9737 12.7498 63.0857 12.8921C63.2008 13.0344 63.4854 13.3402 63.7185 13.5764C63.9517 13.8096 64.2666 14.1033 64.415 14.2305C64.5633 14.3546 64.845 14.5757 65.0357 14.718C65.2265 14.8603 65.608 15.1147 65.8836 15.2782C66.1591 15.4447 66.5073 15.6476 66.6557 15.7293C66.8041 15.8141 67.1674 16.0049 67.4581 16.1563C67.7488 16.3077 68.2272 16.5439 68.5179 16.6801C68.8086 16.8134 69.281 17.0284 69.5626 17.1525C69.8442 17.2766 70.3287 17.4826 70.6375 17.6067C70.9464 17.7339 71.4097 17.9156 71.667 18.0155C71.9244 18.1154 72.3816 18.285 72.6814 18.394C72.9812 18.503 73.5656 18.7059 73.9835 18.8452C74.3983 18.9875 75.0614 19.2025 75.452 19.3266C75.8426 19.4477 76.3968 19.6173 76.6784 19.7021C76.96 19.7838 77.5626 19.9564 78.0107 20.0806C78.4588 20.2047 79.231 20.4106 79.7215 20.5348C80.212 20.662 80.8994 20.8315 81.2507 20.9133C81.6019 20.995 82.2196 21.1404 82.6284 21.2312C83.0372 21.3221 83.7306 21.4735 84.1727 21.5643C84.6148 21.6551 85.4051 21.8126 85.9289 21.9125C86.4528 22.0124 87.1946 22.1487 87.5792 22.2153C87.9637 22.285 88.7328 22.4121 89.29 22.503C89.8471 22.5938 90.6526 22.7149 91.0765 22.7785C91.5004 22.8391 91.888 22.8996 91.9395 22.9148C91.997 22.9329 91.4035 22.939 90.3801 22.9269C89.4717 22.9208 88.642 22.9057 88.533 22.8996C88.424 22.8936 87.9153 22.8784 87.3975 22.8694C86.8797 22.8603 86.2741 22.8451 86.05 22.8391C85.826 22.83 85.178 22.8088 84.6117 22.7937C84.0455 22.7755 83.4066 22.7573 83.1886 22.7482C82.9706 22.7392 82.5981 22.727 82.3559 22.718C82.1136 22.7089 81.7472 22.6937 81.5383 22.6877C81.3294 22.6786 80.6632 22.6513 80.0546 22.6271C79.446 22.5999 78.3771 22.5545 77.6776 22.5211C76.9781 22.4878 75.7791 22.4242 75.013 22.3849C74.2469 22.3425 73.0539 22.2759 72.3635 22.2335C71.6731 22.1911 70.5951 22.1214 69.9714 22.0821C69.3476 22.0397 68.4543 21.9791 67.988 21.9458C67.5217 21.9125 66.692 21.8489 66.1409 21.8096C65.5898 21.7672 64.4877 21.6763 63.6883 21.6097C62.8889 21.5431 61.717 21.4432 61.0842 21.3856C60.4513 21.3251 59.3824 21.2252 58.7072 21.1555C58.032 21.0889 56.8056 20.9617 55.982 20.8679C55.1584 20.777 54.0956 20.6559 53.6202 20.5984C53.1448 20.5378 52.4453 20.45 52.0607 20.3985C51.6762 20.3501 50.9767 20.2532 50.5013 20.1866C50.0259 20.1199 49.4143 20.0321 49.1387 19.9897C48.8632 19.9504 48.2636 19.8535 47.8064 19.7778C47.3492 19.7021 46.5982 19.5749 46.141 19.4901C45.6838 19.4053 44.9389 19.266 44.4907 19.1752C44.0426 19.0844 43.4219 18.9572 43.113 18.8906C42.8041 18.824 42.2531 18.6998 41.8867 18.615C41.5203 18.5302 40.8783 18.3758 40.4635 18.2668C40.0456 18.1608 39.3462 17.9701 38.9041 17.8429C38.462 17.7157 37.7201 17.4856 37.2538 17.3281C36.7875 17.1737 36.1002 16.9224 35.7247 16.774C35.3492 16.6226 34.8254 16.3985 34.5589 16.2744C34.2924 16.1502 33.8685 15.9383 33.6202 15.799C33.3689 15.6627 33.0086 15.4477 32.8178 15.3206C32.627 15.1934 32.3394 14.9845 32.1819 14.8573C32.0245 14.7301 31.7731 14.4969 31.6248 14.3425C31.4764 14.1851 31.2856 13.9549 31.2039 13.8308C31.1191 13.7066 31.004 13.5068 30.9495 13.3917C30.895 13.2736 30.8224 13.0708 30.786 12.9375C30.7406 12.7619 30.7255 12.6044 30.7255 12.3622C30.7255 12.123 30.7436 11.9595 30.789 11.7869C30.8224 11.6537 30.889 11.4629 30.9314 11.363C30.9768 11.263 31.0737 11.0783 31.1464 10.9542C31.219 10.83 31.3583 10.6241 31.4522 10.5C31.546 10.3758 31.7792 10.1154 31.97 9.92164C32.1607 9.73088 32.4605 9.45533 32.6361 9.31604C32.8118 9.17372 33.0964 8.95571 33.272 8.83156C33.4476 8.70741 33.7747 8.48637 33.9987 8.34405C34.2228 8.20174 34.6195 7.96555 34.8768 7.82021C35.1342 7.67789 35.6399 7.41143 35.9972 7.23278C36.3545 7.05412 36.8814 6.80583 37.163 6.67865C37.4446 6.55148 37.8625 6.3698 38.0865 6.27593C38.3106 6.18206 38.6861 6.03066 38.9192 5.93679C39.1524 5.84595 39.4794 5.71878 39.6459 5.65519C39.8125 5.5916 40.2546 5.43112 40.63 5.29788C41.0055 5.16465 41.6444 4.94664 42.0532 4.8134C42.462 4.68017 43.1645 4.45913 43.6126 4.32287C44.0608 4.18964 44.7784 3.98373 45.2023 3.86564C45.6262 3.74755 46.3439 3.55981 46.792 3.44475C47.2402 3.32969 47.9306 3.16012 48.3212 3.06928C48.7118 2.97844 49.3446 2.83612 49.7292 2.75134C50.1137 2.66958 50.7738 2.53332 51.1978 2.44854C51.6217 2.36375 52.2273 2.24869 52.5452 2.19116C52.8632 2.13363 53.4082 2.03673 53.7564 1.9792C54.1046 1.92167 54.7133 1.82477 55.1039 1.76724C55.4945 1.70668 56.1637 1.61281 56.5876 1.55528C57.0115 1.49472 57.6323 1.41296 57.9653 1.37057C58.2984 1.32818 58.8586 1.26156 59.2068 1.21917C59.555 1.17981 60.094 1.11925 60.4029 1.08594C60.7117 1.05263 61.2416 0.998126 61.5838 0.964818C61.926 0.93151 62.4438 0.883062 62.7344 0.85581C63.0251 0.831586 63.7337 0.777082 64.309 0.73469C64.8843 0.695326 65.8018 0.640822 66.3529 0.61357C66.904 0.586318 67.6035 0.55301 67.9123 0.540898C68.2212 0.525758 70.0592 0.519702 72.0001 0.525758ZM14.998 26.2032C16.2456 26.2062 17.3114 26.2183 17.3599 26.2244C17.4083 26.2335 17.6294 26.2486 17.8444 26.2607C18.0593 26.2698 18.4621 26.2971 18.7376 26.3213C19.0132 26.3485 19.4007 26.3879 19.6006 26.4121C19.8004 26.4394 20.188 26.4999 20.4636 26.5484C20.7391 26.5968 21.1479 26.6846 21.372 26.7422C21.596 26.7967 21.917 26.8966 22.0836 26.9572C22.2501 27.0177 22.5166 27.1358 22.674 27.2176C22.8315 27.2993 23.0767 27.4538 23.2191 27.5597C23.3614 27.6657 23.5582 27.8383 23.6581 27.9443C23.758 28.0503 23.9004 28.2259 23.9761 28.3349C24.0487 28.4439 24.1608 28.6407 24.2213 28.774C24.2849 28.9072 24.3636 29.1252 24.3969 29.2584C24.4333 29.3917 24.4757 29.6369 24.4938 29.8035C24.515 30.0185 24.515 30.2153 24.4938 30.4908C24.4757 30.7058 24.406 31.1328 24.3424 31.4447C24.2758 31.7596 24.1608 32.2804 24.082 32.6044C24.0063 32.9284 23.8822 33.4189 23.8065 33.6945C23.7278 33.97 23.5915 34.4182 23.5007 34.6937C23.4098 34.9692 23.2191 35.5203 23.0767 35.92C22.9344 36.3197 22.7285 36.8375 22.6165 37.0707C22.5044 37.3038 22.3016 37.6581 22.1653 37.858C22.0321 38.0578 21.808 38.3515 21.6657 38.509C21.5264 38.6664 21.3235 38.8723 21.2175 38.9662C21.1116 39.0601 20.9087 39.2236 20.7664 39.3326C20.6241 39.4416 20.397 39.5991 20.2577 39.6869C20.1214 39.7717 19.858 39.917 19.6763 40.0078C19.4946 40.0987 19.21 40.2259 19.0465 40.2925C18.886 40.3561 18.6225 40.4499 18.4651 40.5014C18.3076 40.5529 18.0139 40.6346 17.8141 40.6861C17.6142 40.7346 17.2599 40.8133 17.0268 40.8557C16.7936 40.8981 16.3576 40.9647 16.0578 41.0071C15.7581 41.0464 15.2524 41.1009 14.9375 41.1282C14.6226 41.1524 13.9534 41.1948 13.4538 41.219C12.833 41.2493 11.8853 41.2645 10.4712 41.2645C9.05104 41.2645 8.11539 41.2493 7.50373 41.219C7.0132 41.1948 6.44696 41.1585 6.24711 41.1433C6.04727 41.1252 5.7475 41.0979 5.58096 41.0797C5.41442 41.0616 5.06619 41.0131 4.80882 40.9738C4.55144 40.9314 4.15477 40.8587 3.9307 40.8072C3.70662 40.7558 3.3584 40.6619 3.15856 40.5983C2.95871 40.5317 2.6438 40.4045 2.46212 40.3106C2.27741 40.2168 2.02306 40.0623 1.88982 39.9685C1.75962 39.8746 1.55069 39.6899 1.42957 39.5597C1.30542 39.4325 1.14191 39.2266 1.06318 39.1055C0.984452 38.9874 0.8815 38.7997 0.833052 38.6907C0.784604 38.5817 0.708904 38.3636 0.666512 38.2062C0.599896 37.9518 0.590812 37.8549 0.587784 37.3735C0.584756 37.0313 0.599896 36.7437 0.627148 36.6013C0.648344 36.4772 0.742212 36.0321 0.830024 35.6172C0.920864 35.1994 1.06924 34.5665 1.1631 34.2092C1.25394 33.8519 1.48407 33.0949 1.67181 32.5287C1.86257 31.9624 2.08059 31.3296 2.15629 31.1207C2.23502 30.9117 2.37733 30.5786 2.47726 30.3788C2.57415 30.179 2.73464 29.8943 2.83456 29.7429C2.93146 29.5915 3.08286 29.3826 3.17067 29.2736C3.25545 29.1646 3.45227 28.9496 3.6067 28.7921C3.76113 28.6347 4.0064 28.4076 4.1578 28.2895C4.30617 28.1684 4.56052 27.9867 4.71798 27.8837C4.87543 27.7808 5.1752 27.6112 5.38413 27.5052C5.59307 27.3992 5.92009 27.2509 6.11085 27.1752C6.30162 27.0995 6.57414 27.0056 6.71645 26.9632C6.85877 26.9178 7.1434 26.8421 7.35233 26.7906C7.56127 26.7422 7.95491 26.6574 8.23045 26.6089C8.506 26.5575 8.99048 26.4818 9.30539 26.4424C9.62031 26.403 10.126 26.3485 10.4258 26.3243C10.7255 26.3001 11.2645 26.2637 11.6218 26.2456C11.9791 26.2274 12.3758 26.2092 12.4999 26.2032C12.6241 26.1971 13.7475 26.1971 14.998 26.2032ZM11.4401 29.3947C11.098 29.4129 10.6226 29.4492 10.3803 29.4704C10.1381 29.4946 9.78382 29.537 9.59305 29.5643C9.40229 29.5915 9.06618 29.6581 8.85119 29.7126C8.63621 29.7671 8.34855 29.858 8.21531 29.9155C8.08208 29.97 7.87618 30.079 7.76111 30.1578C7.64302 30.2335 7.4674 30.3818 7.3705 30.4878C7.27361 30.5938 7.14946 30.7422 7.10101 30.8179C7.04954 30.8936 6.95567 31.0571 6.89511 31.1812C6.83455 31.3054 6.72857 31.5627 6.65892 31.7475C6.58928 31.9352 6.30465 32.8981 6.02304 33.8822C5.74144 34.8693 5.48103 35.8201 5.4447 35.9957C5.40836 36.1804 5.38111 36.4348 5.37808 36.6013C5.37808 36.7588 5.39322 36.9435 5.41139 37.0101C5.42956 37.0767 5.48406 37.1948 5.53553 37.2736C5.59307 37.3674 5.69299 37.4613 5.81411 37.54C5.92009 37.6097 6.12902 37.7035 6.27739 37.752C6.42577 37.7974 6.69829 37.867 6.88299 37.9003C7.0677 37.9337 7.41289 37.9821 7.65513 38.0063C7.89737 38.0306 8.37277 38.0669 8.71493 38.0881C9.08132 38.1093 10.0957 38.1244 11.1979 38.1244C12.2728 38.1244 13.3296 38.1093 13.696 38.0881C14.0472 38.0699 14.5438 38.0336 14.8012 38.0094C15.0586 37.9821 15.4401 37.9337 15.6491 37.9003C15.858 37.864 16.1578 37.8035 16.3152 37.7641C16.4727 37.7217 16.7119 37.6399 16.8451 37.5824C16.9783 37.5249 17.1631 37.434 17.2509 37.3795C17.3417 37.3281 17.5143 37.1857 17.6324 37.0707C17.7535 36.9556 17.9079 36.7709 17.9806 36.6619C18.0533 36.5529 18.1653 36.3561 18.2259 36.2228C18.2864 36.0896 18.3803 35.8595 18.4348 35.7081C18.4863 35.5567 18.7467 34.6786 19.0162 33.755C19.2827 32.8315 19.5431 31.8989 19.5945 31.6808C19.6763 31.3478 19.6884 31.2266 19.6914 30.8936C19.6914 30.5272 19.6854 30.4878 19.6127 30.3334C19.5673 30.2425 19.4704 30.1154 19.4007 30.0518C19.3281 29.9882 19.1858 29.8973 19.0858 29.8489C18.9859 29.8005 18.7739 29.7278 18.6165 29.6854C18.459 29.643 18.2077 29.5885 18.0563 29.5643C17.9049 29.537 17.5779 29.4977 17.3296 29.4734C17.0783 29.4462 16.6453 29.4129 16.3606 29.3947C16.076 29.3765 15.1313 29.3584 14.2562 29.3523C13.3811 29.3463 12.5302 29.3493 12.3637 29.3523C12.1971 29.3584 11.7823 29.3765 11.4401 29.3947ZM31.2856 26.185H35.7852L37.3083 27.6445C38.1441 28.4469 38.9919 29.2615 39.1917 29.4553C39.3916 29.6521 40.7663 30.9723 42.25 32.3954C43.7337 33.8186 45.1902 35.2175 46.035 36.029L46.0653 35.9291C46.0804 35.8746 46.7133 33.6642 48.8541 26.2002L53.5899 26.185L53.5747 26.2547C53.5687 26.291 52.5967 29.6824 49.275 41.2645H44.7935L43.3552 39.8807C42.5649 39.1206 40.9086 37.5309 39.6762 36.347C38.4438 35.163 37.2599 34.0245 37.0419 33.8125C36.8239 33.6036 36.1819 32.9829 35.6096 32.4348C35.0373 31.8867 34.5619 31.4356 34.5498 31.4325C34.5377 31.4265 33.9018 33.6066 33.1388 36.2773C32.3757 38.945 31.7368 41.1585 31.6974 41.2645H26.9738L26.9889 41.1978C26.995 41.1585 27.967 37.7671 29.1448 33.6581L31.2856 26.185ZM68.1848 26.2032C69.6262 26.2092 70.907 26.2214 71.0312 26.2304C71.1553 26.2365 71.6246 26.2577 72.0758 26.2759C72.524 26.291 73.281 26.3273 73.7564 26.3516C74.2318 26.3788 74.8979 26.4182 75.2401 26.4424C75.5822 26.4666 75.8638 26.4878 75.8669 26.4939C75.8699 26.4969 75.6701 27.1994 75.4278 28.0503C75.1825 28.9011 74.9766 29.6067 74.9676 29.6188C74.9585 29.6279 74.6254 29.6157 74.2257 29.5915C73.826 29.5643 73.1175 29.5249 72.6511 29.5007C72.1848 29.4765 71.4339 29.4401 70.9857 29.422C70.5346 29.4038 69.8351 29.3765 69.4263 29.3644C69.0175 29.3523 68.0092 29.3402 67.1856 29.3402C66.362 29.3402 65.3658 29.3523 64.9752 29.3644C64.5845 29.3765 64.0516 29.4038 63.7942 29.422C63.5369 29.4431 63.1462 29.4765 62.9313 29.5007C62.7132 29.5249 62.4135 29.5673 62.2651 29.5915C62.1137 29.6188 61.8412 29.6763 61.6595 29.7248C61.4748 29.7732 61.2235 29.858 61.0993 29.9095C60.9752 29.964 60.7753 30.0669 60.6603 30.1426C60.5422 30.2183 60.3726 30.3576 60.2787 30.4515C60.1879 30.5423 60.0516 30.7089 59.979 30.8179C59.9063 30.9238 59.8003 31.1085 59.7458 31.2266C59.6913 31.3417 59.5974 31.5688 59.4339 32.0291L73.9289 32.0442L73.0115 35.2539L58.4952 35.269L58.4619 35.3962C58.4438 35.4658 58.3953 35.6687 58.3529 35.8443C58.3105 36.02 58.2712 36.3076 58.2621 36.4954C58.25 36.7649 58.256 36.8648 58.3014 37.0253C58.3438 37.1736 58.3893 37.2584 58.4983 37.3735C58.5831 37.4643 58.7133 37.5612 58.8374 37.6218C58.9494 37.6763 59.1523 37.752 59.2886 37.7913C59.4279 37.8337 59.6701 37.8852 59.8276 37.9125C59.985 37.9397 60.3181 37.9821 60.5694 38.0063C60.8177 38.0306 61.2689 38.0669 61.5687 38.0851C61.8684 38.1002 62.8162 38.1214 63.6731 38.1274C64.53 38.1335 65.6262 38.1274 66.1107 38.1123C66.5921 38.0972 67.4854 38.0639 68.094 38.0396C68.7026 38.0124 69.6898 37.9639 70.2893 37.9306C70.8888 37.8973 71.658 37.8519 72.0001 37.8277C72.3423 37.8035 72.6239 37.7853 72.6299 37.7913C72.633 37.7944 72.4361 38.5029 71.7427 40.9405L71.6519 40.9617C71.6004 40.9768 71.0372 41.0131 70.3953 41.0495C69.7533 41.0828 68.9085 41.1252 68.5179 41.1403C68.1273 41.1585 67.3219 41.1888 66.7314 41.21C66.1409 41.2311 64.6269 41.2463 63.3703 41.2463C62.1137 41.2463 60.8389 41.2372 60.5391 41.2251C60.2394 41.21 59.7973 41.1857 59.555 41.1706C59.3128 41.1524 58.904 41.1191 58.6466 41.0949C58.3893 41.0707 58.0077 41.0222 57.7988 40.9919C57.5899 40.9586 57.278 40.9041 57.1024 40.8708C56.9267 40.8345 56.633 40.7679 56.4513 40.7194C56.2666 40.671 56.0153 40.5953 55.8912 40.5498C55.767 40.5044 55.5217 40.3954 55.3461 40.3076C55.1705 40.2198 54.9252 40.0775 54.8011 39.9897C54.6769 39.9019 54.471 39.7262 54.3439 39.5991C54.2197 39.4749 54.0562 39.2811 53.9835 39.1751C53.9109 39.0661 53.7988 38.8693 53.7383 38.7361C53.6747 38.5998 53.5959 38.3848 53.5596 38.2516C53.5263 38.1153 53.4839 37.8792 53.4657 37.7217C53.4445 37.5582 53.4415 37.2948 53.4536 37.1161C53.4627 36.9405 53.493 36.6801 53.5172 36.5408C53.5414 36.3985 53.6353 35.9412 53.7292 35.5264C53.82 35.1085 53.9502 34.5484 54.0168 34.2849C54.0865 34.0185 54.2197 33.54 54.3166 33.2251C54.4165 32.9072 54.6012 32.3409 54.7345 31.9685C54.8677 31.593 55.0252 31.1509 55.0887 30.9844C55.1493 30.8179 55.2856 30.5151 55.3855 30.3182C55.4884 30.1184 55.6459 29.8368 55.7398 29.6975C55.8336 29.5552 56.0123 29.316 56.1364 29.1676C56.2636 29.0162 56.4877 28.777 56.636 28.6347C56.7844 28.4924 57.0418 28.2743 57.2083 28.1502C57.3749 28.026 57.6413 27.8474 57.7988 27.7535C57.9563 27.6566 58.2439 27.5052 58.4347 27.4144C58.6254 27.3236 58.9313 27.1933 59.116 27.1267C59.2977 27.0571 59.6186 26.9541 59.8276 26.8936C60.0365 26.836 60.4301 26.7391 60.7057 26.6846C60.9812 26.6271 61.4294 26.5484 61.7049 26.506C61.9805 26.4636 62.471 26.4 62.795 26.3667C63.119 26.3364 63.6156 26.294 63.9002 26.2728C64.1818 26.2547 64.6724 26.2274 64.9903 26.2153C65.3052 26.2002 66.7435 26.1941 68.1848 26.2032ZM81.3415 26.185C83.231 26.185 83.7154 26.1911 83.7033 26.2214C83.6942 26.2426 82.7192 29.6309 81.5383 33.755C80.3544 37.8761 79.3793 41.2523 79.3733 41.2554C79.3642 41.2584 78.2953 41.2584 74.6405 41.2493L76.8025 33.7247C77.9895 29.5855 78.9615 26.1941 78.9645 26.1911C78.9645 26.1881 80.0334 26.185 81.3415 26.185ZM89.4565 26.185C91.0008 26.185 91.8032 26.1941 91.8032 26.2153C91.8032 26.2304 91.1916 28.3803 90.4406 30.9905C89.6927 33.6006 89.0508 35.8595 89.0144 36.0109C88.966 36.1956 88.9448 36.3803 88.9448 36.6013C88.9418 36.8254 88.9569 36.9617 88.9932 37.0707C89.0205 37.1524 89.0962 37.2826 89.1628 37.3583C89.2325 37.4371 89.3657 37.54 89.4898 37.6036C89.6049 37.6642 89.7926 37.7429 89.9107 37.7792C90.0258 37.8156 90.265 37.8701 90.4406 37.9034C90.6163 37.9337 90.9554 37.9821 91.1976 38.0063C91.4399 38.0306 91.8214 38.0608 92.0455 38.0699C92.2695 38.079 92.4936 38.0941 92.5451 38.1002C92.5935 38.1063 93.3839 38.1184 94.3013 38.1244C95.2158 38.1335 96.321 38.1275 96.754 38.1153C97.187 38.1002 97.7654 38.082 98.0409 38.0699C98.3165 38.0608 98.8342 38.0366 99.1915 38.0215C99.5489 38.0063 100.115 37.9791 100.448 37.9609C100.781 37.9458 101.502 37.9034 102.053 37.8701C102.601 37.8368 103.11 37.8035 103.179 37.7974C103.252 37.7883 103.31 37.7913 103.31 37.8035C103.31 37.8156 103.11 38.5302 102.416 40.9617L102.295 40.9768C102.229 40.9829 101.684 41.0162 101.084 41.0495C100.485 41.0828 99.6457 41.1252 99.2218 41.1403C98.7979 41.1585 98.0682 41.1888 97.6018 41.2069C97.1355 41.2221 95.6972 41.2463 94.4073 41.2523C92.4815 41.2675 91.885 41.2614 91.0917 41.219C90.5587 41.1918 89.8895 41.1494 89.6079 41.1252C89.3233 41.0979 88.8963 41.0495 88.6541 41.0162C88.4119 40.9829 88.0727 40.9283 87.8971 40.895C87.7215 40.8617 87.4217 40.7951 87.231 40.7467C87.0402 40.7012 86.7586 40.6165 86.6102 40.565C86.4588 40.5135 86.2014 40.4015 86.0349 40.3167C85.8684 40.2349 85.6322 40.0987 85.511 40.0169C85.3899 39.9352 85.1961 39.7777 85.078 39.6657C84.9569 39.5536 84.7934 39.372 84.7117 39.266C84.6299 39.157 84.4967 38.9329 84.4149 38.7664C84.3332 38.5998 84.2363 38.3455 84.203 38.2062C84.1666 38.0639 84.1242 37.8125 84.1091 37.646C84.0939 37.4552 84.0939 37.2069 84.1121 36.9798C84.1273 36.78 84.1575 36.5408 84.1757 36.4499C84.1939 36.3561 84.854 34.0275 85.6443 31.2721C86.4346 28.5136 87.0856 26.2426 87.0947 26.2214C87.1038 26.1911 87.6034 26.185 89.4565 26.185ZM108.378 26.185H110.734C112.03 26.185 113.09 26.1911 113.09 26.2002C113.09 26.2062 112.481 28.3288 111.74 30.9148C110.998 33.5007 110.356 35.7535 110.313 35.92C110.268 36.0987 110.229 36.344 110.22 36.5256C110.21 36.7618 110.216 36.8678 110.262 37.0222C110.301 37.1615 110.356 37.2584 110.444 37.3553C110.51 37.431 110.631 37.534 110.716 37.5824C110.798 37.6309 110.958 37.7005 111.076 37.7429C111.192 37.7823 111.403 37.8398 111.546 37.8701C111.688 37.9034 111.973 37.9488 112.182 37.976C112.391 38.0003 112.763 38.0336 113.014 38.0518C113.263 38.0669 113.584 38.0881 113.726 38.0972C113.868 38.1063 114.725 38.1214 115.634 38.1274C116.542 38.1335 117.632 38.1275 118.056 38.1153C118.48 38.1002 119.052 38.082 119.328 38.0699C119.603 38.0608 120.257 38.0306 120.781 38.0063C121.305 37.9821 122.11 37.9427 122.568 37.9155C123.025 37.8913 123.667 37.8519 123.991 37.8277C124.315 37.8065 124.584 37.7883 124.587 37.7913C124.59 37.7944 124.394 38.5029 124.148 39.3659C123.776 40.6801 123.694 40.9405 123.643 40.9586C123.609 40.9707 123.049 41.0101 122.401 41.0464C121.75 41.0828 120.893 41.1252 120.494 41.1433C120.094 41.1585 119.385 41.1888 118.919 41.2069C118.453 41.2221 117.002 41.2463 115.694 41.2523C113.744 41.2675 113.142 41.2614 112.348 41.219C111.815 41.1918 111.146 41.1494 110.864 41.1252C110.58 41.0979 110.153 41.0495 109.911 41.0162C109.668 40.9829 109.275 40.9162 109.033 40.8678C108.79 40.8193 108.451 40.7376 108.276 40.6891C108.1 40.6407 107.843 40.5529 107.7 40.4953C107.558 40.4378 107.367 40.3561 107.276 40.3106C107.185 40.2622 107.001 40.1532 106.868 40.0654C106.734 39.9806 106.541 39.8352 106.438 39.7444C106.332 39.6566 106.183 39.5082 106.107 39.4174C106.029 39.3235 105.917 39.1751 105.856 39.0843C105.799 38.9904 105.705 38.8148 105.647 38.6907C105.59 38.5635 105.508 38.3334 105.466 38.1759C105.399 37.9215 105.39 37.8216 105.387 37.3583C105.384 37.0434 105.399 36.7346 105.423 36.6013C105.444 36.4742 106.12 34.079 106.919 31.2781L108.378 26.185ZM28.1093 26.185C29.3901 26.185 29.7292 26.1941 29.7202 26.2244C29.7141 26.2426 29.5143 26.945 28.836 29.3039L25.596 29.3008L26.029 27.7808C26.2652 26.945 26.4651 26.2426 26.4741 26.2244C26.4863 26.1941 26.8405 26.185 28.1093 26.185Z" fill="black"/>
</svg>
