<svg width="242" height="78" viewBox="0 0 242 78" fill="none" xmlns="http://www.w3.org/2000/svg">
<g clip-path="url(#clip0_679_6243)">
<mask id="mask0_679_6243" style="mask-type:luminance" maskUnits="userSpaceOnUse" x="0" y="0" width="160" height="78">
<path d="M159.037 0H0V78H159.037V0Z" fill="white"/>
</mask>
<g mask="url(#mask0_679_6243)">
<path d="M149.472 19.4193L148.702 19.4998L146.31 19.7013L150.931 11.2405L130.058 13.2147L126.127 21.0711L124.587 21.474L123.411 21.3129C123.371 21.3129 118.791 20.6682 115.549 20.6279H115.143C115.022 20.6279 114.86 20.6279 114.738 20.6279C109.956 20.6279 104.727 22.0381 99.9854 24.6166L98.4453 25.4626L97.0673 24.3748C94.1897 22.0783 90.2179 20.7891 85.5975 20.7085C85.4354 20.7085 85.2328 20.7085 85.0707 20.7085C83.3684 20.7085 81.6257 20.5876 79.8424 20.9502L75.5463 20.7085L78.8292 13.3759L78.8697 13.2953C80.5314 9.83041 82.5579 6.36554 83.7737 4.35107L41.4207 17.7674L40.8127 42.8676L38.5431 43.4719L30.6399 45.0432H30.5589C30.4778 45.0432 30.032 45.1238 29.6672 45.1238L18.6433 45.6073C18.6027 45.6073 18.5622 45.6073 18.5217 45.6073C18.3596 45.6073 18.238 45.6073 18.1569 45.6073H17.8327L7.21402 45.8087L3.93115 58.8624L11.2264 58.7819H11.3075C11.348 58.7819 11.3885 58.7819 11.4291 58.7819C11.5101 58.7819 11.6317 58.7819 11.7128 58.7819C11.7533 58.7819 11.7938 58.7819 11.8749 58.7819L25.5332 58.661C25.6953 58.661 25.9791 58.661 26.1817 58.661L31.8558 58.8221C31.9368 58.8221 32.0584 58.8221 32.0584 58.8221H32.2206L40.448 58.7416L40.3669 60.2323L59.821 59.8697L60.9963 56.6868L63.5091 57.6538C65.7788 58.5401 68.2916 58.9833 71.0476 59.0236C71.3718 59.0236 71.6555 59.0236 71.9797 59.0236C75.6679 59.0236 79.0723 58.6207 82.112 57.8149C82.2336 57.8552 82.3552 57.8552 82.4768 57.8552C82.5984 57.8552 82.6794 57.8552 82.801 57.8149C85.1517 57.4523 87.3403 56.848 89.2857 56.1228L89.691 56.4451C92.0417 58.379 95.5677 59.4668 99.8638 59.5876H100.391H100.634C104.241 59.5876 108.132 58.7819 111.901 57.2509L113.198 56.7271L114.373 57.4926C115.913 58.5401 117.818 59.2653 120.007 59.6279C120.534 59.7085 121.831 59.8294 122.682 59.8697C122.803 59.8697 122.925 59.8697 123.087 59.8697C128.396 59.8697 134.922 58.1775 138.326 56.5659L140.758 55.3573L147.85 39.9265L139.947 41.9409C139.866 41.9812 133.584 43.9151 133.584 43.9151L139.907 31.8283L148.904 30.9823L155.065 18.8955L149.472 19.4193Z" fill="white"/>
<path d="M141.65 44.2779C141.001 44.5196 139.299 45.0837 137.475 45.6477C135.692 46.2118 133.787 46.7758 132.774 47.0176C132.206 47.1384 131.274 47.2593 130.423 47.2593C130.058 47.2593 129.734 47.219 129.45 47.1787C129.167 47.1384 128.964 47.0578 128.842 46.9773C128.721 46.8967 128.64 46.8161 128.599 46.6952C128.559 46.5744 128.518 46.4535 128.518 46.3326C128.518 46.1715 128.559 46.0103 128.559 45.8895C128.559 45.8492 128.599 45.7686 128.599 45.7686V45.7283L136.746 30.0961L145.743 29.2903L150.039 21.0713L141.042 21.9174L144.973 14.6653L131.72 15.9545L127.91 23.1663L121.75 23.7707L116.927 31.9494L123.736 31.3048L116.481 45.0031L120.615 51.2076C120.088 51.6508 118.507 53.0207 116.238 54.2696L115.914 54.4308L116.157 54.7128C116.238 54.7934 116.359 54.9143 116.44 54.9948C116.562 55.0754 116.643 55.1963 116.724 55.2366C118.102 56.2841 119.845 57.0093 121.871 57.3719C122.439 57.4525 123.209 57.5331 124.1 57.5331C125.965 57.5331 128.397 57.3316 130.788 56.8481C133.179 56.3647 135.489 55.5992 137.151 54.4711L137.191 54.4308L142.541 43.875L141.852 44.1167C141.933 44.157 141.812 44.1973 141.65 44.2779ZM117.981 51.0868L118.183 50.9256L113.279 43.8347L113.036 43.9959L109.713 46.1715C107.686 47.501 106.065 48.0248 104.606 48.0651C104.525 48.0651 104.444 48.0651 104.363 48.0651C103.998 48.0651 103.633 48.0248 103.39 47.9442C103.106 47.8636 102.904 47.7428 102.742 47.5816C102.579 47.4205 102.539 47.2996 102.539 47.1787C102.539 47.0981 102.539 47.0578 102.579 46.9773C102.579 46.937 102.62 46.8564 102.62 46.8161C102.661 46.7355 102.661 46.6952 102.742 46.6147C102.823 46.5341 102.904 46.4535 103.066 46.3326C103.187 46.2521 104.322 45.6074 108.132 44.3585C109.753 43.8347 111.374 43.3109 112.833 42.7872C114.292 42.2634 115.589 41.7397 116.603 41.1353L116.684 41.095L121.061 32.9163L114.13 33.4804L119.237 24.8182L118.913 24.6973C117.413 24.093 115.225 23.6498 113.36 23.6095C113.198 23.6095 113.036 23.6095 112.874 23.6095C110.239 23.6095 107.362 24.2138 104.525 25.2211C101.728 26.2283 98.9724 27.6384 96.7433 29.25L96.5406 29.4112L100.715 36.6632L104.403 34.2459C106.308 32.9566 107.808 32.3926 109.186 32.3523C109.226 32.3523 109.307 32.3523 109.348 32.3523C109.713 32.3523 110.037 32.3926 110.28 32.4731C110.564 32.5537 110.766 32.6746 110.888 32.7955C111.01 32.9566 111.05 33.0775 111.05 33.1983C111.05 33.2789 111.05 33.3595 111.01 33.3998C111.01 33.4804 110.969 33.5207 110.969 33.561C110.928 33.6415 110.888 33.7221 110.847 33.8027C110.807 33.8833 110.685 33.9638 110.564 34.0847C110.564 34.0847 110.483 34.1653 110.321 34.2459C109.834 34.5279 108.578 35.1322 105.822 36.0589H105.781C102.742 37.1467 100.756 37.9525 98.5671 39.0806L96.4595 40.1684L96.2164 40.7324C95.4058 42.626 94.1088 45.5269 91.9608 47.9845L91.7176 48.3068L93.8251 49.1529H93.8657C94.1899 49.2738 95.2437 49.7169 95.4058 49.7572L96.8648 50.3213L95.9327 51.53C95.2437 52.2955 94.352 53.2624 92.7309 54.3099L92.4066 54.5114L92.6903 54.7531C94.7979 56.4855 97.8375 57.1705 101.201 57.2913C101.404 57.2913 101.647 57.2913 101.85 57.2913C107.605 57.3316 113.401 54.9948 117.981 51.0868ZM90.0154 54.3905C91.4339 53.6653 92.4877 53.0207 93.1767 52.4566C93.5414 52.1746 93.7846 51.9328 93.9873 51.7717C94.0683 51.6911 94.1494 51.6105 94.2304 51.53C94.3115 51.4494 94.352 51.4091 94.3926 51.3285L94.5547 51.0465L94.2304 50.9256C94.0683 50.845 92.5687 50.281 92.5687 50.281L90.7044 49.5558C89.6506 49.1126 87.8268 48.186 85.6788 46.8967C83.5307 45.6074 81.0179 43.9153 78.5051 41.9411C75.9923 39.9267 73.3174 37.3884 71.1693 34.8905C70.1156 33.6415 69.1834 32.3926 68.4538 31.2242C67.7243 30.0558 67.238 28.968 66.9948 28.0413C66.9948 27.9607 66.9543 27.9205 66.9543 27.8399C66.9543 27.7593 66.9543 27.6787 66.9948 27.5579C67.0353 27.4773 67.0759 27.3967 67.1569 27.2355C67.4812 26.7924 68.2107 26.3089 69.305 25.7851C70.3993 25.2614 71.8988 24.6973 73.7226 24.1333L76.1949 23.3678L73.7632 23.5289C69.994 23.7707 66.7111 24.4153 64.3199 25.0599C63.1445 25.3822 62.1718 25.7045 61.4423 25.9866C61.0775 26.1074 60.7938 26.2686 60.5912 26.3895C60.4696 26.47 60.3885 26.5103 60.3075 26.5506C60.2264 26.5909 60.1859 26.6715 60.1048 26.7521L60.0643 26.7924V26.8729C60.0238 27.0341 59.9832 27.1952 59.9832 27.3564C59.9832 27.7996 60.1048 28.4442 60.267 29.25L60.3075 29.4514C60.7938 31.5062 62.0097 33.843 63.793 36.3409C65.5763 38.8388 67.9675 41.4979 70.8046 44.1167C75.9112 48.7903 81.4637 52.1746 84.7466 53.5041C84.8682 53.5444 84.9492 53.625 84.9898 53.6653C85.0303 53.7056 85.0303 53.7459 85.0303 53.7459C85.0303 53.7459 85.0303 53.7862 85.0303 53.8265V53.8667C84.9898 53.9473 84.9087 54.0279 84.7871 54.1488C84.544 54.3502 84.1792 54.5919 83.6928 54.7934C82.2743 55.4783 78.2214 56.7273 75.6275 57.3316L78.5051 57.1302C83.0444 56.8481 86.8947 55.9215 90.0154 54.3905ZM72.061 56.405C75.1817 56.405 78.4646 55.6395 81.5853 54.189L82.1122 53.9473L81.5853 53.6653C77.7756 51.6911 73.3174 48.5486 69.6697 45.2045C68.7376 44.3182 67.8054 43.4318 66.9543 42.5052L66.6706 42.2231L66.4679 42.5857C66.1842 43.1901 65.9005 43.7944 65.6573 44.3585C65.6168 44.4793 65.5763 44.6405 65.4952 44.7211C64.9278 46.3729 64.6036 48.0248 64.563 49.6767C63.6309 48.2262 63.1445 46.5744 63.1445 44.7211C63.1445 43.3915 63.3877 41.9814 63.9146 40.531C63.9146 40.531 63.9956 40.3698 64.0767 40.1684C64.1578 39.9669 64.2388 39.7655 64.2794 39.6849L64.3604 39.5238L64.2388 39.4029C63.3472 38.2748 62.4961 37.187 61.8071 36.1395L61.5639 35.7366L61.3207 36.1395C60.7938 37.0661 60.348 37.9525 60.0238 38.9194C59.9832 39.0403 59.9022 39.1612 59.8617 39.282C59.2132 41.095 58.889 42.8678 58.889 44.5599C58.889 46.9773 59.5374 49.2335 60.8344 51.1271C61.9287 52.7386 63.4282 53.9876 65.252 54.874C67.0759 55.7603 69.1834 56.2438 71.4935 56.3244C71.6557 56.405 71.8583 56.405 72.061 56.405ZM58.97 52.6581L58.889 52.5372C58.1594 51.6508 57.6326 50.4824 57.2273 49.1529C56.822 47.8233 56.6599 46.4132 56.6599 45.0434C56.6599 44.0362 56.7409 43.1095 56.9436 42.2231C57.3488 40.531 58.0784 38.718 58.7268 37.3481C59.0511 36.6632 59.3348 36.0589 59.578 35.656C59.6995 35.4545 59.7806 35.2934 59.8211 35.1725C59.8617 35.1322 59.8617 35.0919 59.9022 35.0517C59.9427 35.0114 59.9427 35.0114 59.9427 35.0114L60.0238 34.8905L59.9427 34.7696C58.3621 31.7479 58.0784 28.8471 58.0784 27.3564C58.0784 26.9938 58.0784 26.7521 58.1189 26.5506C58.1189 26.5103 58.1189 26.47 58.1189 26.4298C58.7674 26.0671 61.6855 24.4959 64.8873 23.6901C66.2653 23.3678 68.1702 22.9649 70.0345 22.6828L70.1966 22.6426L70.2371 22.4814C70.2371 22.4814 70.2777 22.4008 70.3182 22.28C70.6019 21.4339 72.0204 17.6467 74.7764 12.0062L75.0601 11.4019L46.3249 20.5072V20.9504L44.1769 58.3388L44.7443 58.3791L57.3488 58.4597L57.3894 58.218C57.4704 57.7345 57.5515 57.3719 57.7541 56.6064C57.9568 55.8409 58.281 54.7531 58.889 52.8192L58.97 52.6581ZM40.1239 46.2521L31.167 46.9773L31.1264 47.219L29.9916 57.0496H38.8675L40.1239 46.2521ZM69.0213 27.9607L68.8186 28.0816L68.8997 28.3233C69.3455 29.3306 69.9534 30.4184 70.683 31.4659L70.8451 31.7076L71.0882 31.5465C74.4927 29.1694 78.343 27.8802 81.9906 27.8802C82.1527 27.8802 82.3148 27.8802 82.4364 27.8802C84.1387 27.9205 85.6788 28.2428 87.0162 28.8874C82.3554 29.1694 77.3703 31.1436 73.2768 34.3264L73.0337 34.5279L73.2363 34.7696C75.0601 36.8244 77.2082 38.8388 79.721 40.8533C82.0717 42.7066 84.3413 44.1973 86.2057 45.2851C88.07 46.3729 89.4885 47.1384 90.218 47.4607L90.4207 47.5816L90.5828 47.4205C92.3256 45.3657 93.4604 43.311 94.4736 41.0145C94.5142 40.9742 94.5547 40.813 94.6357 40.6519C94.7168 40.4907 94.7573 40.3295 94.7979 40.2087C95.2437 38.9597 95.8921 37.2273 95.8921 35.2934C95.8921 35.1725 95.8921 35.0517 95.8921 34.9308C95.8921 34.8905 95.8921 34.8502 95.8921 34.8502C95.8921 33.9236 95.649 32.4329 95.0816 30.9422C94.5142 29.4514 93.6225 27.9205 92.285 26.9535C91.1908 25.8254 89.7722 25.0196 88.1511 24.4556C86.5299 23.8915 84.7466 23.6095 82.9228 23.5692C82.7201 23.5692 82.5175 23.5692 82.3148 23.5692C77.8972 23.5289 73.1958 25.1002 69.0213 27.9607ZM28.8973 47.0579L20.6294 47.2996L20.5483 47.501L17.5897 57.1302H27.2356L28.8973 47.0579ZM15.0363 57.0496L18.1571 47.5413L9.20013 47.7025L6.64679 57.1302H7.05208L15.0363 57.0496ZM138.61 39.9669L151.904 36.5826L142.177 57.8151L138.894 59.4267C134.881 61.28 127.748 63.0527 122.074 62.9721C121.101 62.9721 119.683 62.8512 118.953 62.7304C116.359 62.2872 114.13 61.4008 112.306 60.1921C108.132 61.8843 103.795 62.7707 99.6208 62.6901H99.2155C94.3115 62.5289 90.2586 61.2397 87.4215 58.9432C82.8823 61.0382 77.2892 62.2066 70.3993 62.0857C67.238 62.0455 64.4009 61.4814 61.9692 60.5145L61.1181 62.8512L60.8344 62.8915L37.2869 63.2541H37.0032L37.0842 61.9649V61.7231L31.7749 61.7634C31.6128 61.7634 31.4507 61.7634 31.4507 61.7634C31.4507 61.7634 31.3291 61.7634 31.167 61.7634L25.5334 61.6023C25.3713 61.6023 25.1281 61.6023 24.966 61.6023L11.2266 61.7231C11.0645 61.7231 10.9429 61.7231 10.9429 61.6829C10.9429 61.6426 10.8213 61.6829 10.6592 61.6829L0.324232 61.8037H0.0405273L4.5798 43.7944L4.66086 43.5527L17.2654 43.311C17.4276 43.311 17.5897 43.311 17.6302 43.311C17.6707 43.311 17.8734 43.311 18.0355 43.2707L29.1 42.7872C29.2621 42.7872 29.5458 42.7469 29.6674 42.7066L37.449 41.1756L37.7327 41.095L38.3406 16.3171V16.0754L89.3264 0L89.1643 0.241736L87.5836 2.6188C86.0841 4.75413 82.8417 10.1126 80.6532 14.7459L78.7888 18.9762C80.8963 18.5733 83.0038 18.3719 85.1114 18.4122C90.4612 18.4928 94.96 20.0641 98.1618 22.6426C103.39 19.782 109.186 18.251 114.617 18.3316H115.022C118.507 18.3719 123.614 19.3388 123.614 19.3388L127.789 11.0393L154.984 8.46074L150.363 16.9215L158.996 16.1157L150.039 33.7221L141.042 34.6085L138.164 40.0878C138.326 40.0475 138.448 40.0072 138.61 39.9669Z" fill="black"/>
</g>
<mask id="mask1_679_6243" style="mask-type:luminance" maskUnits="userSpaceOnUse" x="0" y="0" width="160" height="78">
<path d="M159.037 0H0V78H159.037V0Z" fill="white"/>
</mask>
<g mask="url(#mask1_679_6243)">
<path d="M143.96 59.9907H14.6309V76.3482H143.96V59.9907Z" fill="black"/>
</g>
<path d="M19.7784 72.3594C19.6973 72.0774 20.5484 70.1435 20.7105 70.224C21.1158 70.4255 22.3722 71.2313 23.7908 71.2313C24.7635 71.2313 25.4119 70.9493 25.4119 70.3046C25.4119 69.8212 25.0066 69.4586 23.2639 69.1362C21.0753 68.7333 19.8189 67.8067 19.8189 65.8325C19.8189 64.1001 21.3995 62.6094 24.2366 62.6094C26.0199 62.6094 27.5195 63.0123 28.1679 63.4957C28.3706 63.6569 27.3573 65.5908 27.1952 65.5908C26.952 65.4699 25.6956 64.9462 24.2771 64.9462C23.2639 64.9462 22.7775 65.3088 22.7775 65.7922C22.7775 66.2757 23.0612 66.5174 24.6824 66.8397C26.871 67.2829 28.5327 68.0887 28.5327 70.1435C28.5327 71.755 27.1142 73.4069 23.8313 73.4069C22.0075 73.4069 20.3863 72.7623 19.7784 72.3594Z" fill="white"/>
<path d="M34.4499 62.9317C34.5309 63.2137 34.2877 67.2024 34.2877 68.7334C34.2877 70.3852 34.9362 70.9896 36.2331 70.9896C37.7327 70.9896 38.1785 70.0226 38.1785 68.7737C38.1785 66.8801 38.057 63.5361 38.057 62.7706C38.2596 62.6497 41.1777 62.5288 41.2182 62.69C41.2993 62.972 41.3398 67.1218 41.3398 68.9348C41.3398 71.3925 40.3266 73.6084 36.2737 73.6084C33.1124 73.6084 31.2075 72.2788 31.2075 69.0154C31.2075 67.565 31.2886 63.7375 31.4507 62.9317C31.4912 62.69 34.3688 62.8108 34.4499 62.9317Z" fill="white"/>
<path d="M44.5819 73.4069C44.5009 72.6817 44.5819 63.9792 44.7035 62.9317C45.5546 62.8511 47.3785 62.7705 48.6754 62.7705C51.9177 62.7705 53.7416 63.8986 53.7416 66.4368C53.7416 68.0081 52.931 68.9348 51.5935 69.4182C52.8904 70.7881 54.1874 72.6414 54.1468 72.6817C53.9442 72.9234 52.0393 73.6486 51.5124 73.6083C51.4719 73.6083 50.0129 71.473 48.5943 69.8614C48.5133 69.8614 48.4322 69.8614 48.3917 69.8614C48.108 69.8614 47.7027 69.8614 47.5 69.8211C47.5 70.8686 47.5 72.9234 47.419 73.3263C47.2974 73.4069 44.6225 73.4874 44.5819 73.4069ZM48.9186 67.7664C50.0129 67.7664 50.7829 67.3635 50.7829 66.4771C50.7829 65.631 50.2966 65.1073 48.8375 65.1073C48.5133 65.1073 48.0675 65.1073 47.7432 65.1476C47.7432 65.5505 47.7432 67.2023 47.7432 67.7261C48.0269 67.7664 48.5538 67.7664 48.9186 67.7664Z" fill="white"/>
<path d="M57.1059 73.407C57.0654 72.9235 56.9032 64.0196 56.9843 62.8512C57.6733 62.7706 64.928 62.7303 65.0901 62.8512C65.2117 63.0929 65.2117 64.6642 65.1307 65.1477C64.6443 65.188 61.2804 65.188 59.9429 65.1477L60.024 67.8068C61.483 67.8068 64.0364 67.8471 64.158 67.9276C64.3606 68.0485 64.239 69.9018 64.239 69.9421C64.239 70.0227 61.6857 70.0227 60.105 69.9824C60.1456 71.2313 60.1456 72.8832 60.1456 73.3667C59.9835 73.4473 57.2275 73.4875 57.1059 73.407Z" fill="white"/>
<path d="M74.8982 67.9275C75.9519 68.129 77.0867 69.0153 77.0867 70.506C77.0867 72.5205 75.344 73.4471 72.3853 73.4471C70.8047 73.4471 68.0892 73.3263 68.0082 73.286C67.9271 73.2054 67.8055 63.1331 67.8866 63.0122C67.9677 62.8914 71.0073 62.8511 71.2505 62.8511C73.9255 62.8511 76.3167 63.4957 76.3167 65.7116C76.3167 66.9203 75.7493 67.4843 74.9387 67.8872V67.9275H74.8982ZM70.7236 67.0412C70.9263 67.0412 71.1289 67.0412 71.4532 67.0412C72.669 67.0412 73.3175 66.6383 73.3175 65.9533C73.3175 65.1073 72.2638 64.8655 71.5342 64.8655C71.21 64.8655 70.9263 64.9058 70.7642 64.9058C70.7236 65.2281 70.7236 67.0412 70.7236 67.0412ZM70.8452 71.2715C71.2505 71.3118 71.5748 71.3521 71.98 71.3521C73.3175 71.3521 73.8849 70.8686 73.8849 70.1837C73.8849 69.4182 73.1554 68.975 71.8585 68.975C71.4532 68.975 71.1695 69.0153 70.8452 69.0153C70.8452 69.2974 70.8452 71.2715 70.8452 71.2715Z" fill="white"/>
<path d="M90.9073 68.2499C90.9073 70.909 89.124 73.6486 85.1116 73.6486C81.545 73.6486 79.2754 71.3924 79.2754 68.0081C79.2754 65.2685 81.1803 62.6094 85.0305 62.6094C88.5971 62.6094 90.9073 64.7447 90.9073 68.2499ZM85.1116 65.067C83.3688 65.067 82.3961 66.2757 82.3961 68.1693C82.3961 69.8614 83.4094 71.191 85.0305 71.191C86.8138 71.191 87.6649 69.942 87.6649 68.0887C87.6649 66.034 86.6112 65.067 85.1116 65.067Z" fill="white"/>
<path d="M100.026 71.2315C99.6209 71.2315 97.0676 71.2315 96.4597 71.2315C96.257 71.8358 95.7707 73.3265 95.6491 73.4474C95.568 73.4877 92.731 73.3265 92.5283 73.2056C92.8526 72.1178 96.0949 62.9319 96.257 62.8513C96.4191 62.7707 99.702 62.6902 100.107 62.7304C100.148 62.7304 103.674 71.5135 104.039 73.2056C103.674 73.4071 100.958 73.4877 100.918 73.4877C100.796 73.2056 100.229 71.7955 100.026 71.2315ZM98.2429 65.1881C97.9998 65.9536 97.2702 68.1695 96.9055 69.1364C97.4729 69.1364 99.013 69.0961 99.702 69.0961C99.2967 68.0486 98.5672 65.873 98.3645 65.1478C98.324 65.1881 98.2835 65.1881 98.2429 65.1881Z" fill="white"/>
<path d="M106.714 73.4069C106.633 72.6817 106.714 63.9792 106.835 62.9317C107.686 62.8511 109.51 62.7705 110.807 62.7705C114.05 62.7705 115.873 63.8986 115.873 66.4368C115.873 68.0081 115.063 68.9348 113.725 69.4182C115.022 70.7881 116.319 72.6414 116.279 72.6817C116.076 72.9234 114.171 73.6486 113.644 73.6083C113.604 73.6083 112.145 71.473 110.726 69.8614C110.645 69.8614 110.564 69.8614 110.524 69.8614C110.24 69.8614 109.835 69.8614 109.632 69.8211C109.632 70.8686 109.632 72.9234 109.551 73.3263C109.429 73.4069 106.714 73.4874 106.714 73.4069ZM111.05 67.7664C112.145 67.7664 112.915 67.3635 112.915 66.4771C112.915 65.631 112.428 65.1073 110.969 65.1073C110.645 65.1073 110.199 65.1073 109.875 65.1476C109.875 65.5505 109.875 67.2023 109.875 67.7261C110.159 67.7664 110.645 67.7664 111.05 67.7664Z" fill="white"/>
<path d="M119.237 62.8513C119.643 62.7708 121.588 62.7305 122.925 62.7305C126.857 62.7305 129.248 65.027 129.248 68.0889C129.248 71.2315 127.384 73.528 122.763 73.528C121.345 73.528 119.48 73.4071 119.116 73.3265C119.035 72.3999 119.116 63.9794 119.237 62.8513ZM122.966 65.2284C122.561 65.2284 122.277 65.2284 122.074 65.2687C122.074 67.0011 122.034 69.2573 121.993 70.9898C122.277 71.0301 122.642 71.0301 123.088 71.0301C124.384 71.0301 126.168 70.6675 126.168 68.2098C126.127 66.4371 124.79 65.2284 122.966 65.2284Z" fill="white"/>
<path d="M131.396 72.3594C131.315 72.0774 132.166 70.1435 132.328 70.224C132.733 70.4255 133.989 71.2313 135.408 71.2313C136.381 71.2313 137.029 70.9493 137.029 70.3046C137.029 69.8212 136.624 69.4586 134.881 69.1362C132.692 68.7333 131.436 67.8067 131.436 65.8325C131.436 64.1001 133.017 62.6094 135.854 62.6094C137.637 62.6094 139.137 63.0123 139.785 63.4957C139.988 63.6569 138.975 65.5908 138.812 65.5908C138.569 65.4699 137.313 64.9462 135.894 64.9462C134.881 64.9462 134.395 65.3088 134.395 65.7922C134.395 66.2757 134.678 66.5174 136.3 66.8397C138.488 67.2829 140.15 68.0887 140.15 70.1435C140.15 71.755 138.731 73.4069 135.448 73.4069C133.665 73.4069 132.004 72.7623 131.396 72.3594Z" fill="white"/>
<path d="M89.4886 57.8149H83.166V61.0381H89.4886V57.8149Z" fill="black"/>
<path d="M156.321 67.8071C156.321 67.8876 156.362 68.492 156.321 68.5725C156.119 68.6531 154.619 68.6531 154.579 68.6128C154.538 68.4517 154.011 59.2657 154.335 58.9031C154.66 58.5808 156.443 58.8225 156.524 58.9031C156.605 58.9837 156.605 62.5292 156.605 62.8112C156.727 62.65 157.416 62.086 158.388 62.086C159.726 62.086 160.982 63.1335 160.982 65.1883C160.982 67.5653 159.685 68.6128 158.226 68.6128C157.213 68.6128 156.443 67.9682 156.321 67.8071ZM157.74 63.9393C156.97 63.9393 156.483 64.463 156.483 65.3091C156.483 66.0746 156.929 66.679 157.74 66.679C158.55 66.679 159.077 66.1955 159.077 65.3091C159.077 64.5033 158.51 63.9393 157.74 63.9393Z" fill="black"/>
<path d="M164.143 71.3525C163.657 71.3928 162.319 70.7481 162.198 70.587C162.198 70.5064 163.333 68.2099 163.454 67.7667C163.008 66.8401 161.347 62.7306 161.347 62.4083C161.347 62.2874 163.13 62.0054 163.292 62.0054C163.454 62.0054 164.63 65.6314 164.63 65.6314C164.63 65.6314 166.048 62.0054 166.089 62.0054C166.17 62.0054 168.034 62.368 168.034 62.4486C167.831 63.3349 164.305 71.151 164.143 71.3525Z" fill="black"/>
<path d="M178.775 42.1428C179.747 39.242 180.193 35.9382 182.99 33.9641C182.584 39.1614 182.341 45.2854 185.827 49.5157C187.732 51.2885 189.799 53.3029 190.933 55.5188C191.339 56.9289 189.474 57.2513 188.988 58.3391C188.056 59.6686 187.529 61.1996 187.488 62.932C187.407 63.0529 187.286 62.9723 187.205 63.0126C186.718 62.2874 186.718 61.4011 186.354 60.6356C185.948 59.306 184.408 58.4599 184.449 56.9692C184.53 55.1965 185.34 53.2223 184.408 51.6108C183.8 49.9589 182.909 48.4279 181.693 47.0581C180.355 48.7099 181.49 50.8856 182.017 52.5374L182.706 53.9073C181.49 52.9806 180.072 51.6108 179.423 50.1201C179.261 53.6252 181.247 56.6066 184.206 58.6614C185.178 59.7895 185.381 61.2399 185.584 62.7306C184.53 62.5694 184.651 63.7781 184.165 64.3422C182.544 68.4114 183.273 73.5684 186.029 76.8721V77.0736C182.99 74.7771 180.963 71.5942 180.153 68.1294C179.099 63.899 179.788 59.1046 178.248 55.0756C177.599 53.7461 176.667 52.5374 176.627 50.9661C176.545 47.1789 177.194 43.4723 174.56 40.7327C176.181 40.088 177.518 41.1758 178.775 42.1428ZM183.638 35.1727C183.881 39.1614 184.489 42.9486 186.273 46.2523C187.407 48.2265 189.596 49.7172 191.055 51.6108L192.798 55.4382C193.162 54.3907 194.338 53.7461 195.189 53.0612C195.594 49.6366 191.744 49.1128 190.123 46.7358C189.434 45.6882 189.069 44.1975 189.555 42.9083C191.744 43.9961 193.649 46.0106 194.946 48.0653C196.081 49.5157 195.635 51.9331 196 53.3835L196.162 52.9403C196.729 51.369 198.431 51.8122 199.607 51.5705C199.607 49.5963 199.445 47.6624 198.148 46.212L191.663 40.9744C189.191 38.6779 188.015 35.6159 188.258 32.1913C188.299 30.9424 189.11 29.9351 188.907 28.6459C188.745 28.2833 188.502 27.8804 188.096 27.7595C187.934 29.0488 187.732 30.2977 187.407 31.4661C187.124 33.2389 185.34 34.7699 183.638 35.1727ZM186.394 37.3887C186.637 37.2275 187.043 37.5901 186.962 37.9527C186.88 39.4031 188.177 41.2564 186.921 42.4248C186.313 40.8938 186.151 39.0808 186.394 37.3887ZM190.933 34.8907C191.298 38.3959 195.148 40.2492 198.026 41.055C201.025 43.2306 200.741 47.1387 201.106 50.4827C202.403 49.838 204.146 49.7977 205.564 50.0798L205.686 47.8639C205.443 45.1242 203.092 43.2306 201.876 40.8535C201.349 39.4031 201.552 37.5095 202.687 36.3814C204.267 34.9713 206.578 35.3339 208.199 33.9238C208.969 32.9165 208.888 31.2244 208.483 30.056C207.996 30.7812 207.429 31.587 206.659 32.1108C204.956 32.4734 203.497 31.4661 202.444 30.056C202.444 30.5395 202.484 31.2244 202.403 31.7482C201.106 33.9238 198.674 35.6965 198.756 38.4362C197.742 37.8318 196.77 36.9455 196.445 35.8174C196.121 34.6087 196.405 33.4 197.418 32.5942C194.865 32.3525 192.473 30.1366 191.784 27.7192C191.339 30.056 190.812 32.3928 190.933 34.8907ZM206.78 50.2812C207.956 50.4424 209.09 50.7647 209.901 51.6913L210.347 50.805C211.684 48.4279 209.617 44.6407 212.738 43.2306C213.184 43.2709 213.508 43.5932 213.832 43.9155C215.413 47.0984 211.076 48.7905 211.279 51.8928L212.576 51.8122C213.508 51.9734 214.035 53.0209 214.684 53.6655L214.805 53.0209C217.439 51.2885 215.454 48.2265 215.818 45.7688C216.021 44.4796 217.075 43.2709 218.25 42.6263C222.222 40.2895 223.114 35.9382 222.951 31.7079C222.303 32.5942 221.33 33.1583 220.195 32.836C218.817 32.5137 218.372 31.0632 218.21 29.8949C217.561 30.2172 217.075 30.7812 216.832 31.4258C216.588 33.9641 217.399 36.3008 218.088 38.5973C217.885 39.7657 218.169 41.4579 216.669 41.7802C214.927 42.1831 214.197 39.1614 212.333 40.2895C212.535 37.7916 214.076 35.8577 215.737 33.9641C214.683 33.8432 213.508 33.8835 212.738 33.1986C212.86 32.3122 212.86 31.305 212.292 30.6201C211.968 30.4992 211.522 30.1769 211.157 30.4589L211.482 31.3453C211.887 32.7151 210.955 33.682 210.063 34.6087C207.469 37.1469 211.441 40.2492 208.847 42.7471C207.023 44.8019 206.091 47.5013 206.78 50.2812ZM217.075 53.9475C218.98 54.3907 220.56 56.1635 221.411 57.8556C221.33 56.4455 221.938 55.3174 222.425 54.1893C223.235 51.8525 226.396 51.8928 226.64 49.4351C225.464 50.3215 224.248 51.8122 222.587 51.9331C221.979 51.9331 221.249 51.9331 220.682 51.6913C221.736 50.6841 221.087 49.2337 221.006 47.9847C220.884 47.3804 220.358 46.9372 220.398 46.3329C220.641 46.2523 220.803 46.0106 221.128 46.1314C222.141 47.2595 222.425 49.0725 221.857 50.523C223.033 50.6035 223.884 49.838 224.37 48.8711C224.086 46.6955 224.897 44.8019 226.275 43.4723C225.383 43.8349 224.532 44.2378 223.559 44.4393C223.195 44.3184 223.033 43.9558 222.992 43.5932C223.276 41.5787 224.816 39.9269 226.356 38.5973C227.085 39.4434 227.855 40.2089 227.774 41.3773C227.329 44.2378 226.761 47.0984 225.383 49.556C226.437 49.2337 227.329 48.1862 227.977 47.2998C229.436 44.1573 231.26 40.9341 230.611 37.1469C230.125 37.3484 229.477 37.2678 228.95 37.2275C225.91 37.1066 225.951 33.7626 224.978 31.7885C225.018 32.6748 224.654 33.4 224.856 34.2864C225.1 38.7988 221.128 41.5787 218.453 44.8019C218.412 47.9444 218.696 51.2884 217.075 53.9475ZM223.114 58.3391L224.005 58.6211C226.234 59.5075 225.788 62.0054 226.802 63.617L228.626 60.7161C230.206 58.7822 229.193 56.3246 229.477 53.9073C230.206 52.0137 231.746 50.4827 232.881 48.7502C233.043 50.9258 232.516 53.1015 231.584 54.7936C233.084 54.3101 234.34 52.8194 235.434 51.7719L235.272 52.9806C234.543 57.3721 230.166 60.0715 227.653 63.7378L229.112 65.712C231.26 69.056 229.922 73.649 228.058 76.6707C228.99 76.0261 229.922 75.462 230.733 74.6159C234.178 71.1108 235.434 66.0746 234.056 61.1996C234.178 59.2254 235.718 57.8153 236.448 56.1232C237.339 51.2079 237.866 46.1717 241.96 42.586C239.771 42.7068 237.785 43.432 236.326 45.1242C235.921 41.337 234.421 37.993 233.003 34.6087C233.611 39.242 232.962 44.2378 230.611 48.0653C228.707 51.9331 222.87 53.5044 223.114 58.3391Z" fill="black"/>
</g>
<defs>
<clipPath id="clip0_679_6243">
<rect width="242" height="78" fill="white"/>
</clipPath>
</defs>
</svg>
