<svg width="86" height="86" viewBox="0 0 86 86" fill="none" xmlns="http://www.w3.org/2000/svg">
<path d="M63.4558 11.6461C63.4514 11.658 63.4412 35.3401 63.4463 35.3322C63.4514 35.3243 43.509 46.1169 43.509 46.1169C43.509 46.1169 23.3194 35.3322 23.3398 35.3277C23.3608 35.3243 23.3933 11.623 23.3774 11.6405C23.3608 11.658 43.5135 -0.0129469 43.5058 1.07817e-05C43.4982 0.0129684 63.4603 11.6332 63.4558 11.6461Z" fill="black"/>
<path d="M40.116 51.2476C40.1109 51.2594 40.1007 74.9415 40.1071 74.9348C40.1109 74.9258 20.1692 85.7184 20.1692 85.7184C20.1692 85.7184 -0.0210084 74.9348 1.64091e-05 74.9303C0.0204041 74.9258 0.0541704 51.2245 0.0369683 51.242C0.0204033 51.2594 20.173 39.5885 20.1654 39.6015C20.1584 39.615 40.1198 51.2358 40.116 51.2476Z" fill="black"/>
<path d="M86 51.5292C85.9955 51.5411 85.986 75.2243 85.9911 75.2164C85.9955 75.2074 66.0532 86 66.0532 86C66.0532 86 45.8643 75.2153 45.884 75.2119C45.9044 75.2074 45.9382 51.5061 45.9216 51.5236C45.9044 51.5411 66.0576 39.8702 66.05 39.8831C66.0424 39.8966 86.0051 51.5174 86 51.5292Z" fill="black"/>
</svg>
