<svg width="88" height="62" viewBox="0 0 88 62" fill="none" xmlns="http://www.w3.org/2000/svg">
<path d="M45.3186 54.9923C43.4418 54.2625 42.3953 54.2289 42.3953 53.2655C42.3953 52.7176 43.0603 52.3189 43.9237 52.3189C44.9203 52.3189 45.7185 52.6833 46.1328 53.2144L47.8436 51.9187C47.1469 50.9412 45.8005 50.0266 43.8566 50.0266C41.7978 50.0266 39.8707 51.2224 39.8707 53.2995C39.8707 54.9962 41.1503 56.0561 42.8104 56.6535C44.422 57.251 45.7177 57.5017 45.7177 58.5147C45.7177 59.0629 45.2686 59.6597 43.9905 59.6597C42.6444 59.6597 41.6311 59.0458 41.0828 58.1316L39.2232 59.4117C39.9374 60.8062 41.4811 61.9695 43.9733 61.9695C46.9134 61.9695 48.2755 60.4746 48.2755 58.4307C48.2755 56.7699 47.411 55.7901 45.3186 54.9923Z" fill="#010101"/>
<path d="M24.81 61.7987H27.38V50.163H24.81V61.7987Z" fill="#010101"/>
<path d="M49.3679 61.7987H51.9383V50.163H49.3679V61.7987Z" fill="#010101"/>
<path d="M56.1402 50.164H53.5686V61.7993H60.4123V59.4616H56.1402V50.164Z" fill="#010101"/>
<path d="M63.9656 57.8515L61.3292 50.1639H58.5928L62.7382 61.7989H65.193L69.1888 50.1639H66.4505L63.9656 57.8515Z" fill="#010101"/>
<path d="M70.1888 61.7987H77.3117V59.4618H72.76V57.4576H76.4548V55.2447H72.76V52.5015H77.3311V50.1638H70.1888V61.7987Z" fill="#010101"/>
<path d="M84.9981 57.6279C86.4353 57.0549 87.2316 55.5238 87.2316 54.0041C87.2316 51.8328 85.4456 50.1632 83.2762 50.1632H78.6711V61.7989H81.2239V52.5016H83.2098C84.0278 52.5016 84.6619 53.1353 84.6619 54.0365C84.6619 55.0213 83.9946 55.6562 82.9927 55.6562H82.4338V57.8134L85.0961 61.7989H88L84.9981 57.6279Z" fill="#010101"/>
<path d="M20.7009 56.5562C20.7009 58.5932 19.7497 59.3784 18.3308 59.3784C16.8947 59.3784 15.9435 58.5932 15.9435 56.5562V50.1632H13.3731V57.0918C13.3731 60.3799 15.6097 61.9827 18.3308 61.9827C21.0347 61.9827 23.2721 60.3799 23.2721 57.0918V50.1632H20.7009V56.5562Z" fill="#010101"/>
<path d="M12.3719 55.9821C12.3719 52.6245 9.62861 49.9805 6.18678 49.9805C2.76059 49.9805 0.00055889 52.6245 0.00055889 55.9821C0.00055889 59.3594 2.76059 61.9867 6.18678 61.9867C6.73619 61.9867 7.26843 61.918 7.77511 61.7913L6.11696 59.6555C4.10512 59.6211 2.56066 58.0382 2.56066 55.9821C2.56066 53.9557 4.1406 52.3094 6.18678 52.3094C8.23143 52.3094 9.81099 53.9714 9.81099 55.9821C9.81099 56.6681 9.6309 57.3056 9.31728 57.8516L7.55802 55.6562L5.63699 57.2472L9.29286 61.799H12.4806L10.9312 59.8646C11.8324 58.8279 12.3719 57.48 12.3719 55.9821Z" fill="#010101"/>
<path d="M39.3851 50.164H36.2123L31.5732 55.6718V50.164H29.0028V61.7993H31.5732V59.4258L33.105 57.61L36.4683 61.7993H39.6686L34.7716 55.6562L39.3851 50.164Z" fill="#010101"/>
<path d="M87.9985 46.5511H4.89587C2.04083 46.5511 0.0255629 44.1573 0 41.859V23.2377C3.57804 23.2377 6.78065 21.5193 7.94586 20.6803C15.3534 15.3831 21.5163 5.06328 29.408 1.70729C31.7152 0.721784 36.2051 -0.87418 41.8713 0.593588L48.6481 7.34677C48.6481 7.34677 45.1067 5.68175 39.8606 5.68175C33.9746 5.68175 22.6106 10.5337 22.6106 23.2232C22.6106 33.4438 29.6438 40.6213 41.1948 40.6213H82.0596L87.9985 46.5511Z" fill="#010101"/>
<path d="M40.5559 23.5336C40.124 23.9594 40.3567 24.4493 40.921 24.4291H45.6078L48.9046 21.6386C49.596 20.9617 50.2637 21.088 50.2637 21.8179V27.3811C50.2473 28.2597 51.0283 28.2597 51.5014 27.6691L54.9279 24.4291H59.4217C59.775 24.4211 60.0321 23.9594 59.5476 23.4917L51.4357 15.5077C50.8577 14.9262 49.6078 14.9262 49.0512 15.5077C48.8474 15.6973 40.5559 23.5336 40.5559 23.5336ZM78.408 37.0057H40.3197C36.0003 37.0057 30.2227 34.9427 28.4795 30.9263C28.4795 30.9263 45.6078 13.4519 46.4384 12.6175C48.4888 10.5824 52.1446 10.5824 53.918 12.6175L78.408 37.0057Z" fill="#010101"/>
</svg>
