<svg width="133" height="81" viewBox="0 0 133 81" fill="none" xmlns="http://www.w3.org/2000/svg">
<path d="M133 63.316C114.791 69.7339 91.6566 73.6145 66.582 73.6145C41.5073 73.6145 18.373 69.7339 0.164062 63.316C13.5969 73.316 38.373 80.1816 66.582 80.1816C94.7909 80.1816 119.567 73.4652 133 63.316Z" fill="white"/>
<path d="M64.1939 24.0622C64.1939 10.9279 54.1939 0.181641 40.0148 0.181641C25.8357 0.181641 15.6865 11.0772 15.6865 24.2115C15.6865 37.3458 25.6865 48.0921 39.8656 48.0921C54.0447 48.0921 64.1939 37.1966 64.1939 24.0622ZM55.6865 24.2115C55.6865 33.316 49.2685 40.6294 40.0148 40.6294C30.7611 40.6294 24.1939 33.1667 24.1939 24.0622C24.1939 14.9578 30.6118 7.64433 39.8656 7.64433C49.1193 7.64433 55.6865 15.107 55.6865 24.2115Z" fill="white"/>
<path d="M99.567 1.82343H80.0148C79.4178 1.82343 78.8208 2.42045 78.8208 3.01746V47.0473C78.8208 47.6443 79.4178 48.2413 80.0148 48.2413H100.313C110.612 48.2413 117.477 43.7637 117.477 35.4055C117.477 28.9876 113.746 26.0025 108.224 24.0622C111.657 22.2712 114.791 19.2861 114.791 13.6145C114.791 6.30104 108.97 1.82343 99.567 1.82343ZM97.9253 21.3757H86.7312V8.98761H98.5223C103.746 8.98761 106.731 11.2264 106.731 14.9578C106.731 19.2861 103.149 21.3757 97.9253 21.3757ZM100.313 40.9279H86.7312V28.2413H99.7163C106.134 28.2413 109.269 30.6294 109.269 34.51C109.269 38.6891 105.836 40.9279 100.313 40.9279Z" fill="white"/>
</svg>
