<svg width="46" height="36" viewBox="0 0 46 36" fill="none" xmlns="http://www.w3.org/2000/svg">
<path fill-rule="evenodd" clip-rule="evenodd" d="M21.3572 0.75721C21.7249 0.748455 22.1014 0.783476 22.1802 0.827253C22.2677 0.871029 22.5917 1.01111 22.9069 1.1512C23.441 1.37884 23.7649 1.69403 32.1876 10.0729L34.175 8.09419C35.6547 6.63205 36.3288 6.02793 36.7841 5.75651C37.1256 5.55514 37.6684 5.29248 38.0099 5.17866C38.3513 5.05608 38.9204 4.916 39.2794 4.85471C39.6559 4.80218 40.2425 4.77591 40.6365 4.81093C41.0217 4.8372 41.6346 4.94226 41.9935 5.04733C42.3525 5.14364 42.9041 5.36252 43.2193 5.52887C43.5345 5.68647 44.0248 6.01042 44.3049 6.23806C44.5939 6.47445 44.9441 6.81591 45.0754 7.00853C45.2243 7.21865 45.3468 7.53385 45.3819 7.79651C45.4256 8.1117 45.3906 8.35685 45.2768 8.67204C45.1367 9.05728 44.6639 9.57384 41.2931 12.9622C38.5614 15.7113 37.3882 16.9546 37.1956 17.2961C37.0468 17.5587 36.8454 18.014 36.7403 18.3029C36.6265 18.6269 36.5127 19.3098 36.4339 20.0978C36.3726 20.7982 36.2588 21.6212 36.1712 21.9364C36.0924 22.2516 35.8736 22.8207 35.6809 23.2059C35.4883 23.5911 35.1381 24.1515 34.9017 24.4492C34.6566 24.7556 34.3326 25.062 34.175 25.1408C34.0262 25.2196 33.8073 25.2547 33.6935 25.2284C33.5884 25.2021 33.4221 25.0883 33.3257 24.9745C33.2294 24.8694 33.1506 24.6593 33.1506 24.5192C33.1506 24.3354 33.2995 24.0727 33.6409 23.6437C33.9124 23.3022 34.2451 22.8119 34.3764 22.5493C34.5165 22.2866 34.6828 21.8313 34.7616 21.5424C34.8317 21.2535 34.9367 20.5005 34.9805 19.8789C35.033 19.196 35.1469 18.4955 35.2607 18.1278C35.357 17.7864 35.5496 17.2961 35.6809 17.0334C35.8123 16.7707 36.0487 16.3505 36.215 16.1141C36.3726 15.8689 37.3532 14.8183 40.2862 11.8765L40.1724 11.5C40.0936 11.2549 40.0586 10.8171 40.0849 10.248C40.1111 9.44251 40.1374 9.31118 40.4263 8.71582C40.6365 8.28681 40.9779 7.81402 41.4157 7.33247C41.7834 6.93848 42.0548 6.59702 42.011 6.57951C41.976 6.55325 41.6959 6.47445 41.3807 6.40441C41.0655 6.32561 40.5577 6.26432 40.2425 6.26432C39.9273 6.26432 39.402 6.32561 39.0605 6.40441C38.719 6.47445 38.1762 6.67582 37.8348 6.85093C37.3007 7.1311 36.8191 7.56887 34.1575 10.213C32.4239 11.9378 30.9968 13.2774 30.8743 13.3124C30.7429 13.3474 30.5503 13.3211 30.3927 13.2423C30.2526 13.1723 30.1038 13.0497 30.06 12.9709C30.025 12.8921 29.9987 12.717 29.9987 12.5682C29.9987 12.3668 30.1213 12.1742 31.1282 11.1235L30.4803 10.4669C30.1213 10.1079 29.8149 9.82775 29.7973 9.85401C29.7798 9.88028 29.7098 10.1167 29.631 10.3793C29.5522 10.642 29.3333 11.0623 29.1494 11.3162C28.9656 11.5613 28.6591 11.8853 28.4665 12.0428C28.2739 12.1917 27.9412 12.4018 27.7223 12.4981C27.5034 12.6032 27.0744 12.7258 26.7592 12.7783C26.3477 12.8396 26.0325 12.8396 25.621 12.7695C25.3059 12.7083 25.0432 12.6732 25.0257 12.682C25.0169 12.6907 24.9644 12.8921 24.9119 13.1373C24.8681 13.3737 24.728 13.7939 24.6142 14.0566C24.4829 14.3367 24.2027 14.7307 23.9313 14.9934C23.6861 15.2386 23.2746 15.545 23.0382 15.6676C22.7931 15.7901 22.3553 15.9477 22.0664 16.0003C21.5761 16.1053 21.5323 16.1316 21.5936 16.2892C21.6286 16.3855 21.6899 16.6832 21.7249 16.9458C21.7599 17.2348 21.7424 17.6375 21.6811 17.9527C21.6199 18.2416 21.4798 18.6706 21.3747 18.9158C21.2609 19.1522 20.9544 19.5637 20.7005 19.8263C20.4466 20.0803 20.0614 20.3779 19.8425 20.4918C19.6236 20.5968 19.2734 20.7281 19.0545 20.7894C18.8269 20.8507 18.3629 20.8857 17.9601 20.8682C17.426 20.842 17.1196 20.7719 16.6906 20.5793C16.1565 20.3429 15.7538 19.9577 10.5181 14.7483C5.7289 9.97659 4.86213 9.15359 4.56444 9.07479C4.37183 9.02225 4.05663 8.97848 3.86402 8.97848C3.6714 8.97848 3.35621 9.05728 3.16359 9.14483C2.97097 9.23238 2.70831 9.41625 2.57698 9.55633C2.44565 9.69642 2.2793 9.95908 2.20926 10.1342C2.13046 10.318 2.06917 10.642 2.06917 10.8609C2.06917 11.0798 2.13046 11.4037 2.20926 11.5788C2.28805 11.7802 2.83089 12.4018 4.8271 14.4068L5.48375 13.7589C5.84272 13.3999 6.24547 13.0585 6.3768 13.0147C6.54315 12.9446 6.69199 12.9446 6.84083 13.0059C6.96341 13.0585 7.121 13.181 7.19105 13.2861C7.26109 13.3999 7.32238 13.5925 7.32238 13.7239C7.32238 13.9077 7.14727 14.1529 5.87775 15.4662L9.46744 19.0384L10.1854 18.3467C10.8333 17.7251 10.9471 17.6463 11.236 17.6463C11.4578 17.6463 11.6358 17.7134 11.7701 17.8476C11.9014 17.979 11.9627 18.1366 11.9627 18.3467C11.954 18.6094 11.8576 18.7582 10.5181 20.0978L11.4549 21.0433C11.9627 21.5599 12.4092 22.0765 12.4443 22.199C12.4793 22.3216 12.4618 22.5142 12.3917 22.6368C12.3304 22.7594 12.2254 22.8995 12.1466 22.9608C12.0678 23.0221 11.8664 23.0658 11.7 23.0746C11.4111 23.0746 11.1134 22.7944 6.30676 17.9702C2.41063 14.0741 1.15862 12.7695 0.992264 12.4368C0.869689 12.1917 0.729603 11.7627 0.668316 11.4738C0.607028 11.1761 0.580762 10.7383 0.615784 10.4669C0.650805 10.2042 0.790891 9.74019 0.930976 9.43376C1.07982 9.13607 1.36874 8.71582 1.58763 8.49693C1.80651 8.27805 2.22677 7.98912 2.52445 7.84028C2.83089 7.7002 3.29492 7.56011 3.55758 7.52509C3.82899 7.49883 4.26676 7.51634 4.56444 7.57762C4.85337 7.63891 5.28238 7.78775 5.52753 7.91033C5.83397 8.05917 6.5344 8.68955 7.80392 9.95032C8.81954 10.9572 9.66881 11.7802 9.70383 11.7802C9.74761 11.7802 9.77387 11.7101 9.77387 11.6226C9.77387 11.5438 9.88769 11.2374 10.019 10.9484C10.1591 10.6595 10.4218 10.248 10.6144 10.0379C10.7982 9.82775 11.1747 9.53006 11.4374 9.37247C11.7 9.22363 12.094 9.04852 12.3129 8.99599C12.5318 8.9347 12.8382 8.88217 13.2935 8.84715L13.3023 7.92784C13.3198 7.08732 13.3461 6.95599 13.6 6.41316C13.7751 6.05419 14.0727 5.65145 14.3442 5.38003C14.5981 5.12613 14.957 4.85471 15.1321 4.76716C15.316 4.67085 15.71 4.53952 16.0077 4.46072C16.4017 4.35566 16.7344 4.32939 17.7412 4.4257L17.8375 3.83034C17.8901 3.50639 18.0039 3.06862 18.1002 2.84974C18.2053 2.63085 18.4066 2.29815 18.5555 2.11429C18.7131 1.93043 18.9932 1.65026 19.1859 1.50141C19.3785 1.35257 19.79 1.12493 20.1052 0.993604C20.5429 0.809742 20.8231 0.75721 21.3484 0.75721H21.3572ZM20.0089 2.76218C19.8075 2.92854 19.5536 3.26124 19.4398 3.50639C19.3347 3.74278 19.2384 4.10175 19.2384 4.29437C19.2384 4.48699 19.2997 4.8372 19.3872 5.08235C19.5098 5.43256 19.7375 5.73025 20.613 6.61454C21.5586 7.58638 21.6811 7.74397 21.6899 8.01539C21.6899 8.22552 21.6286 8.38311 21.4973 8.51444C21.3659 8.64577 21.1908 8.71582 20.9895 8.70706C20.7093 8.70706 20.5517 8.58449 19.3872 7.44629C18.6168 6.68458 17.9514 6.10673 17.7237 6.00166C17.5048 5.8966 17.1721 5.82655 16.8745 5.82655C16.5534 5.82655 16.247 5.89368 15.9551 6.02793C15.71 6.14175 15.4036 6.36939 15.2635 6.53574C15.1234 6.70209 14.957 6.96475 14.887 7.11359C14.8257 7.27119 14.7732 7.64767 14.7732 7.94535C14.7732 8.33934 14.8257 8.602 14.957 8.84715C15.0533 9.03977 16.2441 10.3093 17.6011 11.6839C19.4835 13.575 20.1752 14.2142 20.5079 14.3718C20.8056 14.5119 21.0945 14.5819 21.4272 14.5819C21.6987 14.5819 22.0576 14.5119 22.259 14.4155C22.4516 14.328 22.7405 14.1266 22.9069 13.9603C23.0645 13.7939 23.2571 13.5488 23.3359 13.3999C23.4059 13.2511 23.4847 12.9446 23.511 12.6995C23.5373 12.4193 23.5023 12.1041 23.4147 11.824C23.3096 11.4913 23.082 11.1848 22.4779 10.5369C21.8913 9.89779 21.6899 9.61762 21.6899 9.44251C21.6811 9.29367 21.7774 9.10105 21.9175 8.96097C22.0664 8.80337 22.2415 8.71582 22.3991 8.71582C22.6092 8.71582 22.8806 8.9347 23.8525 9.88028C24.7017 10.7033 25.1745 11.0885 25.4547 11.2023C25.7261 11.3074 26.015 11.3512 26.3828 11.3249C26.7855 11.3074 27.0131 11.2374 27.3371 11.036C27.6085 10.8696 27.8624 10.6157 28.0288 10.3443C28.2389 10.0116 28.3089 9.78397 28.3264 9.38122C28.3527 9.02225 28.3089 8.71582 28.2126 8.45316C28.09 8.13797 27.521 7.52509 25.4197 5.4063C23.9488 3.91789 22.6092 2.64836 22.3903 2.51703C22.1102 2.35944 21.8387 2.28064 21.471 2.26313C21.1821 2.25437 20.8144 2.2894 20.6568 2.35068C20.4992 2.40321 20.2015 2.59583 20.0089 2.76218ZM42.729 8.12045C42.3438 8.5232 41.941 9.0135 41.8359 9.21487C41.7396 9.425 41.6171 9.76646 41.5645 9.98534C41.5207 10.2042 41.5032 10.4319 41.5295 10.4844C41.5645 10.5544 42.011 10.1692 42.7553 9.41625C43.4732 8.69831 43.9285 8.16423 43.9285 8.05917C43.9285 7.96286 43.8234 7.779 43.6833 7.63891L43.4382 7.40252L42.729 8.12045ZM12.2779 10.572C12.1291 10.6507 11.8839 10.8434 11.7351 11.001C11.5775 11.1586 11.3936 11.4387 11.3148 11.6226C11.2448 11.8065 11.1835 12.1392 11.1835 12.3668C11.1835 12.5944 11.2273 12.9359 11.2798 13.1285C11.3586 13.4262 11.8314 13.9428 14.1428 16.2717C15.6662 17.8039 17.0233 19.1084 17.1546 19.1785C17.286 19.2485 17.5661 19.3361 17.7675 19.3798C17.9776 19.4236 18.3191 19.4236 18.5555 19.3798C18.7831 19.3361 19.1508 19.1872 19.3697 19.0384C19.5799 18.8983 19.86 18.6094 19.9826 18.408C20.1139 18.1716 20.219 17.8389 20.254 17.5062C20.2978 17.0859 20.2715 16.9021 20.1227 16.5431C19.9651 16.1841 19.431 15.6063 17.1546 13.3386C14.5105 10.6945 14.3529 10.5544 13.8976 10.4231C13.6262 10.3443 13.3373 10.2918 13.241 10.2918C13.1447 10.3005 12.9433 10.3356 12.8032 10.3706C12.6544 10.4056 12.418 10.4932 12.2779 10.572ZM13.5912 23.3723C13.7926 23.416 15.0358 24.6068 19.2121 28.7831C24.3953 33.9662 24.5704 34.1588 24.5792 34.474C24.5792 34.7192 24.5179 34.8593 24.334 35.0256C24.1852 35.157 23.9925 35.2445 23.835 35.2445C23.5986 35.2358 22.8719 34.5441 18.1615 29.8337C13.0834 24.7556 12.7594 24.4054 12.7507 24.1165C12.7507 23.9501 12.8032 23.7487 12.8645 23.6699C12.9258 23.5911 13.0571 23.4861 13.1534 23.4335C13.2497 23.3723 13.4424 23.3548 13.5912 23.3723Z" fill="white" stroke="white"/>
</svg>
