<svg width="56" height="36" viewBox="0 0 56 36" fill="none" xmlns="http://www.w3.org/2000/svg">
<path fill-rule="evenodd" clip-rule="evenodd" d="M8.18325 0.882812H37.4125L38.0064 1.47716V6.58854L42.7334 6.6242C47.2229 6.64798 47.4723 6.65986 47.983 6.8976C48.28 7.02836 48.7194 7.32553 48.9807 7.55138C49.2301 7.77723 49.5627 8.1695 49.7171 8.43102C49.8715 8.69253 50.691 10.8084 53.0664 17.3462L53.6959 17.7979C54.0522 18.0475 54.5154 18.416 54.7292 18.63C54.9429 18.844 55.323 19.4145 56 20.7815V24.1693C56 27.5452 56 27.569 55.7031 28.1633C55.5487 28.4843 55.2042 28.9716 54.9311 29.245C54.6698 29.5066 54.1709 29.8513 53.8265 30.0177C53.2683 30.2792 53.2089 30.3386 53.2089 30.6834C53.2089 30.8973 53.102 31.4085 52.9714 31.8126C52.8288 32.2287 52.52 32.823 52.2825 33.1558C52.0331 33.4768 51.5818 33.9404 51.2848 34.1662C50.976 34.3921 50.4178 34.7011 50.0378 34.8438C49.3726 35.1053 49.2182 35.1172 40.5005 35.1172L40.2036 34.82C40.0136 34.6298 39.9067 34.3921 39.9067 34.1662C39.9067 33.9523 40.0136 33.6908 40.2036 33.5124C40.4887 33.2153 40.5124 33.2153 44.6575 33.2153L44.3962 32.823C44.2537 32.6209 44.0399 32.1336 43.9211 31.7532C43.8023 31.3847 43.7073 30.9092 43.7073 30.3624H20.9035V30.719C20.9035 30.9092 20.7966 31.4085 20.6541 31.8126C20.5116 32.2287 20.2978 32.7041 19.9533 33.2153H21.0817C22.1268 33.2153 22.2337 33.239 22.5069 33.5124C22.6969 33.7026 22.8038 33.9404 22.8038 34.1662C22.8038 34.3802 22.6969 34.6417 22.2218 35.1172H10.0954L9.79852 34.82C9.60848 34.6298 9.50159 34.3921 9.50159 34.1662C9.50159 33.9523 9.60848 33.6908 9.79852 33.5124C10.0598 33.239 10.1667 33.2153 12.3521 33.2153L12.0908 32.823C11.9483 32.6209 11.7345 32.1336 11.6157 31.7532C11.4969 31.3847 11.4019 30.9092 11.4019 30.3624L9.63224 30.3267C8.06448 30.303 7.81506 30.2792 7.53001 30.0652C7.36373 29.9345 7.10244 29.673 6.95992 29.4947C6.73425 29.1856 6.7105 28.9835 6.67487 27.2361C6.65111 25.6671 6.67487 25.2629 6.82927 25.0371C6.92428 24.8944 7.13807 24.7518 7.30435 24.7161C7.5894 24.6567 7.60127 24.621 7.60127 23.7057C7.60127 22.945 7.56564 22.7548 7.42312 22.7548C7.3281 22.7548 7.11432 22.624 6.94804 22.4576C6.75801 22.2674 6.65111 22.0297 6.65111 21.8038C6.65111 21.5899 6.75801 21.3283 7.23309 20.8529H14.6087L14.9056 21.15C15.0957 21.3402 15.2025 21.578 15.2025 21.8038C15.2025 22.0178 15.0957 22.2793 14.6206 22.7548H9.50159V24.6567H36.106V2.78472H9.50159V3.73568H11.105C12.6609 3.73568 12.7203 3.74756 13.0053 4.03285C13.1953 4.22304 13.3022 4.46078 13.3022 4.68663C13.3022 4.9006 13.1953 5.16211 12.7203 5.63759H0.593849L0.296925 5.34041C0.106893 5.15022 0 4.91248 0 4.68663C0 4.47267 0.106893 4.21115 0.581972 3.73568H7.60127V2.60642C7.61315 1.56037 7.6369 1.4415 7.8982 1.17999L8.18325 0.882812ZM38.0064 25.9642L37.4244 26.5586H19.122C19.9652 27.5214 20.274 27.9494 20.3453 28.1277L20.4878 28.4605H44.0636C44.5981 27.5809 44.9544 27.141 45.2038 26.9033C45.4651 26.6775 45.8571 26.3803 46.0827 26.2376C46.3084 26.095 46.7953 25.8929 47.1516 25.7859C47.508 25.6908 48.1018 25.5957 48.4581 25.5957C48.8144 25.5957 49.4558 25.7027 49.8834 25.8335C50.3109 25.9642 50.9167 26.2733 51.2373 26.5229C51.5699 26.7726 52.0093 27.2124 52.235 27.5095C52.4607 27.7948 52.6863 28.1158 52.7338 28.2228C52.817 28.3773 52.8645 28.3773 53.1495 28.2228C53.3277 28.1158 53.6127 27.8543 53.7909 27.6284L54.0997 27.2243C54.0997 21.2927 54.0878 21.1263 53.8384 20.6746C53.6959 20.413 53.4346 20.0564 53.2445 19.8781C53.0664 19.7117 52.5794 19.3551 52.1637 19.0817C51.6649 18.7489 51.4036 18.4874 51.368 18.2972L51.3086 18C47.603 17.9406 47.4011 17.9168 46.8547 17.6434C46.5222 17.477 46.0471 17.1323 45.7858 16.8707C45.5126 16.6092 45.1682 16.1219 45.0138 15.8009C44.7169 15.2066 44.7169 15.159 44.705 11.8426L44.6812 8.49045H38.0064V25.9642ZM46.7597 14.9807C46.8785 15.2185 47.1516 15.5632 47.3773 15.7296C47.7574 16.003 47.888 16.0387 49.1351 16.0624C49.8715 16.0743 50.4772 16.0505 50.4772 16.003C50.4772 15.9554 49.9309 14.4458 49.2776 12.6509C48.6125 10.8084 47.9712 9.25121 47.8286 9.09668C47.6861 8.94215 47.3892 8.74008 47.1754 8.64498C46.9735 8.56177 46.736 8.49045 46.6766 8.49045C46.6053 8.49045 46.5578 9.57216 46.5578 11.5216C46.5578 14.1605 46.5816 14.6003 46.7597 14.9807ZM8.55143 28.4605H11.7582C12.162 27.7592 12.5065 27.3312 12.7678 27.0578L13.2428 26.5467L8.55143 26.5586V28.4605ZM14.7631 27.8899C14.5849 27.9969 14.288 28.2346 14.1217 28.413C13.9436 28.6031 13.706 28.936 13.5873 29.1737C13.4448 29.4471 13.3735 29.8394 13.3735 30.3624C13.3735 30.8735 13.4448 31.2658 13.5873 31.5511C13.706 31.777 13.9436 32.1098 14.1217 32.3C14.288 32.4902 14.6443 32.7517 14.9056 32.8943C15.2501 33.0726 15.5945 33.144 16.1527 33.144C16.7109 33.144 17.0554 33.0726 17.3998 32.8943C17.6611 32.7517 18.0174 32.4902 18.1837 32.3C18.3618 32.1098 18.5994 31.777 18.7181 31.5511C18.8607 31.2658 18.9319 30.8735 18.9319 30.3624C18.9319 29.8394 18.8607 29.4471 18.7181 29.1737C18.5994 28.936 18.3618 28.6031 18.1837 28.413C18.0174 28.2346 17.6611 27.9731 17.3998 27.8305C17.1385 27.6997 16.6515 27.5809 16.3309 27.5571C15.9983 27.5333 15.5945 27.5571 15.4163 27.6046C15.2382 27.6641 14.9413 27.7948 14.7631 27.8899ZM47.0685 27.8899C46.8904 27.9969 46.5934 28.2346 46.4272 28.413C46.249 28.6031 46.0115 28.936 45.8927 29.1737C45.7502 29.4471 45.6789 29.8394 45.6789 30.3624C45.6789 30.8735 45.7502 31.2658 45.8927 31.5511C46.0115 31.777 46.249 32.1098 46.4272 32.3C46.5934 32.4902 46.9497 32.7517 47.211 32.8943C47.5555 33.0726 47.8999 33.144 48.4581 33.144C49.0163 33.144 49.3608 33.0726 49.7052 32.8943C49.9665 32.7517 50.3228 32.4902 50.4891 32.3C50.6672 32.1098 50.9048 31.777 51.0235 31.5511C51.1661 31.2658 51.2373 30.8735 51.2373 30.3624C51.2373 29.8394 51.1661 29.4471 51.0235 29.1737C50.9048 28.936 50.6672 28.6031 50.4891 28.413C50.3228 28.2346 49.9665 27.9731 49.7052 27.8305C49.4439 27.6997 48.9569 27.5809 48.6363 27.5571C48.3037 27.5333 47.8999 27.5571 47.7217 27.6046C47.5436 27.6641 47.2467 27.7948 47.0685 27.8899ZM26.5926 33.2153C27.8397 33.2153 27.9228 33.2272 28.2078 33.5124C28.386 33.6908 28.5048 33.9404 28.5048 34.1662C28.5048 34.3802 28.386 34.6298 28.2078 34.82C27.9347 35.0934 27.8515 35.1172 26.6045 35.1172C25.3692 35.1172 25.2861 35.0934 25.0011 34.82C24.811 34.6179 24.7041 34.3921 24.7041 34.1543C24.716 33.9404 24.8229 33.6789 25.0011 33.5006C25.2742 33.2272 25.3574 33.2153 26.5926 33.2153ZM15.6657 3.73568C16.4021 3.73568 16.5446 3.77134 16.8059 4.03285C16.9841 4.21115 17.1029 4.46078 17.1029 4.68663C17.1029 4.9006 16.9841 5.15022 16.8059 5.34041C16.5565 5.60193 16.414 5.63759 15.6776 5.63759C14.9531 5.63759 14.8106 5.59004 14.5493 5.34041C14.3593 5.13834 14.2524 4.91248 14.2524 4.67474C14.2643 4.46078 14.3712 4.19927 14.5493 4.02096C14.7987 3.77134 14.9413 3.73568 15.6657 3.73568ZM8.53956 6.58854C8.7771 6.58854 9.01463 6.69552 9.50159 7.18289V18H10.1548C10.6893 18 10.8556 18.0475 11.105 18.2972C11.2831 18.4755 11.4019 18.7251 11.4019 18.951C11.4019 19.1649 11.2831 19.4145 10.8199 19.9019H1.54401L1.24708 19.6047C1.05705 19.4145 0.950159 19.1649 0.950159 18.951C0.950159 18.7251 1.05705 18.4755 1.53213 18H7.60127L7.61315 7.171L7.8982 6.87383C8.07635 6.69552 8.31389 6.58854 8.53956 6.58854ZM14.7156 9.44141C16.4734 9.44141 16.509 9.44141 16.8059 9.73858C16.9841 9.91688 17.1029 10.1665 17.1029 10.3924C17.1029 10.6063 16.9841 10.856 16.8059 11.0461C16.5446 11.3195 16.4378 11.3433 14.2524 11.3433V12.2943H14.9056C15.4401 12.2943 15.6064 12.3418 15.8558 12.5914C16.0339 12.7697 16.1527 13.0194 16.1527 13.2452C16.1527 13.4592 16.0339 13.7088 15.8558 13.899C15.6182 14.1367 15.452 14.1962 14.2524 14.1962V15.3254C14.2524 16.3596 14.2286 16.4785 13.9555 16.7519C13.7773 16.9302 13.5398 17.049 13.3022 17.049C13.0766 17.049 12.839 16.9302 12.3521 16.4547L12.3639 10.0239L12.649 9.72669C12.9222 9.44141 12.9815 9.44141 14.7156 9.44141ZM19.7989 9.42952C20.7966 9.42952 21.0341 9.47707 21.4973 9.7148C21.7943 9.86933 22.1862 10.2141 22.3881 10.4993C22.6375 10.856 22.7563 11.1888 22.7919 11.6167C22.8276 12.0922 22.7682 12.3656 22.5544 12.8173C22.3762 13.1977 22.0793 13.5424 21.2598 14.1367L22.0318 14.9332C22.6257 15.5513 22.8038 15.8128 22.8038 16.0981C22.8038 16.3121 22.685 16.5617 22.5069 16.7519C22.3287 16.9302 22.0912 17.049 21.8537 17.049C21.5805 17.049 21.3192 16.8826 19.9415 15.5632L19.9533 16.003C19.9533 16.3239 19.8702 16.5379 19.6564 16.7519C19.4783 16.9302 19.2407 17.049 19.0032 17.049C18.7775 17.049 18.54 16.9302 18.053 16.4547L18.0649 10.0239L18.3499 9.72669C18.6112 9.45329 18.7181 9.4414 19.7989 9.42952ZM20.3215 12.2586C20.5353 12.2467 20.761 12.1397 20.8322 12.0209C20.9273 11.8663 20.9273 11.7594 20.8322 11.6048C20.761 11.486 20.5353 11.379 20.3334 11.3552C19.9771 11.3195 19.9652 11.3433 19.9652 11.8069C19.9533 12.2705 19.9652 12.2824 20.3215 12.2586ZM26.1175 9.44141C27.8753 9.44141 27.9109 9.44141 28.2078 9.73858C28.386 9.91688 28.5048 10.1665 28.5048 10.3924C28.5048 10.6063 28.386 10.856 28.2078 11.0461C27.9466 11.3195 27.8397 11.3433 25.6543 11.3433V12.2943H26.3075C26.842 12.2943 27.0083 12.3418 27.2577 12.5914C27.4358 12.7697 27.5546 13.0194 27.5546 13.2452C27.5546 13.4592 27.4358 13.7088 27.2577 13.899C27.0202 14.1367 26.8539 14.1962 25.6543 14.1962V15.1471H26.7826C27.8278 15.1471 27.9347 15.159 28.2078 15.4443C28.386 15.6226 28.5048 15.8722 28.5048 16.0981C28.5048 16.3121 28.386 16.5617 28.2078 16.7519C27.9228 17.0372 27.8872 17.049 26.1294 17.049C24.3835 17.049 24.336 17.0372 23.754 16.4547L23.7659 10.0239L24.0509 9.72669C24.3241 9.44141 24.3835 9.44141 26.1175 9.44141ZM31.8185 9.44141C33.5762 9.44141 33.6119 9.44141 33.9088 9.73858C34.087 9.91688 34.2057 10.1665 34.2057 10.3924C34.2057 10.6063 34.087 10.856 33.9088 11.0461C33.6475 11.3195 33.5406 11.3433 31.3553 11.3433V12.2943H32.0085C32.543 12.2943 32.7092 12.3418 32.9586 12.5914C33.1368 12.7697 33.2556 13.0194 33.2556 13.2452C33.2556 13.4592 33.1368 13.7088 32.9586 13.899C32.7211 14.1367 32.5548 14.1962 31.3553 14.1962V15.1471H32.4836C33.5287 15.1471 33.6356 15.159 33.9088 15.4443C34.087 15.6226 34.2057 15.8722 34.2057 16.0981C34.2057 16.3121 34.087 16.5617 33.9088 16.7519C33.6238 17.0372 33.5881 17.049 31.8303 17.049C30.0844 17.049 30.0369 17.0372 29.4549 16.4547L29.4668 10.0239L29.7519 9.72669C30.025 9.44141 30.0844 9.44141 31.8185 9.44141Z" fill="white"/>
</svg>
