<svg width="46" height="46" viewBox="0 0 46 46" fill="none" xmlns="http://www.w3.org/2000/svg">
<path fill-rule="evenodd" clip-rule="evenodd" d="M35.5824 0.600098C35.7574 0.600098 36.0549 0.713848 36.3349 0.888848C36.5799 1.04635 38.6711 2.2801 40.9636 3.6276C43.7549 5.2551 45.1724 6.1301 45.2336 6.26135C45.2774 6.3751 45.3474 7.0051 45.3736 7.66135C45.4086 8.39635 45.3911 9.25385 45.3299 9.83135C45.2686 10.3563 45.1286 11.2488 45.0061 11.8001C44.8836 12.3513 44.6386 13.1826 44.4724 13.6376C44.3061 14.0926 43.9649 14.8626 43.7286 15.3438C43.4924 15.8251 43.1161 16.4988 42.8974 16.8313C42.6786 17.1638 42.3199 17.6801 42.0924 17.9688C41.8736 18.2576 41.3574 18.8438 40.9461 19.2726C40.5349 19.7013 39.9311 20.2701 39.5899 20.5501C39.2486 20.8301 38.6274 21.2851 38.1899 21.5738C37.7611 21.8626 37.0524 22.3001 36.6149 22.5451C36.1861 22.7901 35.7399 23.0001 35.6349 23.0001C35.5211 23.0001 35.0136 22.7551 34.4974 22.4663C33.9724 22.1688 33.2549 21.7313 32.8961 21.4863C32.5374 21.2501 31.9861 20.8476 31.6711 20.5938C31.3561 20.3401 30.7436 19.7626 30.3149 19.3076C29.8774 18.8613 29.3436 18.2576 29.1249 17.9688C28.8974 17.6801 28.5386 17.1638 28.3199 16.8313C28.1011 16.4988 27.7249 15.8251 27.4886 15.3438C27.2524 14.8626 26.9111 14.0926 26.7449 13.6376C26.5786 13.1826 26.3336 12.3513 26.2111 11.8001C26.0974 11.2488 25.9486 10.3826 25.8874 9.8751C25.8261 9.3326 25.7999 8.4576 25.8349 7.73135C25.8611 7.0576 25.9224 6.4101 25.9749 6.2876C26.0449 6.12135 27.2261 5.3951 30.5599 3.4526C33.0186 2.00885 35.1011 0.783848 35.1711 0.713848C35.2411 0.652598 35.4249 0.600098 35.5824 0.600098V0.600098ZM27.3399 6.92635C27.2874 6.94385 27.2349 7.3901 27.2174 7.9151C27.1999 8.4401 27.2349 9.30635 27.2961 9.83135C27.3574 10.3563 27.5061 11.2313 27.6461 11.7563C27.7774 12.2901 28.0486 13.1301 28.2499 13.6376C28.4511 14.1451 28.8011 14.8801 29.0286 15.2826C29.2561 15.6763 29.6936 16.3588 30.0086 16.8051C30.3236 17.2426 30.9536 17.9776 31.4174 18.4413C31.8724 18.9051 32.5636 19.5176 32.9399 19.8063C33.3249 20.0951 34.0511 20.5763 34.5586 20.8826C35.0661 21.1801 35.5386 21.4251 35.6086 21.4251C35.6786 21.4251 36.1774 21.1713 36.7024 20.8563C37.2361 20.5413 37.9624 20.0513 38.3211 19.7801C38.6799 19.5088 39.3099 18.9488 39.7211 18.5376C40.1324 18.1263 40.7186 17.4526 41.0336 17.0326C41.3486 16.6213 41.7949 15.9476 42.0399 15.5451C42.2761 15.1513 42.6349 14.4251 42.8449 13.9438C43.0461 13.4626 43.3174 12.7101 43.4399 12.2813C43.5624 11.8526 43.7286 11.1613 43.7986 10.7501C43.8686 10.3388 43.9561 9.49885 43.9824 8.86885C44.0086 8.23885 44.0086 7.55635 43.9736 7.3376L43.9124 6.94385C37.5774 3.25135 35.6786 2.18385 35.6086 2.18385C35.5386 2.18385 33.6661 3.2426 31.4524 4.5376C29.2386 5.8326 27.3924 6.90885 27.3399 6.92635ZM15.2649 34.2088C23.4724 34.2001 25.0736 34.2263 25.5899 34.3313C25.9311 34.4013 26.5349 34.6288 26.9461 34.8301C27.5149 35.1101 27.8386 35.3463 28.3461 35.8538C28.8361 36.3526 29.0986 36.7026 29.3786 37.2626C29.5799 37.6738 29.8074 38.2776 29.8774 38.6188C29.9474 38.9601 30.0086 39.4851 30.0086 39.8001C30.0086 40.1151 29.9474 40.6401 29.8774 40.9813C29.8074 41.3226 29.5799 41.9263 29.3786 42.3376C29.0986 42.8976 28.8449 43.2476 28.3461 43.7376C27.9174 44.1751 27.4799 44.5076 27.0774 44.7176C26.7361 44.8926 26.1936 45.1113 25.8524 45.2163C25.2486 45.3913 25.1174 45.4001 5.37739 45.4001L4.67739 45.1813C4.29239 45.0501 3.72364 44.8138 3.40864 44.6388C3.09364 44.4638 2.55989 44.0438 2.21864 43.7026C1.76364 43.2476 1.50989 42.8888 1.23864 42.3376C1.03739 41.9263 0.809893 41.3226 0.739893 40.9813C0.669893 40.6401 0.608643 40.1151 0.608643 39.8001C0.608643 39.4851 0.669893 38.9601 0.739893 38.6188C0.809893 38.2776 1.03739 37.6738 1.23864 37.2626C1.51864 36.6938 1.75489 36.3613 2.26239 35.8538C2.76989 35.3551 3.10239 35.1101 3.67114 34.8301C4.08239 34.6201 4.66864 34.4013 4.98364 34.3401C5.44739 34.2351 7.30239 34.2088 15.2649 34.2088ZM4.16114 36.1513C3.88114 36.3088 3.44364 36.6501 3.18989 36.9126C2.94489 37.1751 2.62989 37.6038 2.50739 37.8576C2.37614 38.1026 2.20989 38.5401 2.13989 38.8201C2.06989 39.0913 2.00864 39.5376 2.00864 39.8001C2.00864 40.0626 2.06989 40.5176 2.14864 40.8063C2.21864 41.0951 2.41114 41.5588 2.55989 41.8476C2.71739 42.1276 3.05864 42.5651 3.32114 42.8188C3.58364 43.0638 4.01239 43.3788 4.26614 43.5013C4.51114 43.6326 4.94864 43.7988 5.22864 43.8688C5.65739 43.9826 7.05739 44.0001 15.3086 44.0001C23.7261 44.0001 24.9511 43.9826 25.4149 43.8601C25.7036 43.7901 26.1674 43.5976 26.4561 43.4488C26.7361 43.2913 27.1736 42.9501 27.4274 42.6876C27.6724 42.4251 27.9874 41.9963 28.1099 41.7513C28.2411 41.4976 28.4074 41.0601 28.4774 40.7888C28.5474 40.5088 28.6086 40.0626 28.6086 39.8001C28.6086 39.5376 28.5474 39.0913 28.4774 38.8201C28.4074 38.5401 28.2411 38.1026 28.1099 37.8576C27.9874 37.6038 27.6724 37.1751 27.4274 36.9126C27.1736 36.6501 26.7361 36.3088 26.4561 36.1513C26.1674 36.0026 25.7036 35.8101 25.4149 35.7401C24.9511 35.6176 23.7349 35.6001 15.2649 35.6088C7.02239 35.6088 5.56989 35.6263 5.15864 35.7401C4.89614 35.8101 4.44989 36.0026 4.16114 36.1513ZM24.6711 13.9001L24.8899 14.1188C25.0124 14.2413 25.1086 14.4426 25.1086 14.5826C25.1174 14.7138 25.0386 14.9151 24.7761 15.2563L6.06864 15.3438L5.41239 15.6676C4.99239 15.8688 4.62489 16.1313 4.37114 16.4113C4.16114 16.6388 3.86364 17.0851 3.72364 17.4001C3.47864 17.9251 3.45239 18.0563 3.40864 20.2001H28.1711L28.3899 20.4188C28.5299 20.5588 28.6086 20.7338 28.6086 20.9001C28.6086 21.0576 28.5299 21.2501 28.1799 21.6001H3.40864V24.4001H38.4086V23.9188C38.4086 23.5426 38.4524 23.3851 38.6099 23.2101C38.7499 23.0351 38.8899 22.9738 39.1086 22.9738C39.3274 22.9738 39.4674 23.0351 39.8086 23.4376V29.0201C39.8086 32.6076 39.7736 34.7776 39.7124 35.1188C39.6599 35.4076 39.4674 35.9588 39.2836 36.3438C39.0386 36.8601 38.7936 37.2013 38.3561 37.6476C37.9099 38.0851 37.5686 38.3301 37.0524 38.5751C36.6674 38.7588 36.1161 38.9513 35.8274 39.0038C35.5386 39.0563 34.6811 39.1001 33.9286 39.1001C32.5724 39.1001 32.5461 39.1001 32.3274 38.8813C32.2049 38.7588 32.1086 38.5576 32.1086 38.4263C32.0999 38.2863 32.1786 38.0851 32.2749 37.9626C32.4411 37.7438 32.4586 37.7438 34.0949 37.7001C35.6961 37.6563 35.7574 37.6476 36.3086 37.3851C36.6236 37.2451 37.0699 36.9476 37.2974 36.7376C37.5774 36.4838 37.8399 36.1163 38.3649 35.0401L38.4086 25.8001H3.40864V33.0626L3.18989 33.2813C3.05864 33.4213 2.88364 33.5001 2.70864 33.5001C2.54239 33.5001 2.36739 33.4213 2.00864 33.0626V25.7388C2.00864 20.8913 2.04364 18.2313 2.10489 17.8813C2.15739 17.5926 2.34989 17.0326 2.54239 16.6388C2.79614 16.1051 3.03239 15.7638 3.45239 15.3438C3.87239 14.9238 4.21364 14.6788 4.74739 14.4338C5.14114 14.2413 5.66614 14.0488 5.90239 14.0051C6.15614 13.9526 10.1986 13.9176 24.6711 13.9001ZM24.1374 30.0001H28.8711L29.0899 30.2188C29.2299 30.3588 29.3086 30.5338 29.3086 30.7001C29.3086 30.8576 29.2299 31.0501 28.8799 31.4001H24.1461L23.9274 31.1813C23.7874 31.0413 23.7086 30.8663 23.7086 30.7001C23.7174 30.5338 23.8049 30.3413 23.9274 30.2188L24.1374 30.0001ZM31.1374 30.0001H35.8711L36.0899 30.2188C36.2211 30.3501 36.3086 30.5338 36.3086 30.7001C36.3086 30.8576 36.2211 31.0413 35.8799 31.4001H31.1461L30.9274 31.1813C30.7874 31.0326 30.7086 30.8663 30.7086 30.6913C30.7174 30.5338 30.7961 30.3413 30.9274 30.2101L31.1374 30.0001ZM28.9499 32.8001C30.2449 32.8001 30.2711 32.8088 30.4899 33.0188C30.6211 33.1588 30.7086 33.3338 30.7086 33.5001C30.7086 33.6576 30.6211 33.8501 30.4899 33.9813C30.2799 34.2001 30.2536 34.2001 28.9586 34.2001C27.6724 34.2001 27.6374 34.2001 27.4274 33.9813C27.2874 33.8413 27.2086 33.6663 27.2086 33.5001C27.2174 33.3338 27.2961 33.1413 27.4274 33.0188C27.6286 32.8088 27.6724 32.8001 28.9499 32.8001ZM34.1999 32.8001C35.8624 32.8001 35.8711 32.8001 36.0899 33.0188C36.2211 33.1588 36.3086 33.3338 36.3086 33.5001C36.3086 33.6576 36.2211 33.8501 36.0899 33.9813C35.8799 34.2001 35.8711 34.2001 34.2086 34.2001C32.5461 34.2001 32.5461 34.2001 32.3274 33.9813C32.1874 33.8413 32.1086 33.6663 32.1086 33.5001C32.1174 33.3338 32.1961 33.1413 32.3274 33.0188C32.5374 32.8001 32.5461 32.8001 34.1999 32.8001ZM35.7836 4.8351C36.1161 4.86135 36.5186 4.94885 36.7461 5.05385C36.9649 5.1501 37.2799 5.35135 37.4461 5.4826C37.6124 5.6226 37.8836 5.9901 38.0499 6.29635C38.3474 6.83885 38.3561 6.9001 38.4261 9.13135L39.0299 9.72635C39.4849 10.1638 39.7211 10.4876 39.9836 11.0388C40.2199 11.5288 40.3599 11.9838 40.4386 12.4563C40.5174 13.0076 40.5174 13.3138 40.4386 13.9001C40.3599 14.4338 40.2286 14.8451 39.9924 15.3438C39.7474 15.8338 39.4849 16.2101 39.0911 16.6038C38.7849 16.9101 38.3649 17.2601 38.1461 17.3913C37.9274 17.5138 37.5074 17.7063 37.2011 17.8113C36.9036 17.9251 36.3699 18.0388 36.0199 18.0651C35.6524 18.1001 35.1274 18.0826 34.7774 18.0213C34.4274 17.9601 33.8586 17.7676 33.4649 17.5838C32.9486 17.3301 32.6074 17.0851 32.1611 16.6476C31.7236 16.2101 31.4699 15.8513 31.2249 15.3438C30.9799 14.8451 30.8574 14.4338 30.7786 13.9001C30.6911 13.3138 30.6911 13.0076 30.7786 12.4563C30.8486 11.9838 30.9974 11.5288 31.2336 11.0388C31.4961 10.4876 31.7324 10.1726 32.7824 9.13135L32.8261 7.99385C32.8524 7.01385 32.8874 6.7951 33.0711 6.41885C33.1849 6.1826 33.4386 5.82385 33.6399 5.63135C33.8324 5.43885 34.1474 5.2026 34.3399 5.1151C34.5324 5.01885 34.8036 4.91385 34.9524 4.87885C35.0924 4.8351 35.4686 4.82635 35.7836 4.8351ZM34.5411 6.64635C34.4624 6.7601 34.3486 6.96135 34.2961 7.10135C34.2524 7.2326 34.2086 7.59135 34.2086 7.90635V8.4751C34.7861 8.3701 35.2499 8.34385 35.6086 8.34385C35.9674 8.34385 36.4311 8.3701 36.6324 8.41385L37.0086 8.4751C36.9649 7.2326 36.9211 7.0401 36.7811 6.83885C36.6761 6.7076 36.5011 6.52385 36.3874 6.43635C36.2736 6.34885 35.9761 6.26135 35.7399 6.2351C35.4949 6.2176 35.1711 6.2526 34.9961 6.31385C34.8299 6.3751 34.6286 6.52385 34.5411 6.64635ZM33.9111 10.1638C33.6311 10.3213 33.2374 10.6188 33.0361 10.8376C32.8436 11.0563 32.5636 11.4851 32.4149 11.8001C32.1786 12.3076 32.1524 12.4563 32.1524 13.2088C32.1524 13.9876 32.1699 14.0838 32.4674 14.6963C32.6774 15.1163 32.9399 15.4838 33.2111 15.7376C33.4474 15.9476 33.8936 16.2451 34.2086 16.3938C34.7161 16.6301 34.8649 16.6563 35.6086 16.6563C36.3524 16.6563 36.5011 16.6301 37.0086 16.3938C37.3236 16.2451 37.7699 15.9476 37.9974 15.7376C38.2774 15.4838 38.5399 15.1163 38.7411 14.6963C39.0474 14.0838 39.0649 13.9876 39.0649 13.2001C39.0649 12.4126 39.0474 12.3251 38.7411 11.7126C38.5399 11.2838 38.2774 10.9163 37.9974 10.6713C37.7699 10.4526 37.3236 10.1638 37.0086 10.0238C36.5711 9.8226 36.2824 9.7526 35.7836 9.7351C35.4249 9.7176 34.9699 9.74385 34.7774 9.79635C34.5849 9.84885 34.1911 10.0151 33.9111 10.1638ZM5.63989 38.1463C5.81489 38.1376 6.01614 38.2338 6.64614 38.7501L6.99614 38.4438C7.22948 38.2397 7.43364 38.1376 7.60864 38.1376C7.76614 38.1376 7.94989 38.2251 8.08989 38.3563C8.21239 38.4788 8.30864 38.6626 8.30864 38.7763C8.30864 38.8813 8.23864 39.0738 8.15114 39.2051C8.07239 39.3363 7.91489 39.5026 7.60864 39.7126L7.80989 39.9576C7.92364 40.0888 8.08114 40.2901 8.15989 40.4126C8.23864 40.5351 8.30864 40.7188 8.30864 40.8326C8.30864 40.9376 8.21239 41.1213 8.08989 41.2438C7.95864 41.3838 7.78364 41.4626 7.60864 41.4626C7.42489 41.4626 7.24114 41.3663 7.01364 41.1563C6.83864 40.9901 6.67239 40.8588 6.64614 40.8501C6.61989 40.8501 6.44489 40.9813 6.25239 41.1563C6.03364 41.3488 5.81489 41.4626 5.65739 41.4626C5.52614 41.4626 5.35114 41.4363 5.27239 41.4013C5.19364 41.3576 5.07989 41.2263 5.00989 41.0951C4.94864 40.9551 4.92239 40.7626 4.94864 40.6576C4.97489 40.5438 5.14114 40.3076 5.63989 39.8001L5.31614 39.4763C5.14114 39.2926 4.97489 39.0563 4.94864 38.9513C4.92239 38.8376 4.95739 38.6363 5.02739 38.4963C5.09739 38.3563 5.21114 38.2251 5.26364 38.1988C5.32489 38.1726 5.49114 38.1463 5.63989 38.1463ZM11.4761 38.1376C11.6861 38.1376 11.8436 38.2163 12.0711 38.4438C12.2374 38.6188 12.4124 38.7501 12.4649 38.7501C12.5086 38.7501 12.6836 38.6188 12.8411 38.4438C13.0511 38.2163 13.1999 38.1376 13.4099 38.1376C13.5586 38.1288 13.7861 38.2076 13.9086 38.3038C14.0661 38.4263 14.1274 38.5576 14.1274 38.7851C14.1274 39.0301 14.0486 39.1701 13.4274 39.7913L13.8124 40.2113C14.1361 40.5701 14.1886 40.6663 14.1361 40.8938C14.1099 41.0426 13.9961 41.2263 13.8824 41.3138C13.7774 41.4013 13.5674 41.4713 13.4274 41.4713C13.2436 41.4713 13.0686 41.3751 12.8586 41.1563C12.6924 40.9901 12.5086 40.8501 12.4649 40.8501C12.4124 40.8501 12.2374 40.9901 12.0711 41.1563C11.8436 41.3838 11.6861 41.4626 11.4761 41.4626C11.2924 41.4626 11.1174 41.3838 10.9774 41.2438C10.8549 41.1213 10.7586 40.9288 10.7586 40.8063C10.7586 40.6663 10.8986 40.4388 11.5024 39.8001L11.1261 39.4063C10.8899 39.1526 10.7586 38.9338 10.7586 38.7938C10.7674 38.6713 10.8636 38.4701 10.9774 38.3563C11.1174 38.2163 11.2836 38.1376 11.4761 38.1376ZM17.3999 38.1376C17.5836 38.1376 17.7849 38.2426 18.3711 38.7501L18.7386 38.4438C18.9749 38.2513 19.2024 38.1376 19.3511 38.1376C19.4824 38.1376 19.6574 38.1638 19.7361 38.2076C19.8149 38.2426 19.9374 38.3738 19.9986 38.5138C20.0686 38.6451 20.0949 38.8376 20.0686 38.9513C20.0336 39.0563 19.8674 39.2926 19.3774 39.8001L19.6924 40.1326C19.8674 40.3076 20.0336 40.5263 20.0599 40.6138C20.0949 40.6926 20.0774 40.8851 20.0336 41.0251C19.9811 41.1738 19.8674 41.3313 19.7711 41.3751C19.6749 41.4276 19.4824 41.4626 19.3511 41.4626C19.2024 41.4626 18.9836 41.3488 18.7649 41.1563C18.5724 40.9813 18.3974 40.8501 18.3711 40.8501C18.3449 40.8588 18.1786 40.9901 17.9949 41.1563C17.7761 41.3663 17.5836 41.4626 17.4086 41.4626C17.2424 41.4626 17.0586 41.3838 16.9274 41.2438C16.8049 41.1213 16.7086 40.9376 16.7086 40.8326C16.7086 40.7188 16.7699 40.5351 16.8486 40.4126C16.9274 40.2901 17.0849 40.0888 17.4086 39.7126L17.2074 39.5813C17.1024 39.5026 16.9449 39.3363 16.8574 39.2051C16.7786 39.0738 16.7086 38.8813 16.7086 38.7676C16.7174 38.6626 16.8136 38.4701 16.9274 38.3563C17.0586 38.2163 17.2336 38.1376 17.3999 38.1376ZM22.9999 38.1376C23.1836 38.1376 23.3849 38.2426 23.9711 38.7501L24.3386 38.4438C24.5749 38.2513 24.8024 38.1376 24.9511 38.1376C25.0824 38.1376 25.2574 38.1638 25.3361 38.2076C25.4149 38.2426 25.5374 38.3738 25.5986 38.5138C25.6686 38.6451 25.6949 38.8376 25.6686 38.9513C25.6336 39.0563 25.4674 39.2926 24.9774 39.8001L25.2924 40.1326C25.4674 40.3076 25.6336 40.5263 25.6599 40.6138C25.6949 40.6926 25.6774 40.8851 25.6336 41.0251C25.5811 41.1738 25.4674 41.3313 25.3711 41.3751C25.2749 41.4276 25.0824 41.4626 24.9511 41.4626C24.8024 41.4626 24.5836 41.3488 24.3649 41.1563C24.1724 40.9813 23.9974 40.8501 23.9711 40.8501C23.9449 40.8588 23.7786 40.9901 23.5949 41.1563C23.3761 41.3663 23.1836 41.4626 23.0086 41.4626C22.8424 41.4626 22.6586 41.3838 22.5274 41.2438C22.4049 41.1213 22.3086 40.9376 22.3086 40.8326C22.3086 40.7188 22.3699 40.5351 22.4486 40.4126C22.5274 40.2901 22.6849 40.0888 23.0086 39.7126L22.8074 39.5813C22.7024 39.5026 22.5449 39.3363 22.4574 39.2051C22.3786 39.0738 22.3086 38.8813 22.3086 38.7676C22.3174 38.6626 22.4136 38.4701 22.5274 38.3563C22.6586 38.2163 22.8336 38.1376 22.9999 38.1376ZM35.5824 11.1001C35.7399 11.1001 35.9936 11.1526 36.1511 11.2138C36.3086 11.2838 36.5449 11.4588 36.6761 11.6076C36.8074 11.7651 36.9474 12.0363 36.9736 12.2201C36.9999 12.3951 36.9999 12.6751 36.9736 12.8326C36.9474 12.9813 36.7811 13.2613 36.6149 13.4451C36.3436 13.7426 36.3174 13.8126 36.3086 14.3201C36.3086 14.7751 36.2736 14.8976 36.0899 15.0813C35.9586 15.2213 35.7836 15.3001 35.6086 15.3001C35.4424 15.3001 35.2674 15.2213 35.1274 15.0813C34.9436 14.8976 34.9086 14.7838 34.8999 14.3201C34.8999 13.8126 34.8736 13.7426 34.5936 13.4451C34.4099 13.2438 34.2699 12.9901 34.2436 12.7888C34.2086 12.6051 34.2086 12.3251 34.2436 12.1763C34.2699 12.0188 34.3836 11.7651 34.4974 11.6163C34.6111 11.4676 34.8386 11.2838 35.0049 11.2226C35.1624 11.1613 35.4249 11.1088 35.5824 11.1001Z" fill="white" stroke="white"/>
</svg>
